<svg width="56" height="56" viewBox="0 0 56 56" fill="none" xmlns="http://www.w3.org/2000/svg">
<path d="M50.8666 48.4247L42.3732 33.3397C41.9009 32.5008 41.055 32 40.1104 32C39.1658 32 38.3198 32.5008 37.8475 33.3397L29.3542 48.4247C28.8819 49.2636 28.8819 50.2652 29.3542 51.104C29.8266 51.9429 30.6724 52.4437 31.6171 52.4437H48.6037C49.5483 52.4437 50.3942 51.9429 50.8666 51.1041C51.3389 50.2652 51.3389 49.2636 50.8666 48.4247ZM49.7391 50.4366C49.5021 50.8575 49.0777 51.1088 48.6037 51.1088H31.6171C31.1431 51.1088 30.7186 50.8575 30.4816 50.4366C30.2447 50.0157 30.2447 49.5132 30.4816 49.0923L38.975 34.0072C39.212 33.5862 39.6364 33.335 40.1104 33.335C40.5843 33.335 41.0088 33.5862 41.2458 34.0072L49.7392 49.0923C49.9761 49.5132 49.9761 50.0157 49.7391 50.4366Z" fill="#003354"/>
<path d="M40.7608 38.6602H39.459V45.3349H40.7608V38.6602Z" fill="#003354"/>
<path d="M40.1101 46.668C39.6315 46.668 39.2422 47.0672 39.2422 47.558C39.2422 48.0487 39.6315 48.4479 40.1101 48.4479C40.5886 48.4479 40.978 48.0487 40.978 47.558C40.978 47.0672 40.5887 46.668 40.1101 46.668Z" fill="#003354"/>
<path d="M42.2001 16.5977C42.328 16.679 42.4757 16.7218 42.6262 16.7213C42.752 16.7206 42.8759 16.6895 42.9879 16.6307L47.8114 14.1576C47.9431 14.0884 48.0536 13.9833 48.1308 13.8538C48.208 13.7244 48.2488 13.5756 48.2488 13.4239C48.2488 13.2722 48.208 13.1234 48.1308 12.9939C48.0536 12.8645 47.9431 12.7594 47.8114 12.6902L42.9879 10.2171C42.8656 10.1539 42.7295 10.1237 42.5925 10.1296C42.4556 10.1355 42.3224 10.1772 42.2056 10.2507C42.0888 10.3242 41.9923 10.4271 41.9252 10.5496C41.8581 10.6722 41.8227 10.8103 41.8223 10.9508V15.897C41.822 16.0371 41.8565 16.1749 41.9227 16.2975C41.9888 16.4201 42.0843 16.5234 42.2001 16.5977ZM43.4301 12.2863L45.6489 13.4239L43.4301 14.5615V12.2863Z" fill="#003354"/>
<path d="M44.2353 20.8386C45.6663 20.8386 47.0651 20.4034 48.2549 19.5882C49.4448 18.773 50.3721 17.6142 50.9198 16.2585C51.4674 14.9028 51.6107 13.4111 51.3315 11.9719C51.0523 10.5327 50.3632 9.21067 49.3513 8.17306C48.3395 7.13546 47.0503 6.42884 45.6468 6.14256C44.2433 5.85629 42.7885 6.00321 41.4664 6.56476C40.1444 7.12631 39.0144 8.07726 38.2194 9.29736C37.4243 10.5175 37 11.9519 37 13.4193C37 15.387 37.7623 17.2741 39.1192 18.6655C40.476 20.0569 42.3163 20.8386 44.2353 20.8386ZM44.2353 7.64873C45.3483 7.64873 46.4363 7.98717 47.3617 8.62125C48.2871 9.25533 49.0084 10.1566 49.4343 11.211C49.8602 12.2654 49.9717 13.4257 49.7545 14.5451C49.5374 15.6645 49.0014 16.6927 48.2144 17.4997C47.4274 18.3067 46.4247 18.8563 45.3331 19.079C44.2415 19.3016 43.11 19.1874 42.0817 18.7506C41.0535 18.3138 40.1746 17.5742 39.5562 16.6252C38.9379 15.6763 38.6078 14.5606 38.6078 13.4193C38.6078 11.8888 39.2007 10.4211 40.2561 9.33889C41.3114 8.2567 42.7428 7.64873 44.2353 7.64873Z" fill="#003354"/>
<path d="M7.80392 24.8386H17.4509C17.6641 24.8386 17.8686 24.7517 18.0194 24.5971C18.1701 24.4425 18.2548 24.2329 18.2548 24.0142V10.8244C18.2548 10.6057 18.1701 10.396 18.0194 10.2415C17.8686 10.0869 17.6641 10 17.4509 10H7.80392C7.5907 10 7.38623 10.0869 7.23546 10.2415C7.0847 10.396 7 10.6057 7 10.8244V24.0142C7 24.2329 7.0847 24.4425 7.23546 24.5971C7.38623 24.7517 7.5907 24.8386 7.80392 24.8386ZM8.60783 11.6487H16.647V23.1898H8.60783V11.6487Z" fill="#003354"/>
<path d="M14.236 13.2969H12.6281C12.4149 13.2969 12.2104 13.3837 12.0597 13.5383C11.9089 13.6929 11.8242 13.9026 11.8242 14.1212C11.8242 14.3399 11.9089 14.5496 12.0597 14.7042C12.2104 14.8588 12.4149 14.9456 12.6281 14.9456H14.236C14.4492 14.9456 14.6537 14.8588 14.8044 14.7042C14.9552 14.5496 15.0399 14.3399 15.0399 14.1212C15.0399 13.9026 14.9552 13.6929 14.8044 13.5383C14.6537 13.3837 14.4492 13.2969 14.236 13.2969Z" fill="#003354"/>
<path d="M14.2344 16.5938H11.0188C10.8055 16.5938 10.6011 16.6806 10.4503 16.8352C10.2995 16.9898 10.2148 17.1995 10.2148 17.4181C10.2148 17.6368 10.2995 17.8464 10.4503 18.001C10.6011 18.1556 10.8055 18.2425 11.0188 18.2425H14.2344C14.4476 18.2425 14.6521 18.1556 14.8029 18.001C14.9536 17.8464 15.0383 17.6368 15.0383 17.4181C15.0383 17.1995 14.9536 16.9898 14.8029 16.8352C14.6521 16.6806 14.4476 16.5938 14.2344 16.5938Z" fill="#003354"/>
<path d="M14.2344 19.8906H11.0188C10.8055 19.8906 10.6011 19.9775 10.4503 20.1321C10.2995 20.2867 10.2148 20.4964 10.2148 20.715C10.2148 20.9336 10.2995 21.1433 10.4503 21.2979C10.6011 21.4525 10.8055 21.5394 11.0188 21.5394H14.2344C14.4476 21.5394 14.6521 21.4525 14.8029 21.2979C14.9536 21.1433 15.0383 20.9336 15.0383 20.715C15.0383 20.4964 14.9536 20.2867 14.8029 20.1321C14.6521 19.9775 14.4476 19.8906 14.2344 19.8906Z" fill="#003354"/>
<path d="M31.1359 20.8876C31.2608 20.8876 31.3838 20.8578 31.4955 20.8006C31.6071 20.7433 31.7042 20.6602 31.7791 20.5579L34.1908 17.2604C34.3188 17.0855 34.3737 16.8656 34.3435 16.6492C34.3134 16.4328 34.2006 16.2375 34.03 16.1063C33.8595 15.9751 33.6451 15.9188 33.434 15.9497C33.2229 15.9806 33.0325 16.0962 32.9046 16.2712L30.4928 19.5686C30.3649 19.7435 30.31 19.9634 30.3401 20.1798C30.3703 20.3963 30.483 20.5916 30.6536 20.7227C30.7928 20.8298 30.962 20.8876 31.1359 20.8876Z" fill="#003354"/>
<path d="M32.9049 23.8585C32.9798 23.9609 33.0769 24.044 33.1885 24.1012C33.3002 24.1584 33.4233 24.1882 33.5481 24.1882C33.722 24.1882 33.8913 24.1304 34.0304 24.0234L37.2461 21.5503C37.4166 21.4191 37.5294 21.2238 37.5596 21.0074C37.5897 20.7909 37.5348 20.5711 37.4069 20.3962C37.2789 20.2212 37.0885 20.1056 36.8774 20.0747C36.6663 20.0438 36.4519 20.1001 36.2814 20.2313L33.0657 22.7044C32.8951 22.8356 32.7824 23.0309 32.7522 23.2473C32.7221 23.4637 32.777 23.6836 32.9049 23.8585Z" fill="#003354"/>
<path d="M40.7841 25.6672C40.765 25.5579 40.7245 25.4537 40.6652 25.3608C40.6058 25.2679 40.5288 25.1883 40.4387 25.1267C40.3486 25.0651 40.2473 25.0229 40.1409 25.0024C40.0345 24.9819 39.9251 24.9837 39.8194 25.0077L35.7998 25.8321C35.6942 25.8429 35.5918 25.8749 35.4983 25.9263C35.4048 25.9778 35.3221 26.0476 35.2549 26.1318C35.1192 26.3019 35.055 26.5202 35.0763 26.7389C35.0976 26.9575 35.2027 27.1585 35.3686 27.2976C35.5344 27.4368 35.7474 27.5026 35.9606 27.4808H36.1214L40.141 26.6564C40.2475 26.6368 40.3492 26.5954 40.4397 26.5345C40.5303 26.4736 40.6079 26.3946 40.668 26.3023C40.7281 26.2099 40.7693 26.106 40.7892 25.9969C40.8092 25.8877 40.8074 25.7756 40.7841 25.6672Z" fill="#003354"/>
<path d="M30.4292 25.5873C30.3764 25.4931 30.3061 25.4105 30.2222 25.3442C30.1383 25.2779 30.0424 25.2292 29.9401 25.2009C29.8379 25.1726 29.7312 25.1652 29.6261 25.1791C29.5211 25.1931 29.4197 25.2281 29.3279 25.2823C29.236 25.3364 29.1555 25.4085 29.0908 25.4946C29.0261 25.5807 28.9787 25.6789 28.951 25.7838C28.9234 25.8887 28.9162 25.9981 28.9298 26.1058C28.9434 26.2135 28.9776 26.3175 29.0304 26.4117L32.5757 32.7016L19.713 37.6478C19.713 37.6478 19.713 37.6478 19.6567 37.6478H19.5924L17.5022 38.8843L16.1115 39.7087C15.9284 39.8172 15.7262 39.8876 15.5165 39.9159C15.3068 39.9442 15.0938 39.9298 14.8895 39.8735C14.4792 39.7599 14.1295 39.4842 13.9168 39.1069L12.3089 36.2546C12.1198 35.8814 12.0769 35.4482 12.1889 35.0436C12.301 34.6391 12.5596 34.2937 12.9119 34.0783L15.6934 32.4295L17.7032 35.999C17.774 36.1248 17.876 36.2292 17.9989 36.3016C18.1217 36.374 18.261 36.4118 18.4026 36.4112C18.544 36.4118 18.6831 36.3741 18.8057 36.302C18.9284 36.2299 19.0303 36.1259 19.1012 36.0004C19.1722 35.875 19.2096 35.7326 19.2097 35.5877C19.2099 35.4427 19.1727 35.3002 19.102 35.1747L17.0279 31.498L27.1171 22.9658L27.4467 23.5511C27.4995 23.6453 27.5698 23.7279 27.6538 23.7942C27.7377 23.8605 27.8335 23.9092 27.9358 23.9375C28.038 23.9658 28.1448 23.9732 28.2498 23.9593C28.3549 23.9453 28.4562 23.9102 28.5481 23.8561C28.6399 23.802 28.7205 23.7298 28.7851 23.6438C28.8498 23.5577 28.8973 23.4595 28.9249 23.3546C28.9525 23.2497 28.9597 23.1403 28.9461 23.0326C28.9325 22.9248 28.8983 22.8209 28.8455 22.7267L28.0416 21.3006C27.9827 21.1973 27.9025 21.1084 27.8068 21.0401C27.711 20.9717 27.6018 20.9256 27.4869 20.9049C27.3714 20.8826 27.2524 20.8865 27.1385 20.9164C27.0246 20.9463 26.9185 21.0015 26.8277 21.078L15.5728 30.5912L12.1482 32.6191C11.5336 32.9862 11.055 33.5519 10.7873 34.2276C10.5197 34.9033 10.4781 35.6509 10.6689 36.3535L9.86503 36.8234C9.45082 37.0673 9.11656 37.4319 8.90465 37.8708C8.69273 38.3098 8.6127 38.8034 8.6747 39.289C8.7367 39.7747 8.93794 40.2305 9.2529 40.5988C9.56787 40.967 9.98237 41.231 10.4439 41.3574C10.6484 41.413 10.8593 41.4407 11.0709 41.4398C11.4938 41.438 11.9091 41.3245 12.2768 41.1101L13.0807 40.6402C13.4669 41.0493 13.9525 41.3453 14.4876 41.4975C14.7623 41.5763 15.0464 41.6152 15.3317 41.613C15.8967 41.6143 16.4519 41.4606 16.9395 41.1678L17.6389 40.7556L19.2467 43.6162C19.5663 44.1827 20.0918 44.5962 20.7081 44.7662C21.3243 44.9361 21.9812 44.8487 22.5348 44.523C22.8094 44.3607 23.0501 44.1445 23.2432 43.8868C23.4363 43.6291 23.578 43.3349 23.6601 43.021C23.7422 42.7071 23.7632 42.3796 23.7218 42.0574C23.6805 41.7352 23.5776 41.4245 23.4191 41.1431L21.9559 38.5298L34.0147 33.8886C34.1241 33.8465 34.2231 33.7804 34.3051 33.695C34.387 33.6096 34.4497 33.5069 34.489 33.394C34.5281 33.2825 34.5434 33.1637 34.5336 33.0456C34.5239 32.9275 34.4895 32.813 34.4327 32.7098L30.4292 25.5873ZM11.4407 39.6757C11.3492 39.73 11.2481 39.7652 11.1432 39.7793C11.0384 39.7935 10.9319 39.7863 10.8297 39.7581C10.6238 39.7033 10.4474 39.5669 10.3393 39.3789C10.2864 39.285 10.2521 39.1814 10.2383 39.0739C10.2245 38.9664 10.2315 38.8571 10.2589 38.7524C10.2864 38.6471 10.3339 38.5485 10.3988 38.4622C10.4636 38.3759 10.5445 38.3036 10.6368 38.2495L11.3362 37.8374L12.1401 39.2635L11.4407 39.6757ZM22.0203 41.9839C22.0732 42.0778 22.1075 42.1815 22.1213 42.289C22.1351 42.3965 22.1281 42.5057 22.1006 42.6104C22.0433 42.82 21.9075 42.9978 21.7228 43.1051C21.5392 43.2132 21.3214 43.2427 21.1166 43.1872C20.9119 43.1316 20.7369 42.9954 20.6295 42.8083L19.0216 39.9477L20.3561 39.1646H20.4205L22.0203 41.9839Z" fill="#003354"/>
</svg>
