<svg width="56" height="56" viewBox="0 0 56 56" fill="none" xmlns="http://www.w3.org/2000/svg">
<path d="M55.0005 29.7998C54.9958 28.2722 54.0258 26.9145 52.5822 26.4149C53.3274 25.3116 53.4029 23.8872 52.7786 22.7114C52.1542 21.5355 50.9318 20.8003 49.6005 20.7998H42.4005C40.6452 20.7957 39.1442 22.0611 38.8514 23.7917C38.5586 25.5224 39.5599 27.2111 41.2188 27.7847C40.3944 29.0016 40.3944 30.5979 41.2188 31.8149C39.7726 32.3108 38.8012 33.6708 38.8012 35.1998C38.8012 36.7287 39.7726 38.0887 41.2188 38.5847C40.3944 39.8016 40.3944 41.3979 41.2188 42.6149C39.7726 43.1108 38.8012 44.4708 38.8012 45.9998C38.8012 47.5287 39.7726 48.8887 41.2188 49.3847C40.4736 50.4879 40.3981 51.9123 41.0225 53.0881C41.6468 54.264 42.8692 54.9992 44.2005 54.9998H51.4005C53.1558 55.0039 54.6568 53.7385 54.9496 52.0078C55.2424 50.2771 54.2412 48.5884 52.5822 48.0149C53.4066 46.7979 53.4066 45.2016 52.5822 43.9847C54.0285 43.4887 54.9998 42.1287 54.9998 40.5998C54.9998 39.0708 54.0285 37.7108 52.5822 37.2149C53.4066 35.9979 53.4066 34.4016 52.5822 33.1847C54.0258 32.685 54.9958 31.3274 55.0005 29.7998ZM40.6005 24.3998C40.6005 23.4056 41.4064 22.5998 42.4005 22.5998H49.6005C50.5946 22.5998 51.4005 23.4056 51.4005 24.3998C51.4005 25.3939 50.5946 26.1998 49.6005 26.1998H42.4005C41.4064 26.1998 40.6005 25.3939 40.6005 24.3998ZM40.6005 35.1998C40.6005 34.2056 41.4064 33.3998 42.4005 33.3998H49.6005C50.5946 33.3998 51.4005 34.2056 51.4005 35.1998C51.4005 36.1939 50.5946 36.9998 49.6005 36.9998H42.4005C41.4064 36.9998 40.6005 36.1939 40.6005 35.1998ZM40.6005 45.9998C40.6005 45.0057 41.4064 44.1998 42.4005 44.1998H49.6005C50.5946 44.1998 51.4005 45.0057 51.4005 45.9998C51.4005 46.9939 50.5946 47.7998 49.6005 47.7998H42.4005C41.4064 47.7998 40.6005 46.9939 40.6005 45.9998ZM53.2005 51.3998C53.2005 52.3939 52.3946 53.1998 51.4005 53.1998H44.2005C43.2064 53.1998 42.4005 52.3939 42.4005 51.3998C42.4005 50.4057 43.2064 49.5998 44.2005 49.5998H51.4005C52.3946 49.5998 53.2005 50.4057 53.2005 51.3998ZM53.2005 40.5998C53.2005 41.5939 52.3946 42.3998 51.4005 42.3998H44.2005C43.2064 42.3998 42.4005 41.5939 42.4005 40.5998C42.4005 39.6056 43.2064 38.7998 44.2005 38.7998H51.4005C52.3946 38.7998 53.2005 39.6056 53.2005 40.5998ZM51.4005 31.5998H44.2005C43.2064 31.5998 42.4005 30.7939 42.4005 29.7998C42.4005 28.8056 43.2064 27.9998 44.2005 27.9998H51.4005C52.3946 27.9998 53.2005 28.8056 53.2005 29.7998C53.2005 30.7939 52.3946 31.5998 51.4005 31.5998Z" fill="#003354"/>
<path d="M36.1001 40.6002C36.0954 39.0726 35.1254 37.7149 33.6818 37.2153C34.427 36.112 34.5025 34.6876 33.8782 33.5118C33.2538 32.336 32.0314 31.6007 30.7001 31.6002H23.5001C21.7448 31.5961 20.2438 32.8615 19.951 34.5921C19.6582 36.3228 20.6595 38.0116 22.3184 38.5851C21.494 39.802 21.494 41.3983 22.3184 42.6153C20.8722 43.1112 19.9008 44.4712 19.9008 46.0002C19.9008 47.5291 20.8722 48.8891 22.3184 49.3851C21.5732 50.4883 21.4977 51.9127 22.1221 53.0885C22.7465 54.2644 23.9688 54.9996 25.3001 55.0002H32.5001C34.2554 55.0043 35.7564 53.7389 36.0492 52.0082C36.342 50.2775 35.3408 48.5888 33.6818 48.0153C34.5062 46.7983 34.5062 45.202 33.6818 43.9851C35.1254 43.4854 36.0954 42.1278 36.1001 40.6002ZM21.7001 35.2002C21.7001 34.2061 22.506 33.4002 23.5001 33.4002H30.7001C31.6942 33.4002 32.5001 34.2061 32.5001 35.2002C32.5001 36.1943 31.6942 37.0002 30.7001 37.0002H23.5001C22.506 37.0002 21.7001 36.1943 21.7001 35.2002ZM21.7001 46.0002C21.7001 45.0061 22.506 44.2002 23.5001 44.2002H30.7001C31.6942 44.2002 32.5001 45.0061 32.5001 46.0002C32.5001 46.9943 31.6942 47.8002 30.7001 47.8002H23.5001C22.506 47.8002 21.7001 46.9943 21.7001 46.0002ZM34.3001 51.4002C34.3001 52.3943 33.4942 53.2002 32.5001 53.2002H25.3001C24.306 53.2002 23.5001 52.3943 23.5001 51.4002C23.5001 50.4061 24.306 49.6002 25.3001 49.6002H32.5001C33.4942 49.6002 34.3001 50.4061 34.3001 51.4002ZM32.5001 42.4002H25.3001C24.306 42.4002 23.5001 41.5943 23.5001 40.6002C23.5001 39.6061 24.306 38.8002 25.3001 38.8002H32.5001C33.4942 38.8002 34.3001 39.6061 34.3001 40.6002C34.3001 41.5943 33.4942 42.4002 32.5001 42.4002Z" fill="#003354"/>
<path d="M3.41803 49.3849C2.67282 50.4882 2.5973 51.9126 3.22168 53.0884C3.84606 54.2642 5.0684 54.9995 6.39973 55H13.5997C15.355 55.0041 16.856 53.7387 17.1488 52.0081C17.4416 50.2774 16.4404 48.5886 14.7814 48.0151C15.5266 46.9119 15.6022 45.4875 14.9778 44.3117C14.3534 43.1358 13.1311 42.4006 11.7997 42.4H4.59973C2.84446 42.3959 1.34345 43.6613 1.05065 45.392C0.757854 47.1227 1.75909 48.8114 3.41803 49.3849ZM15.3997 51.4C15.3997 52.3942 14.5938 53.2 13.5997 53.2H6.39973C5.40562 53.2 4.59973 52.3942 4.59973 51.4C4.59973 50.4059 5.40562 49.6 6.39973 49.6H13.5997C14.5938 49.6 15.3997 50.4059 15.3997 51.4ZM4.59973 44.2H11.7997C12.7938 44.2 13.5997 45.0059 13.5997 46C13.5997 46.9941 12.7938 47.8 11.7997 47.8H4.59973C3.60561 47.8 2.79973 46.9941 2.79973 46C2.79973 45.0059 3.60561 44.2 4.59973 44.2Z" fill="#003354"/>
<path d="M12.6176 18.7608C12.7739 18.2886 12.5179 17.779 12.0457 17.6227C11.5735 17.4664 11.0639 17.7225 10.9076 18.1947C9.45236 22.8174 8.58248 27.6043 8.31831 32.4435C8.30278 32.6818 8.38264 32.9166 8.54031 33.0961C8.69798 33.2755 8.92053 33.3849 9.15891 33.4002H9.21741C9.69314 33.4011 10.0874 33.0317 10.1174 32.5569C10.3721 27.8719 11.212 23.2372 12.6176 18.7608Z" fill="#003354"/>
<path d="M9.09016 35.1998H9.08116C8.5876 35.1997 8.1861 35.5972 8.18116 36.0908C8.17216 36.9845 8.17216 37.9061 8.19916 38.8259C8.21329 39.3127 8.61212 39.7 9.09916 39.6998H9.12526C9.36399 39.693 9.59022 39.5915 9.75413 39.4178C9.91804 39.2441 10.0062 39.0124 9.99916 38.7737C9.97216 37.8737 9.97216 36.98 9.98116 36.1088C9.98356 35.8701 9.89103 35.6402 9.72394 35.4697C9.55684 35.2992 9.32886 35.2021 9.09016 35.1998Z" fill="#003354"/>
<path d="M13.7805 14.8121C15.3006 11.7539 17.0502 9.99977 18.5775 9.99977C21.5619 9.99977 25.3779 16.6913 26.6343 27.9026C26.6105 28.1583 26.6962 28.412 26.8701 28.601C27.045 28.7915 27.2919 28.8999 27.5505 28.8998C27.8061 28.8997 28.0496 28.791 28.2203 28.6008C28.391 28.4105 28.4727 28.1567 28.4451 27.9026C29.7051 16.6922 33.522 9.99977 36.5064 9.99977C37.0034 9.99977 37.4064 9.59683 37.4064 9.09977C37.4064 8.60271 37.0034 8.19977 36.5064 8.19977C32.7534 8.19977 29.3325 13.7204 27.5406 22.1723C25.7505 13.7204 22.3305 8.19977 18.5775 8.19977C16.2771 8.19977 14.0604 10.2077 12.165 14.0084C12.0214 14.2961 12.0423 14.6387 12.2197 14.9069C12.3972 15.1751 12.7042 15.3283 13.0252 15.3087C13.3462 15.2892 13.6324 15.0998 13.776 14.8121H13.7805Z" fill="#003354"/>
<path d="M54.4644 8.27731L38.2644 1.0773C37.9173 0.923384 37.511 1.00383 37.2487 1.27839C36.9865 1.55294 36.9248 1.96254 37.0944 2.3022L40.4928 9.09991L37.089 15.8976C36.9194 16.2373 36.9811 16.6469 37.2433 16.9214C37.5056 17.196 37.9119 17.2764 38.259 17.1225L54.459 9.92251C54.7842 9.77814 54.9939 9.45573 54.9939 9.09991C54.9939 8.74408 54.7842 8.42167 54.459 8.27731H54.4644ZM39.8259 14.4585L42.309 9.5022C42.4356 9.24893 42.4356 8.95088 42.309 8.69761L39.8259 3.7413L51.8832 9.09991L39.8259 14.4585Z" fill="#003354"/>
</svg>
