<svg width="56" height="56" viewBox="0 0 56 56" fill="none" xmlns="http://www.w3.org/2000/svg">
<path d="M8.9788 33.7417H3.45466C2.10116 33.7417 1 34.8429 1 36.1968V50.5452C1 51.8987 2.10116 52.9999 3.45466 52.9999H8.9788C10.3327 52.9999 11.4339 51.8987 11.4339 50.5452V36.1968C11.4339 34.8429 10.3327 33.7417 8.9788 33.7417ZM9.8322 50.5452C9.8322 51.0153 9.44929 51.3982 8.9788 51.3982H3.45466C2.98459 51.3982 2.60168 51.0153 2.60168 50.5452V36.1968C2.60168 35.7263 2.98459 35.3434 3.45466 35.3434H8.9788C9.44929 35.3434 9.8322 35.7263 9.8322 36.1968V50.5452Z" fill="#003354"/>
<path d="M23.7249 22.4957H18.2008C16.8473 22.4957 15.7461 23.5968 15.7461 24.9503V29.5039C15.7461 29.946 16.1044 30.3047 16.5469 30.3047C16.9891 30.3047 17.3478 29.946 17.3478 29.5039V24.9503C17.3478 24.4803 17.7303 24.0973 18.2008 24.0973H23.7249C24.1954 24.0973 24.5779 24.4803 24.5779 24.9503V50.5451C24.5779 51.0152 24.1954 51.3981 23.7249 51.3981H18.2008C17.7303 51.3981 17.3478 51.0152 17.3478 50.5451V32.7072C17.3478 32.2651 16.9891 31.9064 16.5469 31.9064C16.1044 31.9064 15.7461 32.2651 15.7461 32.7072V50.5451C15.7461 51.8986 16.8473 52.9998 18.2008 52.9998H23.7249C25.0784 52.9998 26.1796 51.8986 26.1796 50.5451V24.9507C26.1796 23.5968 25.0784 22.4957 23.7249 22.4957Z" fill="#003354"/>
<path d="M38.471 29.2438H32.9468C31.5933 29.2438 30.4922 30.345 30.4922 31.6985V50.5454C30.4922 51.8989 31.5933 53 32.9468 53H38.471C39.8249 53 40.9261 51.8989 40.9261 50.5454V31.6985C40.9261 30.345 39.8249 29.2438 38.471 29.2438ZM39.3244 50.5454C39.3244 51.0155 38.9415 51.3984 38.471 51.3984H32.9468C32.4764 51.3984 32.0939 51.0155 32.0939 50.5454V31.6985C32.0939 31.228 32.4764 30.8455 32.9468 30.8455H38.471C38.9415 30.8455 39.3244 31.228 39.3244 31.6985V50.5454Z" fill="#003354"/>
<path d="M53.2175 16.8726H47.6934C46.3399 16.8726 45.2383 17.9738 45.2383 19.3273V42.2105C45.2383 42.6526 45.597 43.0113 46.0391 43.0113C46.4817 43.0113 46.84 42.6526 46.84 42.2105V19.3273C46.84 18.8568 47.2229 18.4743 47.6934 18.4743H53.2175C53.6876 18.4743 54.0705 18.8568 54.0705 19.3273V50.5451C54.0705 51.0152 53.6876 51.3981 53.2175 51.3981H47.6934C47.2229 51.3981 46.84 51.0152 46.84 50.5451V45.4139C46.84 44.9717 46.4817 44.613 46.0391 44.613C45.597 44.613 45.2383 44.9717 45.2383 45.4139V50.5451C45.2383 51.8986 46.3399 52.9997 47.6934 52.9997H53.2175C54.571 52.9997 55.6722 51.8986 55.6722 50.5451V19.3273C55.6722 17.9738 54.571 16.8726 53.2175 16.8726Z" fill="#003354"/>
<path d="M6.21639 18.869C3.46516 18.869 1.22656 21.1076 1.22656 23.8588C1.22656 26.6104 3.46516 28.849 6.21639 28.849C8.96803 28.849 11.2066 26.6104 11.2066 23.8588C11.2066 23.6402 11.1908 23.4258 11.1637 23.2148L19.0315 17.2139C19.6255 17.4642 20.2782 17.6031 20.9623 17.6031C22.0409 17.6031 23.0399 17.2577 23.857 16.6737L30.7401 19.8233C30.9745 22.3585 33.1126 24.3506 35.7078 24.3506C38.4594 24.3506 40.698 22.112 40.698 19.3607C40.698 19.0625 40.6701 18.771 40.62 18.4873L48.7382 11.676C49.2733 11.8729 49.8514 11.9801 50.4537 11.9801C53.2049 11.9801 55.4435 9.74147 55.4435 6.98983C55.4435 4.2386 53.2049 2 50.4537 2C47.7021 2 45.4635 4.2386 45.4635 6.98983C45.4635 7.28806 45.4914 7.57961 45.5415 7.86324L37.4229 14.6746C36.8882 14.4781 36.3101 14.3705 35.7078 14.3705C34.6292 14.3705 33.6302 14.7159 32.8131 15.3002L25.93 12.1502C25.6956 9.61508 23.5579 7.62299 20.9623 7.62299C18.2107 7.62299 15.9725 9.86159 15.9725 12.6128C15.9725 12.8314 15.9879 13.0462 16.0154 13.2572L8.14717 19.2577C7.55279 19.0075 6.90086 18.869 6.21639 18.869ZM50.4537 3.60168C52.3219 3.60168 53.8418 5.12161 53.8418 6.98983C53.8418 8.85804 52.3219 10.3784 50.4537 10.3784C48.6134 10.3784 47.0651 8.83009 47.0651 6.98983C47.0651 5.12161 48.5851 3.60168 50.4537 3.60168ZM46.1225 9.46659C46.1358 9.48995 46.1504 9.51248 46.1642 9.53542C46.4537 10.023 46.8261 10.461 47.2616 10.8243L40.039 16.8836C40.0257 16.8602 39.8067 16.5123 39.6995 16.3693C39.4667 16.0589 39.1985 15.7753 38.8999 15.5259L46.1225 9.46659ZM32.3201 19.3107C32.3476 17.4946 33.8813 15.9722 35.7078 15.9722C37.5289 15.9722 39.0959 17.5292 39.0959 19.3607C39.0959 21.229 37.576 22.7489 35.7078 22.7489C33.8396 22.7489 32.3196 21.229 32.3196 19.3607C32.3196 19.3441 32.3196 19.3274 32.3201 19.3107ZM25.077 15.4316C25.4049 14.9503 25.6522 14.4151 25.7965 13.8508L31.6127 16.5119C31.3165 16.9386 31.085 17.4124 30.9336 17.9096C30.9119 17.9801 30.8919 18.051 30.8735 18.1224L25.0574 15.4612C25.0641 15.4516 25.0704 15.4416 25.077 15.4316ZM20.9623 9.22467C22.8305 9.22467 24.3504 10.7446 24.3504 12.6128C24.3504 14.4381 22.7846 16.0014 20.9623 16.0014C19.1391 16.0014 17.5737 14.4464 17.5737 12.6128C17.5737 10.7446 19.0937 9.22467 20.9623 9.22467ZM16.5205 14.886C16.5301 14.9044 16.541 14.9227 16.5506 14.9411C16.8184 15.4475 17.1733 15.9079 17.5958 16.2946L10.6581 21.586C10.5297 21.3357 10.3787 21.0955 10.2102 20.8707C10.0233 20.6212 9.81392 20.3885 9.58284 20.177L16.5205 14.886ZM8.23559 21.1672C9.05771 21.7929 9.60495 22.7781 9.60495 23.8588C9.60495 25.7274 8.08502 27.2474 6.21639 27.2474C4.34818 27.2474 2.82825 25.7274 2.82825 23.8588C2.82825 21.9906 4.34818 20.4707 6.21639 20.4707C6.96134 20.4707 7.66499 20.7322 8.23559 21.1672Z" fill="#003354"/>
</svg>
