<svg width="56" height="56" viewBox="0 0 56 56" fill="none" xmlns="http://www.w3.org/2000/svg">
<path d="M28.5025 56L28.0666 55.7876C27.8524 55.6823 22.744 53.1762 17.5452 49.5951C10.3646 44.6474 6.72266 40.2076 6.72266 36.3994V4.92922L7.8954 5.14531C8.02283 5.16932 20.7494 7.41692 27.8136 0.657476L28.5006 0L29.1877 0.657476C36.2537 7.41692 48.9803 5.16932 49.1059 5.14531L50.2786 4.92922V36.3994C50.2786 40.2076 46.6366 44.6474 39.4561 49.5951C34.2591 53.1762 29.1507 55.6823 28.9365 55.7876L28.5025 56ZM8.70986 7.27287V36.4013C8.70986 42.579 22.5944 50.8325 28.5025 53.7875C34.4087 50.8325 48.2951 42.579 48.2951 36.4013V7.27287C44.9117 7.69026 35.0772 8.32003 28.5025 2.71301C21.9277 8.32003 12.0914 7.69211 8.70986 7.27287Z" fill="#003354"/>
<path d="M28.5036 49.4656L28.0678 49.2533C27.9053 49.1738 24.0287 47.2734 20.0857 44.5549C14.5877 40.767 11.8008 37.3448 11.8008 34.3825V10.307L12.9735 10.5231C13.0696 10.5397 22.5679 12.2148 27.8166 7.19507L28.5036 6.5376L29.1907 7.19507C34.4375 12.2148 43.9396 10.5416 44.0337 10.5231L45.2065 10.3089L45.2083 34.3843C45.2083 37.3467 42.4215 40.7689 36.9234 44.5567C32.9804 47.2734 29.1039 49.1738 28.9413 49.2551L28.5036 49.4656ZM13.788 12.6396V34.3806C13.788 36.5839 16.4179 39.6109 21.1957 42.9057C24.2725 45.0277 27.3881 46.6751 28.5073 47.2476C32.9933 44.9889 43.2211 38.8888 43.2211 34.3806V12.6396C40.4398 12.948 33.3738 13.2546 28.5055 9.23769C23.6335 13.2546 16.5675 12.9498 13.788 12.6396Z" fill="#003354"/>
<path d="M28.5628 27.9019C24.7657 27.9019 21.6777 24.814 21.6777 21.0169C21.6777 17.2198 24.7657 14.1318 28.5628 14.1318C32.358 14.1318 35.4478 17.2198 35.4478 21.0169C35.4478 24.814 32.358 27.9019 28.5628 27.9019ZM28.5628 16.1172C25.8608 16.1172 23.6631 18.3149 23.6631 21.0169C23.6631 23.7188 25.8608 25.9165 28.5628 25.9165C31.2647 25.9165 33.4606 23.7188 33.4606 21.0169C33.4606 18.3149 31.2629 16.1172 28.5628 16.1172Z" fill="#003354"/>
<path d="M18.8824 38.3917L18.7827 37.2116C18.7734 37.0952 18.5703 34.3453 20.6775 32.0552C22.4745 30.1012 25.3371 29.1113 29.1823 29.1113C32.9997 29.1113 35.6647 30.0957 37.1034 32.0367C38.8745 34.4265 38.0323 37.2984 37.9954 37.4203L37.7036 38.3806L36.7469 38.0796C29.2192 35.7101 20.1179 38.0685 20.0275 38.0925L18.8824 38.3917ZM29.029 35.0231C31.3246 35.0231 33.8141 35.241 36.2354 35.8652C36.2686 35.1265 36.1615 34.0904 35.4966 33.2039C34.4495 31.8059 32.3237 31.0967 29.1823 31.0967C25.9337 31.0967 23.5715 31.8631 22.1624 33.3757C21.3775 34.2179 21.0284 35.1468 20.8752 35.8597C22.541 35.5199 25.5624 35.0231 29.029 35.0231Z" fill="#003354"/>
</svg>
