<svg width="56" height="56" viewBox="0 0 56 56" fill="none" xmlns="http://www.w3.org/2000/svg">
<path d="M15.8291 23.2354C15.524 22.9303 15.028 22.9303 14.7229 23.2354C14.4179 23.5405 14.4179 24.0364 14.7229 24.3415L17.1772 26.7958C17.3306 26.9491 17.53 27.0241 17.7294 27.0241C17.9305 27.0241 18.1299 26.9474 18.2816 26.7958C18.5867 26.4907 18.5867 25.9947 18.2816 25.6896L15.8291 23.2354Z" fill="#003354" stroke="#003354" stroke-width="0.5" stroke-miterlimit="10"/>
<path d="M12.706 27.0662C12.4009 26.7611 11.905 26.7611 11.5999 27.0662C11.2948 27.3713 11.2948 27.8672 11.5999 28.1723L13.6996 30.2721C13.853 30.4255 14.0524 30.5004 14.2518 30.5004C14.453 30.5004 14.6524 30.4237 14.804 30.2721C15.1091 29.967 15.1091 29.471 14.804 29.1659L12.706 27.0662Z" fill="#003354" stroke="#003354" stroke-width="0.5" stroke-miterlimit="10"/>
<path d="M32.4519 7.62491L17.2901 1.92903C17.2867 1.92733 17.2833 1.92903 17.2816 1.92733C12.8691 0.0696067 7.83278 1.0513 4.44457 4.43952C-0.124751 9.00883 -0.124751 16.4431 4.44457 21.0125L7.80722 24.3751C7.96061 24.5285 8.16001 24.6035 8.35942 24.6035C8.56053 24.6035 8.75994 24.5268 8.91162 24.3751C9.2167 24.07 9.2167 23.5741 8.91162 23.269L5.54897 19.9063C1.58981 15.9472 1.58981 9.50479 5.54897 5.54563C8.49406 2.59884 12.8742 1.75008 16.7089 3.38113C16.7141 3.38283 16.7209 3.38283 16.726 3.38453C16.7311 3.38624 16.7345 3.39135 16.7396 3.39306L31.9014 9.08894C31.9917 9.12302 32.0854 9.13836 32.1758 9.13836C32.4928 9.13836 32.7893 8.94577 32.9086 8.63047C33.0603 8.22825 32.8558 7.7766 32.4519 7.62491Z" fill="#003354" stroke="#003354" stroke-width="0.5" stroke-miterlimit="10"/>
<path d="M28.6485 11.4151L22.051 9.01539C22.0169 9.00346 21.9811 9.00687 21.947 9.00006C21.8857 8.98642 21.826 8.97108 21.763 8.97279C21.7187 8.97449 21.6795 8.98813 21.6368 8.99665C21.5806 9.00687 21.5244 9.01369 21.4715 9.03755C21.4221 9.05971 21.3812 9.0955 21.3386 9.12618C21.3045 9.15174 21.2636 9.16538 21.2329 9.19605C21.2295 9.19946 21.2278 9.20458 21.2244 9.20799C21.1903 9.24378 21.1682 9.2915 21.1409 9.33411C21.1119 9.38012 21.0761 9.42103 21.0574 9.47045C21.0557 9.47556 21.0523 9.47727 21.0506 9.48238C21.0369 9.51988 21.042 9.55737 21.0335 9.59487C21.0216 9.65282 21.0062 9.70906 21.0079 9.76871C21.0096 9.82154 21.025 9.86927 21.0369 9.91869C21.0471 9.96641 21.0523 10.0141 21.0727 10.0602C21.0966 10.1147 21.1358 10.1607 21.1716 10.2101C21.1937 10.2408 21.2056 10.2749 21.2329 10.3022L25.7324 14.8016C25.8857 14.955 26.0852 15.03 26.2846 15.03C26.4857 15.03 26.6851 14.9533 26.8368 14.8016C27.1418 14.4965 27.1418 14.0006 26.8368 13.6955L24.8308 11.6895L28.115 12.8842C28.2036 12.9166 28.294 12.932 28.3826 12.932C28.703 12.932 29.003 12.7343 29.1172 12.4172C29.2654 12.0116 29.0558 11.5634 28.6485 11.4151Z" fill="#003354" stroke="#003354" stroke-width="0.5" stroke-miterlimit="10"/>
<path d="M31.6615 14.6416L29.0999 17.2033C28.7948 17.5083 28.7948 18.0043 29.0999 18.3094C29.2533 18.4628 29.4527 18.5378 29.6521 18.5378C29.8532 18.5378 30.0526 18.4611 30.2043 18.3094L32.7659 15.7478C33.071 15.4427 33.071 14.9467 32.7659 14.6416C32.4608 14.3366 31.9666 14.3366 31.6615 14.6416Z" fill="#003354" stroke="#003354" stroke-width="0.5" stroke-miterlimit="10"/>
<path d="M47.0028 21.9365C47.0147 21.8786 47.03 21.8224 47.0283 21.7627C47.0266 21.7099 47.0113 21.6638 46.9994 21.6127C46.9891 21.565 46.984 21.5173 46.9636 21.4713C46.9397 21.4167 46.9005 21.3707 46.8647 21.323C46.8426 21.2923 46.8306 21.2582 46.8034 21.2292C46.7999 21.2258 46.7948 21.2258 46.7914 21.2224C46.7556 21.1866 46.7062 21.1645 46.6636 21.1372C46.6193 21.1082 46.5784 21.0741 46.5307 21.0554C46.5256 21.0537 46.5238 21.0503 46.5187 21.0486C46.4829 21.0349 46.4454 21.0401 46.4097 21.0315C46.35 21.0196 46.2921 21.0026 46.2307 21.0043C46.183 21.006 46.137 21.0213 46.0909 21.0315C46.0398 21.0418 45.9887 21.0486 45.9393 21.069C45.8864 21.0929 45.8421 21.1304 45.7961 21.1645C45.7637 21.1883 45.7279 21.2003 45.6989 21.2292L41.1995 25.7287C40.8944 26.0338 40.8944 26.5297 41.1995 26.8348C41.3529 26.9882 41.5523 27.0649 41.7517 27.0649C41.9528 27.0649 42.1522 26.9882 42.3039 26.8348L44.3099 24.8288L43.1152 28.1147C42.9669 28.5204 43.1765 28.9686 43.5839 29.1169C43.6725 29.1493 43.7628 29.1646 43.8515 29.1646C44.1719 29.1646 44.4718 28.9669 44.586 28.6499L46.9857 22.0507C46.9994 22.0115 46.9942 21.974 47.0028 21.9365Z" fill="#003354" stroke="#003354" stroke-width="0.5" stroke-miterlimit="10"/>
<path d="M51.5606 4.44182C46.9913 -0.12579 39.557 -0.12579 34.9876 4.44182L19.7032 19.7263C18.4505 20.979 18.4505 23.0173 19.7032 24.27C19.8566 24.4234 20.056 24.4984 20.2554 24.4984C20.4565 24.4984 20.6559 24.4217 20.8076 24.27C21.1127 23.965 21.1127 23.469 20.8076 23.1639C20.1651 22.5214 20.1651 21.4749 20.8076 20.8324L36.0921 5.54793C40.0512 1.58877 46.4936 1.58877 50.4528 5.54793C53.3978 8.49473 54.2483 12.8749 52.619 16.7079C52.6173 16.713 52.6173 16.7198 52.6156 16.7249C52.6139 16.7301 52.6087 16.7335 52.607 16.7386L46.9112 31.9003C46.7595 32.3043 46.964 32.7559 47.3679 32.9076C47.4583 32.9417 47.552 32.957 47.6423 32.957C47.9593 32.957 48.2559 32.7644 48.3752 32.4491L54.0711 17.2874C54.0728 17.284 54.0711 17.2806 54.0728 17.2789C55.9305 12.8663 54.9488 7.83174 51.5606 4.44182Z" fill="#003354" stroke="#003354" stroke-width="0.5" stroke-miterlimit="10"/>
<path d="M40.8066 32.9939C41.0077 32.9939 41.2071 32.9172 41.3588 32.7656C41.6639 32.4605 41.6639 31.9645 41.3588 31.6595L37.1474 27.448C36.8423 27.143 36.3464 27.143 36.0413 27.448C35.7362 27.7531 35.7362 28.2491 36.0413 28.5542L40.2527 32.7656C40.4061 32.9172 40.6055 32.9939 40.8066 32.9939Z" fill="#003354" stroke="#003354" stroke-width="0.5" stroke-miterlimit="10"/>
<path d="M27.3533 44.5836L33.9508 46.9833C34.0394 47.0157 34.1297 47.031 34.2184 47.031C34.3104 47.031 34.399 47.0106 34.4842 46.9799C34.5098 46.9697 34.5337 46.956 34.5592 46.9441C34.6206 46.9134 34.6768 46.8759 34.7297 46.8316C34.7433 46.8197 34.7603 46.8163 34.7723 46.8026C34.7808 46.7941 34.7842 46.7805 34.7927 46.7719C34.8422 46.7174 34.8814 46.6561 34.9154 46.5879C34.9257 46.5691 34.9393 46.5521 34.9461 46.5316C34.9478 46.5265 34.9512 46.5231 34.9529 46.518C34.9666 46.4805 34.9632 46.443 34.97 46.4055C34.9819 46.3476 34.9972 46.2913 34.9955 46.2317C34.9938 46.1788 34.9785 46.1328 34.9666 46.0817C34.9563 46.034 34.9512 45.9863 34.9308 45.9402C34.9069 45.8857 34.8677 45.8397 34.8319 45.792C34.8098 45.7613 34.7978 45.7255 34.7706 45.6982L30.2711 41.1988C29.9661 40.8937 29.4701 40.8937 29.165 41.1988C28.8599 41.5039 28.8599 41.9998 29.165 42.3049L31.171 44.3109L27.8868 43.1162C27.4811 42.9696 27.0312 43.1792 26.8846 43.5848C26.7381 43.9871 26.9477 44.4353 27.3533 44.5836Z" fill="#003354" stroke="#003354" stroke-width="0.5" stroke-miterlimit="10"/>
<path d="M51.5608 34.9851L36.6802 20.1045C36.3752 19.7995 35.8792 19.7995 35.5741 20.1045C35.269 20.4096 35.269 20.9056 35.5741 21.2107L50.4547 36.0912C52.3737 38.0086 53.4287 40.5599 53.4287 43.2715C53.4287 45.9831 52.372 48.5328 50.4547 50.4519C47.5079 53.397 43.1277 54.2474 39.2947 52.6181C39.2896 52.6164 39.2828 52.6164 39.2776 52.6147C39.2725 52.613 39.2691 52.6079 39.264 52.6062L24.1023 46.9103C23.6983 46.7569 23.2467 46.9614 23.095 47.3671C22.9433 47.771 23.1478 48.2226 23.5518 48.3743L38.7135 54.0702C38.7152 54.0702 38.7169 54.0702 38.7169 54.0702C40.1997 54.6957 41.7523 55.0008 43.2879 55.0008C46.3285 55.0008 49.3076 53.8094 51.5591 51.558C53.773 49.3441 54.9916 46.4024 54.9916 43.2715C54.9933 40.1407 53.7747 37.199 51.5608 34.9851Z" fill="#003354" stroke="#003354" stroke-width="0.5" stroke-miterlimit="10"/>
<path d="M34.8034 30.8965L37.0769 28.6229C38.3296 27.3703 38.3296 25.3319 37.0769 24.0792C36.6491 23.6514 36.1276 23.3804 35.5788 23.2458L35.9708 22.8538C37.2235 21.6011 37.2235 19.5627 35.9708 18.31C34.7607 17.1 32.6371 17.1 31.4271 18.31L31.0351 18.702C30.8987 18.1532 30.6294 17.6317 30.2017 17.2039C28.949 15.9512 26.9106 15.9512 25.6579 17.2039L11.6909 31.1709L13.685 25.6881C14.2116 24.2803 13.7651 22.7157 12.601 21.884C11.7693 21.2892 10.7399 21.1154 9.77522 21.4102C8.80716 21.7051 8.05043 22.4141 7.69934 23.3549L1.93017 38.7126C1.92847 38.716 1.93017 38.7194 1.92847 38.7211C0.0690423 43.1353 1.05074 48.1699 4.44066 51.5582C6.72617 53.8437 9.72579 54.9856 12.7271 54.9856C15.7285 54.9856 18.7298 53.8437 21.0136 51.5582L36.2981 36.2737C36.9031 35.6687 37.2354 34.8625 37.2354 34.0018C37.2354 33.1411 36.9031 32.335 36.2981 31.7299C35.8737 31.3039 35.3521 31.0329 34.8034 30.8965ZM35.1954 35.1676L19.9109 50.452C15.9517 54.4112 9.50934 54.4112 5.55018 50.452C2.60509 47.5053 1.75463 43.1251 3.38567 39.2921C3.38738 39.287 3.38738 39.2818 3.38908 39.2767C3.39079 39.2716 3.3959 39.2665 3.39761 39.2597L9.16677 23.9002C9.34743 23.4179 9.73602 23.0549 10.2337 22.9032C10.7348 22.7498 11.2546 22.8384 11.6943 23.1537C12.2755 23.5679 12.497 24.403 12.2209 25.1444L9.0202 33.9473C9.00657 33.9848 9.01168 34.0223 9.00316 34.0598C8.99123 34.1177 8.97589 34.174 8.97759 34.2336C8.9793 34.2864 8.99463 34.3342 9.00657 34.3836C9.01679 34.4313 9.0219 34.479 9.04236 34.5251C9.06622 34.5796 9.10542 34.6256 9.14121 34.675C9.16337 34.7057 9.1753 34.7398 9.20257 34.7671C9.20597 34.7705 9.21109 34.7705 9.21449 34.7739C9.25029 34.8097 9.29971 34.8301 9.34232 34.8591C9.38663 34.8881 9.42754 34.9222 9.47696 34.9409C9.48208 34.9426 9.48378 34.946 9.48889 34.9477C9.52298 34.9597 9.55877 34.9562 9.59286 34.9631C9.64739 34.975 9.70023 34.9954 9.75477 34.9954C9.76158 34.9954 9.77011 34.992 9.77692 34.9903C9.82124 34.9886 9.86044 34.975 9.90305 34.9665C9.95929 34.9562 10.0138 34.9494 10.0684 34.9256C10.1178 34.9051 10.157 34.8693 10.1996 34.8386C10.2354 34.8131 10.2746 34.7995 10.307 34.7671L26.7657 18.3083C27.4083 17.6658 28.453 17.6641 29.0972 18.3083C29.7398 18.9509 29.7398 19.9973 29.0972 20.6399L21.2897 28.4474L18.0992 31.6379C17.7941 31.943 17.7941 32.439 18.0992 32.744C18.4043 33.0491 18.9002 33.0491 19.2053 32.744L22.3958 29.5535L30.2034 21.746L32.5349 19.4144C33.1774 18.7719 34.2222 18.7702 34.8664 19.4144C35.5089 20.057 35.5089 21.1034 34.8664 21.746L32.5349 24.0775L24.7273 31.885L21.5368 35.0756C21.2317 35.3806 21.2317 35.8766 21.5368 36.1817C21.8419 36.4867 22.3379 36.4867 22.6429 36.1817L25.8334 32.9912L33.641 25.1836C34.2835 24.5411 35.3283 24.5394 35.9725 25.1836C36.6151 25.8261 36.6151 26.8726 35.9725 27.5151L23.2377 40.2499C22.9327 40.555 22.9327 41.0509 23.2377 41.356C23.3911 41.5094 23.5905 41.5844 23.79 41.5844C23.9911 41.5844 24.1905 41.5077 24.3422 41.356L32.8638 32.8361C33.5081 32.1935 34.5528 32.1952 35.1954 32.8361C35.8379 33.4803 35.8379 34.5251 35.1954 35.1676Z" fill="#003354" stroke="#003354" stroke-width="0.5" stroke-miterlimit="10"/>
</svg>
