<svg width="56" height="56" viewBox="0 0 56 56" fill="none" xmlns="http://www.w3.org/2000/svg">
<mask id="path-1-inside-1" fill="white">
<path d="M54.4432 36.6416H51.3313V22.6009H52.8865C53.7462 22.6009 54.4417 21.9034 54.4417 21.0412V16.3604C54.4417 15.6773 53.9998 15.0742 53.3491 14.871L28.4602 7.07079C28.1587 6.9764 27.8349 6.9764 27.5335 7.07079L2.64616 14.8694C1.99539 15.0742 1.55356 15.6773 1.55356 16.3588V21.0396C1.55356 21.9018 2.249 22.5993 3.10872 22.5993H4.66388V36.64H1.55516C0.695434 36.64 0 37.3375 0 38.1998V44.4403C0 45.3025 0.695434 46 1.55516 46H54.4448C55.3046 46 56 45.3025 56 44.4403V38.1998C55.9984 37.3391 55.303 36.6416 54.4432 36.6416ZM15.5548 22.6009H21.777V36.6416H15.5548V22.6009ZM24.8873 22.6009H31.1095V36.6416H24.8873V22.6009ZM34.2214 22.6009H40.4436V36.6416H34.2214V22.6009ZM43.554 22.6009H48.221V36.6416H43.554V22.6009ZM4.66547 17.5074L27.9992 10.195L51.3329 17.5074V19.4798H4.66547V17.5074ZM12.4429 22.6009V36.6416H7.77578V22.6009H12.4429ZM52.8881 42.8821H3.11031V39.7611H52.8881V42.8821Z"/>
</mask>
<path d="M54.4432 36.6416H51.3313V22.6009H52.8865C53.7462 22.6009 54.4417 21.9034 54.4417 21.0412V16.3604C54.4417 15.6773 53.9998 15.0742 53.3491 14.871L28.4602 7.07079C28.1587 6.9764 27.8349 6.9764 27.5335 7.07079L2.64616 14.8694C1.99539 15.0742 1.55356 15.6773 1.55356 16.3588V21.0396C1.55356 21.9018 2.249 22.5993 3.10872 22.5993H4.66388V36.64H1.55516C0.695434 36.64 0 37.3375 0 38.1998V44.4403C0 45.3025 0.695434 46 1.55516 46H54.4448C55.3046 46 56 45.3025 56 44.4403V38.1998C55.9984 37.3391 55.303 36.6416 54.4432 36.6416ZM15.5548 22.6009H21.777V36.6416H15.5548V22.6009ZM24.8873 22.6009H31.1095V36.6416H24.8873V22.6009ZM34.2214 22.6009H40.4436V36.6416H34.2214V22.6009ZM43.554 22.6009H48.221V36.6416H43.554V22.6009ZM4.66547 17.5074L27.9992 10.195L51.3329 17.5074V19.4798H4.66547V17.5074ZM12.4429 22.6009V36.6416H7.77578V22.6009H12.4429ZM52.8881 42.8821H3.11031V39.7611H52.8881V42.8821Z" fill="#003354" stroke="#FAFAFA" stroke-width="1.6" mask="url(#path-1-inside-1)"/>
</svg>
