<svg width="56" height="56" viewBox="0 0 56 56" fill="none" xmlns="http://www.w3.org/2000/svg">
<path d="M27.7027 25.8243C23.9808 25.8243 20.9531 22.7952 20.9531 19.0732C20.9531 15.3512 23.9822 12.3221 27.7027 12.3221C31.4262 12.3221 34.4538 15.3512 34.4538 19.0732C34.4538 22.7952 31.4262 25.8243 27.7027 25.8243ZM27.7027 14.3548C25.1015 14.3548 22.9859 16.4719 22.9859 19.0732C22.9859 21.6744 25.1015 23.7916 27.7027 23.7916C30.304 23.7916 32.4226 21.6744 32.4226 19.0732C32.4211 16.4719 30.304 14.3548 27.7027 14.3548Z" fill="#003354"/>
<path d="M21.0768 18.0583H18.1055V20.0911H21.0768V18.0583Z" fill="#003354"/>
<path d="M37.2956 18.0577H34.3242V20.0905H37.2956V18.0577Z" fill="#003354"/>
<path d="M22.2953 23.0398L20.1953 25.1398L21.6316 26.5761L23.7316 24.4761L22.2953 23.0398Z" fill="#003354"/>
<path d="M33.7671 11.5716L31.666 13.6727L33.1034 15.11L35.2044 13.009L33.7671 11.5716Z" fill="#003354"/>
<path d="M28.7163 25.6977H26.6836V28.6691H28.7163V25.6977Z" fill="#003354"/>
<path d="M28.7163 9.47839H26.6836V12.4498H28.7163V9.47839Z" fill="#003354"/>
<path d="M33.101 23.0369L31.6641 24.4746L33.7657 26.5751L35.2027 25.1373L33.101 23.0369Z" fill="#003354"/>
<path d="M21.635 11.5716L20.1973 13.0085L22.2967 15.1091L23.7345 13.6722L21.635 11.5716Z" fill="#003354"/>
<path d="M36.7164 42.3613H34.7222V39.4714C34.7222 35.9004 36.1805 32.4982 38.8306 29.891C41.7812 26.9848 43.4054 23.0422 43.4054 18.7873C43.4054 14.2391 41.4585 9.91311 38.0637 6.91656C34.6393 3.89633 30.2215 2.55352 25.6334 3.12647C18.3656 4.03698 12.6538 10.0315 12.0527 17.3808C11.6559 22.2205 13.357 26.8412 16.7207 30.0598C19.2539 32.4834 20.6485 35.6724 20.6485 39.0391V42.3599H18.6543V39.0391C18.6543 36.2217 17.4773 33.5434 15.3409 31.5004C11.5419 27.8657 9.61876 22.6588 10.0629 17.2164C10.7425 8.93153 17.1856 2.17451 25.3832 1.14704C30.5413 0.497094 35.5261 2.01609 39.3828 5.42125C43.2055 8.79533 45.3981 13.6677 45.3981 18.7873C45.3981 23.5796 43.5623 28.0286 40.2282 31.3123C37.963 33.5434 36.715 36.4408 36.715 39.4729V42.3613H36.7164Z" fill="#003354"/>
<path d="M30.4539 54.9675H24.9198L23.4067 52.2996L18.6543 49.4822V41.3646H36.7165V49.4822L31.97 52.2996L30.4539 54.9675ZM26.0805 52.9733H29.2932L30.4969 50.8547L34.7207 48.3467V43.3589H20.6471V48.3467L24.8783 50.8547L26.0805 52.9733Z" fill="#003354"/>
</svg>
