<svg width="56" height="56" viewBox="0 0 56 56" fill="none" xmlns="http://www.w3.org/2000/svg">
<path d="M40.9586 49.2807H14.0849C8.5246 49.2807 4 44.758 4 39.1977V13.4426C4 6.46096 6.84861 0 27.5217 0C48.1929 0 51.0435 6.46096 51.0435 13.4426V39.1977C51.0435 44.758 46.5189 49.2807 40.9586 49.2807ZM27.5217 2.25266C6.25266 2.25266 6.25266 9.25749 6.25266 13.4426V39.1977C6.25266 43.516 9.76664 47.028 14.0849 47.028H40.9586C45.2768 47.028 48.7908 43.514 48.7908 39.1977V13.4426C48.7908 9.25749 48.7908 2.25266 27.5217 2.25266Z" fill="#003354"/>
<path d="M14.0856 40.3241C11.6131 40.3241 9.59961 38.3125 9.59961 35.8381C9.59961 33.3656 11.6112 31.3521 14.0856 31.3521C16.5582 31.3521 18.5717 33.3636 18.5717 35.8381C18.5717 38.3106 16.5582 40.3241 14.0856 40.3241ZM14.0856 33.6047C12.8552 33.6047 11.8523 34.6057 11.8523 35.8381C11.8523 37.0686 12.8532 38.0714 14.0856 38.0714C15.3161 38.0714 16.319 37.0686 16.319 35.8381C16.319 34.6057 15.3161 33.6047 14.0856 33.6047Z" fill="#003354"/>
<path d="M40.9587 40.3241C38.4862 40.3241 36.4727 38.3125 36.4727 35.8381C36.4727 33.3656 38.4842 31.3521 40.9587 31.3521C43.4312 31.3521 45.4447 33.3636 45.4447 35.8381C45.4428 38.3106 43.4312 40.3241 40.9587 40.3241ZM40.9587 33.6047C39.7282 33.6047 38.7253 34.6057 38.7253 35.8381C38.7253 37.0686 39.7263 38.0714 40.9587 38.0714C42.1892 38.0714 43.1921 37.0686 43.1921 35.8381C43.1921 34.6057 42.1892 33.6047 40.9587 33.6047Z" fill="#003354"/>
<path d="M10.7259 56.0001C10.4386 56.0001 10.1493 55.8902 9.92941 55.6703C9.48968 55.2306 9.48968 54.517 9.92941 54.0773L16.6469 47.3579C17.0866 46.9181 17.8002 46.9181 18.2399 47.3579C18.6797 47.7976 18.6797 48.5112 18.2399 48.9509L11.5225 55.6703C11.3026 55.8902 11.0133 56.0001 10.7259 56.0001Z" fill="#003354"/>
<path d="M44.3184 56.0001C44.031 56.0001 43.7417 55.8902 43.5219 55.6703L36.8044 48.9509C36.3647 48.5112 36.3647 47.7976 36.8044 47.3579C37.2441 46.9181 37.9577 46.9181 38.3975 47.3579L45.1149 54.0773C45.5547 54.517 45.5547 55.2306 45.1149 55.6703C44.8931 55.8902 44.6058 56.0001 44.3184 56.0001Z" fill="#003354"/>
<path d="M45.4371 29.1245H9.60485C8.98189 29.1245 8.47852 28.6211 8.47852 27.9981V12.3221C8.47852 11.6992 8.98189 11.1958 9.60485 11.1958H45.4371C46.0601 11.1958 46.5634 11.6992 46.5634 12.3221V27.9981C46.5634 28.6211 46.0601 29.1245 45.4371 29.1245ZM10.7312 26.8737H44.3108V13.4504H10.7312V26.8737Z" fill="#003354"/>
<path d="M36.4809 8.9703H18.5658C17.9448 8.9703 17.4395 8.46693 17.4395 7.84398C17.4395 7.22103 17.9428 6.71765 18.5658 6.71765H36.4809C37.1039 6.71765 37.6073 7.22103 37.6073 7.84398C37.6073 8.46693 37.102 8.9703 36.4809 8.9703Z" fill="#003354"/>
<path d="M42.0771 53.7611H12.9642C12.3413 53.7611 11.8379 53.2577 11.8379 52.6347C11.8379 52.0137 12.3413 51.5084 12.9642 51.5084H42.0771C42.7 51.5084 43.2034 52.0118 43.2034 52.6347C43.2034 53.2558 42.7 53.7611 42.0771 53.7611Z" fill="#003354"/>
</svg>
