<svg width="25" height="24" viewBox="0 0 25 24" fill="none" xmlns="http://www.w3.org/2000/svg">
<g clip-path="url(#clip0)">
<path d="M15.7995 8.34585C15.4181 8.34585 15.102 8.6476 15.102 9.02853V19.0961C15.102 19.4768 15.4181 19.7788 15.7995 19.7788C16.1809 19.7788 16.4971 19.4768 16.4971 19.0961V9.02853C16.4971 8.6476 16.1809 8.34585 15.7995 8.34585Z" fill="#297A38" stroke="#297A38" stroke-width="0.3"/>
<path d="M9.33661 8.34585C8.95526 8.34585 8.63906 8.6476 8.63906 9.02853V19.0961C8.63906 19.4768 8.95522 19.7788 9.33661 19.7788C9.71801 19.7788 10.0342 19.4768 10.0342 19.0961V9.02853C10.0342 8.6476 9.71797 8.34585 9.33661 8.34585Z" fill="#297A38" stroke="#297A38" stroke-width="0.3"/>
<path d="M7.38856 23.1499H7.38881L8.60109 0.86562C8.19365 1.26117 7.96607 1.79884 7.96928 2.35878H7.81928V2.35921V2.87462H5.16594H5.16591C4.04338 2.87484 3.0897 3.68534 2.94327 4.77622L2.94326 4.77626C2.80208 5.82982 3.45738 6.81934 4.47931 7.13926V20.1501C4.47931 20.9631 4.78568 21.7296 5.32496 22.2816C5.86198 22.8352 6.60836 23.1486 7.38856 23.1499ZM17.3179 2.35878H17.1679L19.7047 22.177L19.812 22.2818C19.8121 22.2818 19.8121 22.2817 19.8122 22.2817C20.3515 21.7297 20.6579 20.9631 20.6579 20.1501V7.13926C21.6798 6.81934 22.3351 5.82982 22.1939 4.77626L22.1939 4.77622C22.0475 3.68534 21.0938 2.87484 19.9713 2.87462H19.9712H17.3179V2.3593V2.35878ZM9.21436 2.35878H9.21437L9.21434 2.35681C9.21126 2.12145 9.3063 1.89399 9.47944 1.72644L9.47949 1.72638C9.6525 1.55878 9.8889 1.46591 10.1351 1.47004V1.47006H10.1376H14.9996V1.47008L15.0021 1.47004C15.2483 1.46591 15.4847 1.55878 15.6577 1.72638L15.6578 1.7265C15.8308 1.89378 15.9259 2.1214 15.9228 2.35681H15.9228V2.35878V2.87462H9.21436V2.35878ZM17.7484 21.7846H7.38881C6.54524 21.7846 5.87438 21.0795 5.87438 20.1501V7.22295H19.2628V20.1501C19.2628 21.0795 18.5919 21.7846 17.7484 21.7846ZM5.16594 4.23997H19.9712C20.4366 4.23997 20.8068 4.60594 20.8068 5.04878C20.8068 5.49163 20.4366 5.8576 19.9712 5.8576H5.16594C4.70054 5.8576 4.33037 5.49163 4.33037 5.04878C4.33037 4.60594 4.70054 4.23997 5.16594 4.23997Z" fill="#297A38" stroke="#297A38" stroke-width="0.3"/>
<path d="M12.569 8.34585C12.1877 8.34585 11.8715 8.6476 11.8715 9.02853V19.0961C11.8715 19.4768 12.1876 19.7788 12.569 19.7788C12.9504 19.7788 13.2666 19.4768 13.2666 19.0961V9.02853C13.2666 8.6476 12.9504 8.34585 12.569 8.34585Z" fill="#297A38" stroke="#297A38" stroke-width="0.3"/>
</g>
<defs>
<clipPath id="clip0">
<rect width="24.3243" height="24" fill="white"/>
</clipPath>
</defs>
</svg>
