<svg width="140" height="140" viewBox="0 0 140 140" fill="none" xmlns="http://www.w3.org/2000/svg">
<mask id="path-1-inside-1" fill="white">
<path d="M130 57.5926V57.582C130 57.4819 129.994 57.3828 129.986 57.2841C129.984 57.2572 129.98 57.2305 129.977 57.2035C129.969 57.1262 129.958 57.0495 129.945 56.9736C129.94 56.945 129.935 56.9164 129.929 56.888C129.91 56.7955 129.889 56.7036 129.863 56.6134C129.86 56.6045 129.858 56.5953 129.856 56.5864C129.828 56.4941 129.797 56.4034 129.762 56.3138C129.749 56.2796 129.734 56.2461 129.72 56.2121C129.694 56.1517 129.667 56.0919 129.638 56.0331C129.621 55.9988 129.605 55.9644 129.587 55.9306C129.543 55.8484 129.497 55.7678 129.446 55.689C129.428 55.6597 129.407 55.6316 129.387 55.6028C129.348 55.5453 129.308 55.4891 129.265 55.4342C129.242 55.4049 129.22 55.3759 129.196 55.3471C129.134 55.2723 129.071 55.1992 129.003 55.1296C128.997 55.1242 128.992 55.1185 128.987 55.1132C128.914 55.0393 128.837 54.9697 128.757 54.9022C128.747 54.8938 128.739 54.8844 128.729 54.8762L122.734 49.9017V34.6139C122.734 30.0908 119.054 26.411 114.531 26.411H94.4279L78.2329 12.971C73.4625 9.01293 66.5387 9.01293 61.7688 12.971L45.5738 26.4107H25.4704C20.9473 26.4107 17.2674 30.0906 17.2674 34.6137V49.9015L11.2725 54.8767C11.2626 54.8849 11.254 54.8943 11.2441 54.9027C11.1647 54.9702 11.0873 55.0398 11.0147 55.1136C11.0093 55.119 11.0041 55.1246 10.9987 55.13C10.931 55.1996 10.867 55.2728 10.8054 55.3475C10.7817 55.3761 10.759 55.4054 10.7362 55.4347C10.6938 55.4898 10.6533 55.546 10.6141 55.6032C10.5944 55.6321 10.5738 55.6602 10.5551 55.6895C10.5049 55.768 10.4583 55.8486 10.4144 55.9311C10.3964 55.9649 10.3802 55.9993 10.3636 56.0335C10.3345 56.0924 10.3073 56.1521 10.2816 56.2126C10.2673 56.2463 10.2527 56.2801 10.2396 56.3143C10.2049 56.4038 10.1728 56.4943 10.1456 56.5869C10.143 56.5958 10.1409 56.6047 10.1384 56.6138C10.1123 56.7041 10.091 56.7959 10.0723 56.8885C10.0666 56.9171 10.0617 56.9455 10.0568 56.9741C10.0434 57.05 10.0327 57.1266 10.0242 57.204C10.0214 57.2309 10.0179 57.2576 10.0155 57.2846C10.0076 57.3828 10.002 57.4819 10.002 57.582V57.5926V57.5944V117.107C10.002 120.791 11.5577 124.117 14.0439 126.468C14.1145 126.539 14.1852 126.608 14.2607 126.672C16.5475 128.738 19.5753 129.998 22.8923 129.998H117.109C120.427 129.998 123.455 128.737 125.742 126.671C125.816 126.608 125.887 126.539 125.957 126.469C128.443 124.117 130 120.792 130 117.107V57.5944C130 57.594 130 57.5933 130 57.5926ZM25.4704 33.4418H114.531C115.177 33.4418 115.703 33.9675 115.703 34.6137V61.9605L113.714 63.6114L73.7428 96.7826C71.5746 98.5819 68.427 98.5816 66.2589 96.7826L26.2879 63.6117L24.2986 61.9605V34.6137C24.2986 33.9675 24.8243 33.4418 25.4704 33.4418ZM17.0331 117.107V65.0678L18.5452 66.3229C18.5462 66.3236 18.5471 66.3245 18.548 66.3252L52.8761 94.8132L17.3931 119.13C17.1603 118.499 17.0331 117.818 17.0331 117.107ZM58.5019 99.4818L61.7688 102.193C66.5387 106.152 73.463 106.151 78.2329 102.193L81.4998 99.4818L115.769 122.967H24.232L58.5019 99.4818ZM87.1256 94.8134L121.453 66.3252C121.454 66.3245 121.455 66.3236 121.456 66.3229L122.968 65.0678V117.107C122.968 117.818 122.841 118.499 122.608 119.13L87.1256 94.8134ZM66.2589 18.3819C68.427 16.5826 71.5746 16.5826 73.7428 18.3819L83.4178 26.411H56.5838L66.2589 18.3819Z"/>
</mask>
<path d="M130 57.5926V57.582C130 57.4819 129.994 57.3828 129.986 57.2841C129.984 57.2572 129.98 57.2305 129.977 57.2035C129.969 57.1262 129.958 57.0495 129.945 56.9736C129.94 56.945 129.935 56.9164 129.929 56.888C129.91 56.7955 129.889 56.7036 129.863 56.6134C129.86 56.6045 129.858 56.5953 129.856 56.5864C129.828 56.4941 129.797 56.4034 129.762 56.3138C129.749 56.2796 129.734 56.2461 129.72 56.2121C129.694 56.1517 129.667 56.0919 129.638 56.0331C129.621 55.9988 129.605 55.9644 129.587 55.9306C129.543 55.8484 129.497 55.7678 129.446 55.689C129.428 55.6597 129.407 55.6316 129.387 55.6028C129.348 55.5453 129.308 55.4891 129.265 55.4342C129.242 55.4049 129.22 55.3759 129.196 55.3471C129.134 55.2723 129.071 55.1992 129.003 55.1296C128.997 55.1242 128.992 55.1185 128.987 55.1132C128.914 55.0393 128.837 54.9697 128.757 54.9022C128.747 54.8938 128.739 54.8844 128.729 54.8762L122.734 49.9017V34.6139C122.734 30.0908 119.054 26.411 114.531 26.411H94.4279L78.2329 12.971C73.4625 9.01293 66.5387 9.01293 61.7688 12.971L45.5738 26.4107H25.4704C20.9473 26.4107 17.2674 30.0906 17.2674 34.6137V49.9015L11.2725 54.8767C11.2626 54.8849 11.254 54.8943 11.2441 54.9027C11.1647 54.9702 11.0873 55.0398 11.0147 55.1136C11.0093 55.119 11.0041 55.1246 10.9987 55.13C10.931 55.1996 10.867 55.2728 10.8054 55.3475C10.7817 55.3761 10.759 55.4054 10.7362 55.4347C10.6938 55.4898 10.6533 55.546 10.6141 55.6032C10.5944 55.6321 10.5738 55.6602 10.5551 55.6895C10.5049 55.768 10.4583 55.8486 10.4144 55.9311C10.3964 55.9649 10.3802 55.9993 10.3636 56.0335C10.3345 56.0924 10.3073 56.1521 10.2816 56.2126C10.2673 56.2463 10.2527 56.2801 10.2396 56.3143C10.2049 56.4038 10.1728 56.4943 10.1456 56.5869C10.143 56.5958 10.1409 56.6047 10.1384 56.6138C10.1123 56.7041 10.091 56.7959 10.0723 56.8885C10.0666 56.9171 10.0617 56.9455 10.0568 56.9741C10.0434 57.05 10.0327 57.1266 10.0242 57.204C10.0214 57.2309 10.0179 57.2576 10.0155 57.2846C10.0076 57.3828 10.002 57.4819 10.002 57.582V57.5926V57.5944V117.107C10.002 120.791 11.5577 124.117 14.0439 126.468C14.1145 126.539 14.1852 126.608 14.2607 126.672C16.5475 128.738 19.5753 129.998 22.8923 129.998H117.109C120.427 129.998 123.455 128.737 125.742 126.671C125.816 126.608 125.887 126.539 125.957 126.469C128.443 124.117 130 120.792 130 117.107V57.5944C130 57.594 130 57.5933 130 57.5926ZM25.4704 33.4418H114.531C115.177 33.4418 115.703 33.9675 115.703 34.6137V61.9605L113.714 63.6114L73.7428 96.7826C71.5746 98.5819 68.427 98.5816 66.2589 96.7826L26.2879 63.6117L24.2986 61.9605V34.6137C24.2986 33.9675 24.8243 33.4418 25.4704 33.4418ZM17.0331 117.107V65.0678L18.5452 66.3229C18.5462 66.3236 18.5471 66.3245 18.548 66.3252L52.8761 94.8132L17.3931 119.13C17.1603 118.499 17.0331 117.818 17.0331 117.107ZM58.5019 99.4818L61.7688 102.193C66.5387 106.152 73.463 106.151 78.2329 102.193L81.4998 99.4818L115.769 122.967H24.232L58.5019 99.4818ZM87.1256 94.8134L121.453 66.3252C121.454 66.3245 121.455 66.3236 121.456 66.3229L122.968 65.0678V117.107C122.968 117.818 122.841 118.499 122.608 119.13L87.1256 94.8134ZM66.2589 18.3819C68.427 16.5826 71.5746 16.5826 73.7428 18.3819L83.4178 26.411H56.5838L66.2589 18.3819Z" fill="#297A38" stroke="white" stroke-width="2" mask="url(#path-1-inside-1)"/>
<mask id="path-2-inside-2" fill="white">
<path d="M40.8184 48.6684C40.8184 50.6099 42.3924 52.184 44.3339 52.184H77.6145C79.5561 52.184 81.1301 50.6099 81.1301 48.6684C81.1301 46.7269 79.5561 45.1528 77.6145 45.1528H44.3339C42.3924 45.1528 40.8184 46.7269 40.8184 48.6684Z"/>
</mask>
<path d="M40.8184 48.6684C40.8184 50.6099 42.3924 52.184 44.3339 52.184H77.6145C79.5561 52.184 81.1301 50.6099 81.1301 48.6684C81.1301 46.7269 79.5561 45.1528 77.6145 45.1528H44.3339C42.3924 45.1528 40.8184 46.7269 40.8184 48.6684Z" fill="#297A38" stroke="white" stroke-width="2" mask="url(#path-2-inside-2)"/>
<mask id="path-3-inside-3" fill="white">
<path d="M44.3339 66.2458H95.6611C97.2989 66.2458 98.6711 65.1241 99.0616 63.6082C99.134 63.327 99.1766 63.034 99.1766 62.7303C99.1766 60.7888 97.6026 59.2147 95.6611 59.2147H44.3339C42.3924 59.2147 40.8184 60.7888 40.8184 62.7303C40.8184 63.034 40.861 63.3272 40.9334 63.6082C41.3239 65.1244 42.6961 66.2458 44.3339 66.2458Z"/>
</mask>
<path d="M44.3339 66.2458H95.6611C97.2989 66.2458 98.6711 65.1241 99.0616 63.6082C99.134 63.327 99.1766 63.034 99.1766 62.7303C99.1766 60.7888 97.6026 59.2147 95.6611 59.2147H44.3339C42.3924 59.2147 40.8184 60.7888 40.8184 62.7303C40.8184 63.034 40.861 63.3272 40.9334 63.6082C41.3239 65.1244 42.6961 66.2458 44.3339 66.2458Z" fill="#297A38" stroke="white" stroke-width="2" mask="url(#path-3-inside-3)"/>
</svg>
