<svg xmlns="http://www.w3.org/2000/svg" width="26" height="66" viewBox="0 0 26 66">
  <path fill="#297A38" d="M25.9469,60.4769 L25.9469,50.78 C25.9468,48.1067 23.7717,45.9316 21.0985,45.9316 L16.6909,45.9316 C14.6655,45.9316 13.018,44.2835 13.0177,42.2592 L13.0259,23.1465 C13.0259,21.1165 14.6686,19.4735 16.6989,19.4735 C17.4089,19.4735 19.4475,19.4735 21.1065,19.4735 C23.7682,19.4736 25.9549,17.3239 25.9549,14.6226 L25.9397,4.9435 C25.9396,2.27019 23.7646,0.09518 21.0983,0.09518 C19.1118,0.0865 18.4711,0.08375 17.5804,0.07987 C7.9398,0.07987 0.0966,7.9229 0.0966,17.5631 L0.0887,47.8415 C0.0887,57.5048 7.9083,65.3252 17.5724,65.3252 L21.0985,65.3252 C23.772,65.3252 25.9469,63.1503 25.9469,60.4769 Z M21.0913,3.3274 C21.9824,3.3274 22.7073,4.0522 22.7075,4.946 L22.7227,14.6251 C22.7227,15.5183 21.9999,16.2412 21.1066,16.2412 L19.4904,16.2412 L19.4904,3.3204 L21.0913,3.3274 Z M3.321,47.8421 L3.329,17.5634 C3.329,10.1047 8.98,4.0438 16.2581,3.3735 L16.2581,16.2567 C12.6468,16.4829 9.7935,19.4772 9.7935,23.1459 L9.7855,42.2579 C9.7855,42.258 9.7855,42.2583 9.7855,42.2585 C9.7854,45.9233 12.634,48.9221 16.25,49.1483 L16.25,62.0318 C8.9902,61.3684 3.321,55.3521 3.321,47.8421 Z M21.0986,62.0931 L19.4824,62.0931 L19.4824,49.1638 L21.0985,49.1638 C21.9896,49.1638 22.7147,49.8888 22.7147,50.78 L22.7147,60.4769 C22.7147,61.3681 21.9896,62.0931 21.0986,62.0931 Z"/>
</svg>
