<svg width="52" height="52" viewBox="0 0 52 52" fill="none" xmlns="http://www.w3.org/2000/svg">
<path d="M42.3514 30.1172H38.4188H10.6486C7.53393 30.1172 5 32.6512 5 35.7659C5 38.8806 7.53403 41.4145 10.6486 41.4145H13.9595L13.5322 41.7617C13.0402 42.1615 12.8187 42.7946 12.9543 43.4138C13.0898 44.0331 13.5555 44.5158 14.1696 44.6734L14.3915 44.7304L13.2963 48.9976C13.162 49.5208 13.4774 50.0538 14.0005 50.188L17.3268 51.0418C17.4069 51.0624 17.4885 51.0725 17.5699 51.0725C17.7436 51.0725 17.9158 51.0261 18.0678 50.9363C18.2911 50.8041 18.4528 50.5888 18.5172 50.3376L19.6126 46.0703L19.8345 46.1273C20.4486 46.2848 21.0891 46.0861 21.5062 45.6085C21.9232 45.131 22.0339 44.4696 21.7953 43.8824L20.7921 41.4144H38.4188H42.3514V41.4145C45.4661 41.4145 48 38.8806 48 35.7659C48 32.6512 45.4659 30.1172 42.3514 30.1172ZM14.6034 43.9047L14.603 43.9061C14.6032 43.9055 14.6033 43.9049 14.6035 43.9043C14.6034 43.9045 14.6034 43.9046 14.6034 43.9047ZM19.2738 43.9639C18.9881 43.8904 18.6909 43.9326 18.4369 44.0829C18.183 44.233 18.0029 44.473 17.9297 44.7584L16.8657 48.9041L15.434 48.5365L16.498 44.3913C16.5714 44.1056 16.5292 43.8083 16.3788 43.5543C16.2285 43.3004 15.9884 43.1203 15.7034 43.0475L15.2081 42.9203L17.0618 41.4144L18.2786 40.426L18.6804 41.4144L19.7683 44.0908L19.2738 43.9639ZM37.4407 39.4584H19.9969L19.5934 38.4657C19.4766 38.1786 19.2307 37.9637 18.9305 37.8867C18.63 37.8095 18.3112 37.8794 18.0706 38.0749L16.3674 39.4584H10.6486C8.61253 39.4584 6.9561 37.8019 6.9561 35.7659C6.9561 33.7298 8.61263 32.0733 10.6486 32.0733H37.4408V39.4584H37.4407ZM42.3514 39.4584H39.3969V32.0733H42.3514C44.3875 32.0733 46.0439 33.7298 46.0439 35.7659C46.0438 37.8019 44.3873 39.4584 42.3514 39.4584Z" fill="#003354"/>
<path d="M42.9171 33.5278C42.5822 33.1041 41.9671 33.032 41.5434 33.3672C41.1196 33.7022 41.0478 34.3173 41.3828 34.741L42.0415 35.5742L41.3828 36.4074C41.0478 36.8311 41.1197 37.4461 41.5434 37.7811C41.7229 37.9231 41.9368 37.992 42.1493 37.992C42.4381 37.9919 42.7241 37.8647 42.9171 37.6205L44.0556 36.1807C44.3368 35.8252 44.3368 35.323 44.0556 34.9676L42.9171 33.5278Z" fill="#003354"/>
<path d="M10.9493 36.1405C10.9738 36.2002 11.0041 36.2569 11.0393 36.3097C11.0755 36.3635 11.1166 36.4134 11.1616 36.4584C11.2066 36.5035 11.2564 36.5446 11.3102 36.5797C11.363 36.6149 11.4198 36.6452 11.4785 36.6697C11.5381 36.6941 11.5988 36.7127 11.6614 36.7254C11.7249 36.7381 11.7885 36.745 11.8531 36.745C11.9166 36.745 11.9802 36.7381 12.0438 36.7254C12.1064 36.7127 12.168 36.6941 12.2267 36.6697C12.2854 36.6452 12.3431 36.6149 12.3959 36.5797C12.4487 36.5446 12.4995 36.5035 12.5445 36.4584C12.5895 36.4134 12.6306 36.3635 12.6658 36.3097C12.701 36.2569 12.7313 36.2002 12.7558 36.1405C12.7802 36.0819 12.7988 36.0203 12.8115 35.9577C12.8243 35.8951 12.8311 35.8305 12.8311 35.767C12.8311 35.7034 12.8243 35.6388 12.8115 35.5753C12.7988 35.5137 12.7802 35.4521 12.7558 35.3924C12.7313 35.3336 12.701 35.277 12.6658 35.2242C12.6306 35.1703 12.5895 35.1204 12.5445 35.0754C12.4995 35.0305 12.4487 34.9894 12.3959 34.9532C12.3431 34.918 12.2854 34.8877 12.2267 34.8632C12.168 34.8388 12.1064 34.8202 12.0438 34.8075C11.7259 34.744 11.3885 34.8476 11.1616 35.0754C11.1166 35.1204 11.0755 35.1703 11.0393 35.2242C11.0041 35.277 10.9738 35.3336 10.9493 35.3924C10.9249 35.4521 10.9063 35.5137 10.8936 35.5753C10.8809 35.6388 10.875 35.7034 10.875 35.767C10.875 35.8305 10.8809 35.8951 10.8936 35.9577C10.9063 36.0203 10.9249 36.082 10.9493 36.1405Z" fill="#003354"/>
<path d="M16.1486 36.1406C16.173 36.2002 16.2033 36.257 16.2385 36.3098C16.2747 36.3636 16.3158 36.4134 16.3608 36.4584C16.4058 36.5035 16.4557 36.5446 16.5095 36.5797C16.5623 36.6149 16.619 36.6452 16.6777 36.6697C16.7373 36.6941 16.799 36.7127 16.8606 36.7254C16.9241 36.7382 16.9887 36.745 17.0523 36.745C17.1158 36.745 17.1804 36.7382 17.243 36.7254C17.3056 36.7127 17.3672 36.6941 17.4259 36.6697C17.4855 36.6452 17.5423 36.6149 17.5951 36.5797C17.6489 36.5446 17.6988 36.5035 17.7438 36.4584C17.7887 36.4134 17.8298 36.3636 17.865 36.3098C17.9002 36.257 17.9306 36.2002 17.955 36.1406C17.9795 36.0819 17.998 36.0204 18.0108 35.9578C18.0235 35.8951 18.0303 35.8305 18.0303 35.7671C18.0303 35.7035 18.0235 35.6388 18.0108 35.5754C17.998 35.5137 17.9795 35.4521 17.955 35.3925C17.9306 35.3337 17.9002 35.2771 17.865 35.2242C17.8298 35.1704 17.7887 35.1205 17.7438 35.0755C17.5168 34.8476 17.1794 34.7439 16.8606 34.8075C16.799 34.8202 16.7373 34.8388 16.6777 34.8632C16.619 34.8877 16.5623 34.918 16.5095 34.9532C16.4557 34.9894 16.4058 35.0305 16.3608 35.0755C16.3158 35.1205 16.2747 35.1704 16.2385 35.2242C16.2033 35.2771 16.173 35.3337 16.1486 35.3925C16.1241 35.4521 16.1055 35.5137 16.0928 35.5754C16.0801 35.6388 16.0742 35.7035 16.0742 35.7671C16.0742 35.8305 16.0801 35.8952 16.0928 35.9578C16.1055 36.0204 16.1241 36.082 16.1486 36.1406Z" fill="#003354"/>
<path d="M21.3487 36.1406C21.3732 36.2002 21.4035 36.257 21.4387 36.3098C21.4739 36.3636 21.515 36.4134 21.56 36.4584C21.605 36.5035 21.6549 36.5446 21.7087 36.5797C21.7615 36.6149 21.8182 36.6452 21.8779 36.6697C21.9366 36.6941 21.9982 36.7127 22.0608 36.7254C22.1234 36.7382 22.1879 36.745 22.2515 36.745C22.3151 36.745 22.3796 36.7382 22.4422 36.7254C22.5048 36.7127 22.5664 36.6941 22.6251 36.6697C22.6848 36.6452 22.7415 36.6149 22.7943 36.5797C22.8481 36.5446 22.898 36.5035 22.943 36.4584C22.988 36.4134 23.029 36.3636 23.0642 36.3098C23.0995 36.257 23.1298 36.2002 23.1542 36.1406C23.1787 36.0819 23.1973 36.0204 23.21 35.9578C23.2227 35.8951 23.2295 35.8305 23.2295 35.7671C23.2295 35.7035 23.2227 35.6388 23.21 35.5754C23.1982 35.5137 23.1787 35.4521 23.1542 35.3925C23.1298 35.3337 23.0995 35.2771 23.0642 35.2242C23.029 35.1704 22.988 35.1205 22.943 35.0755C22.7161 34.8476 22.3777 34.7439 22.0608 34.8075C21.9982 34.8202 21.9366 34.8388 21.8769 34.8632C21.8182 34.8877 21.7615 34.918 21.7087 34.9532C21.6549 34.9894 21.605 35.0305 21.56 35.0755C21.515 35.1205 21.4739 35.1704 21.4387 35.2242C21.4035 35.2771 21.3732 35.3337 21.3487 35.3925C21.3243 35.4521 21.3047 35.5137 21.293 35.5754C21.2803 35.6388 21.2734 35.7035 21.2734 35.7671C21.2734 35.8305 21.2803 35.8952 21.293 35.9578C21.3047 36.0204 21.3243 36.082 21.3487 36.1406Z" fill="#003354"/>
<path d="M26.548 36.1406C26.5724 36.2002 26.6027 36.257 26.6379 36.3098C26.6732 36.3636 26.7142 36.4134 26.7592 36.4584C26.8042 36.5035 26.8541 36.5446 26.9079 36.5797C26.9607 36.6149 27.0174 36.6452 27.0771 36.6697C27.1358 36.6941 27.1974 36.7127 27.26 36.7254C27.3226 36.7382 27.3871 36.745 27.4507 36.745C27.5143 36.745 27.5788 36.7382 27.6414 36.7254C27.704 36.7127 27.7656 36.6941 27.8243 36.6697C27.884 36.6452 27.9407 36.6149 27.9935 36.5797C28.0473 36.5446 28.0972 36.5035 28.1422 36.4584C28.1872 36.4134 28.2283 36.3636 28.2635 36.3098C28.2987 36.257 28.329 36.2002 28.3534 36.1406C28.3779 36.0819 28.3975 36.0204 28.4092 35.9578C28.4219 35.8951 28.4288 35.8305 28.4288 35.7671C28.4288 35.7035 28.4219 35.6388 28.4092 35.5754C28.3975 35.5137 28.3779 35.4521 28.3534 35.3925C28.329 35.3337 28.2987 35.2771 28.2635 35.2242C28.2283 35.1704 28.1872 35.1205 28.1422 35.0755C27.9153 34.8476 27.5769 34.7439 27.26 34.8075C27.1974 34.8202 27.1358 34.8388 27.0771 34.8632C27.0174 34.8877 26.9607 34.918 26.9079 34.9532C26.8541 34.9894 26.8042 35.0305 26.7592 35.0755C26.7142 35.1205 26.6732 35.1704 26.6379 35.2242C26.6027 35.2771 26.5724 35.3337 26.548 35.3925C26.5235 35.4521 26.5049 35.5137 26.4922 35.5754C26.4795 35.6388 26.4727 35.7035 26.4727 35.7671C26.4727 35.8305 26.4795 35.8952 26.4922 35.9578C26.5049 36.0204 26.5235 36.082 26.548 36.1406Z" fill="#003354"/>
<path d="M31.755 36.1412C31.7794 36.2009 31.8098 36.2576 31.845 36.3104C31.8802 36.3642 31.9213 36.4141 31.9663 36.4591C32.0112 36.5042 32.0611 36.5453 32.1149 36.5804C32.1677 36.6156 32.2245 36.6459 32.2841 36.6704C32.3428 36.6948 32.4044 36.7134 32.467 36.7261C32.5296 36.7388 32.5942 36.7457 32.6577 36.7457C32.7213 36.7457 32.7859 36.7388 32.8494 36.7261C32.9111 36.7134 32.9727 36.6948 33.0323 36.6704C33.091 36.6459 33.1477 36.6156 33.2006 36.5804C33.2544 36.5453 33.3042 36.5042 33.3492 36.4591C33.3942 36.4141 33.4353 36.3642 33.4715 36.3104C33.5067 36.2576 33.537 36.2009 33.5615 36.1412C33.5859 36.0825 33.6045 36.021 33.6172 35.9584C33.6299 35.8957 33.6358 35.8312 33.6358 35.7677C33.6358 35.7041 33.6299 35.6395 33.6172 35.576C33.6045 35.5144 33.5859 35.4528 33.5615 35.3931C33.537 35.3343 33.5067 35.2777 33.4715 35.2249C33.4353 35.171 33.3942 35.1211 33.3492 35.0761C33.3042 35.0311 33.2544 34.9901 33.2006 34.9539C33.1477 34.9187 33.091 34.8883 33.0323 34.8639C32.9727 34.8394 32.9111 34.8208 32.8494 34.8081C32.7233 34.7827 32.5932 34.7827 32.467 34.8081C32.4044 34.8208 32.3428 34.8394 32.2841 34.8639C32.2245 34.8883 32.1677 34.9187 32.1149 34.9539C32.0611 34.9901 32.0112 35.0311 31.9663 35.0761C31.9213 35.1211 31.8802 35.171 31.845 35.2249C31.8098 35.2777 31.7794 35.3343 31.755 35.3931C31.7305 35.4528 31.712 35.5144 31.6992 35.576C31.6865 35.6395 31.6797 35.7041 31.6797 35.7677C31.6797 35.8312 31.6865 35.8958 31.6992 35.9584C31.712 36.021 31.7305 36.0826 31.755 36.1412Z" fill="#003354"/>
<path d="M17.9195 25.7215C17.9435 25.7443 17.9682 25.7664 17.9946 25.7868C20.2405 27.5244 22.8957 28.5079 25.7139 28.6546C25.7339 28.6557 25.7541 28.6566 25.7741 28.6576C25.8635 28.6619 25.9532 28.6652 26.0429 28.6679C26.0693 28.6687 26.0957 28.6696 26.1221 28.6703C26.2327 28.6729 26.3434 28.6745 26.4546 28.6745C26.5662 28.6745 26.6776 28.6729 26.789 28.6703C26.8144 28.6697 26.8396 28.6688 26.8649 28.668C26.9569 28.6653 27.0485 28.6619 27.1401 28.6575C27.1577 28.6566 27.1752 28.6558 27.1927 28.6548C30.057 28.5066 32.7477 27.4965 35.0144 25.7097C35.0455 25.6851 35.0747 25.6586 35.1023 25.6308C38.2637 23.0927 40.2915 19.1977 40.2915 14.8374C40.2916 7.20739 34.0843 1 26.4546 1C18.8248 1 12.6172 7.20739 12.6172 14.8373C12.6172 19.2495 14.693 23.186 17.9195 25.7215ZM27.725 26.6503C27.6644 26.6566 27.6037 26.6625 27.5428 26.668C27.4755 26.6741 27.4083 26.6803 27.3408 26.6853C27.2235 26.6938 27.1059 26.7006 26.988 26.7057C26.9476 26.7076 26.9072 26.7089 26.8667 26.7103C26.7297 26.7149 26.5924 26.7182 26.4545 26.7182C26.3183 26.7182 26.1828 26.715 26.0474 26.7105C26.0075 26.7091 25.9677 26.7077 25.928 26.706C25.8154 26.7011 25.7032 26.6947 25.5912 26.6867C25.5261 26.682 25.4611 26.6764 25.3963 26.6706C25.3261 26.6644 25.256 26.6578 25.1859 26.6505C25.1078 26.6421 25.0297 26.6335 24.952 26.6237C24.9382 26.6219 24.9245 26.6198 24.9107 26.6181C22.939 26.3611 21.1178 25.6192 19.5709 24.516V22.7452C19.5709 20.4148 20.7284 18.351 22.4973 17.0941C23.6029 17.9581 24.9922 18.475 26.5008 18.475C28.0095 18.475 29.3989 17.9582 30.5044 17.0941C32.2733 18.351 33.4307 20.4148 33.4307 22.7452V24.4482H33.4308C31.7935 25.6399 29.8417 26.4242 27.725 26.6503ZM26.4546 2.9561C33.0058 2.9561 38.3357 8.28589 38.3357 14.8373C38.3357 17.8323 37.2213 20.5716 35.386 22.6634C35.3601 19.8076 33.9805 17.2695 31.8588 15.6609C32.5877 14.6089 33.0163 13.3338 33.0163 11.9598C33.0163 11.6366 32.9923 11.3115 32.945 10.9935C32.8655 10.4593 32.3682 10.0907 31.8336 10.1701C31.2993 10.2496 30.9307 10.7471 31.0102 11.2814C31.0434 11.5043 31.0602 11.7325 31.0602 11.9598C31.0602 12.9675 30.731 13.8995 30.1753 14.6551C29.7244 15.2681 29.1241 15.7643 28.4286 16.0901C27.8427 16.3647 27.1897 16.519 26.5011 16.519C25.8126 16.519 25.1595 16.3647 24.5737 16.0901C23.8781 15.7643 23.2778 15.2681 22.827 14.6551C22.2712 13.8995 21.942 12.9676 21.942 11.9598C21.942 9.44596 23.9872 7.40075 26.5011 7.40075C26.8471 7.40075 27.1917 7.43949 27.5254 7.51607C28.0525 7.63725 28.5767 7.30784 28.6973 6.78126C28.818 6.25477 28.4891 5.73015 27.9626 5.60946C27.4858 5.50011 26.994 5.44465 26.5012 5.44465C22.9087 5.44465 19.986 8.36736 19.986 11.9598C19.986 13.3338 20.4146 14.6089 21.1435 15.6609C19.0015 17.2848 17.6152 19.856 17.6152 22.7452V22.7669C15.725 20.6623 14.5734 17.8819 14.5734 14.8373C14.5733 8.28589 19.9032 2.9561 26.4546 2.9561Z" fill="#003354"/>
<path d="M29.6573 8.56698C29.6818 8.62566 29.7121 8.68239 29.7473 8.7352C29.7825 8.78899 29.8236 8.83887 29.8686 8.88386C29.9136 8.92993 29.9635 8.97003 30.0173 9.00612C30.0701 9.04133 30.1268 9.07175 30.1865 9.0962C30.2451 9.12065 30.3068 9.13914 30.3694 9.15185C30.432 9.16456 30.4965 9.17043 30.5601 9.17043C30.6237 9.17043 30.6882 9.16447 30.7508 9.15185C30.8134 9.13914 30.875 9.12065 30.9347 9.0962C30.9934 9.07175 31.0501 9.04133 31.1029 9.00612C31.1567 8.97003 31.2066 8.92993 31.2516 8.88386C31.2965 8.83887 31.3376 8.78899 31.3728 8.7352C31.408 8.68239 31.4384 8.62566 31.4628 8.56698C31.4873 8.50731 31.5068 8.44668 31.5186 8.38408C31.5313 8.32051 31.5381 8.25693 31.5381 8.19238C31.5381 8.12881 31.5313 8.06416 31.5186 8.00166C31.5068 7.93907 31.4873 7.87735 31.4628 7.81877C31.4384 7.76018 31.408 7.70248 31.3728 7.64966C31.3376 7.59577 31.2965 7.54589 31.2516 7.5009C31.2066 7.45591 31.1567 7.41483 31.1029 7.37962C31.0501 7.34451 30.9934 7.31409 30.9347 7.28964C30.875 7.26519 30.8134 7.2467 30.7508 7.23399C30.6246 7.20846 30.4955 7.20846 30.3694 7.23399C30.3068 7.2467 30.2451 7.26519 30.1865 7.28964C30.1268 7.31409 30.0701 7.34451 30.0173 7.37962C29.9635 7.41483 29.9136 7.45591 29.8686 7.5009C29.8236 7.54589 29.7825 7.59577 29.7473 7.64966C29.7121 7.70248 29.6818 7.76018 29.6573 7.81877C29.6329 7.87735 29.6143 7.93907 29.6016 8.00166C29.5889 8.06426 29.582 8.12881 29.582 8.19238C29.582 8.25693 29.5889 8.32051 29.6016 8.38408C29.6143 8.44668 29.6329 8.50731 29.6573 8.56698Z" fill="#003354"/>
</svg>
