<svg width="140" height="140" viewBox="0 0 140 140" fill="none" xmlns="http://www.w3.org/2000/svg">
<path d="M20.7467 52.7768H34.2431C35.4853 52.7768 36.4924 51.7696 36.4924 50.5274C36.4924 49.2852 35.4853 48.278 34.2431 48.278H20.7467C19.5045 48.278 18.4973 49.2852 18.4973 50.5274C18.4973 51.7696 19.5045 52.7768 20.7467 52.7768Z" fill="#297A38"/>
<path d="M79.2311 48.278H43.2408C41.9986 48.278 40.9915 49.2852 40.9915 50.5274C40.9915 51.7696 41.9986 52.7768 43.2408 52.7768H79.2311C80.4733 52.7768 81.4805 51.7696 81.4805 50.5274C81.4805 49.2852 80.4733 48.278 79.2311 48.278Z" fill="#297A38"/>
<path d="M79.2343 59.5253H65.7379C64.4957 59.5253 63.4885 60.5324 63.4885 61.7747C63.4885 63.0169 64.4957 64.0241 65.7379 64.0241H79.2343C80.4765 64.0241 81.4837 63.0169 81.4837 61.7747C81.4837 60.5324 80.4765 59.5253 79.2343 59.5253Z" fill="#297A38"/>
<path d="M20.7467 64.0241H56.737C57.9792 64.0241 58.9864 63.0169 58.9864 61.7747C58.9864 60.5324 57.9792 59.5253 56.737 59.5253H20.7467C19.5045 59.5253 18.4973 60.5324 18.4973 61.7747C18.4973 63.0169 19.5045 64.0241 20.7467 64.0241Z" fill="#297A38"/>
<path d="M79.2309 37.0302H20.7467C19.5045 37.0302 18.4973 38.0374 18.4973 39.2796C18.4973 40.5219 19.5045 41.529 20.7467 41.529H79.2309C80.4731 41.529 81.4803 40.5219 81.4803 39.2796C81.4803 38.0374 80.4731 37.0302 79.2309 37.0302Z" fill="#297A38"/>
<path d="M79.2309 70.7705H20.7467C19.5045 70.7705 18.4973 71.7777 18.4973 73.0199C18.4973 74.2621 19.5045 75.2693 20.7467 75.2693H79.2309C80.4731 75.2693 81.4803 74.2621 81.4803 73.0199C81.4803 71.7777 80.4731 70.7705 79.2309 70.7705Z" fill="#297A38"/>
<path d="M79.2299 23.5348H20.7457C12.0637 23.5348 5 30.5984 5 39.2805V73.0214C5 80.9401 10.8757 87.5122 18.4963 88.6068V96.8329C18.4963 98.6591 19.5865 100.29 21.2735 100.989C21.8336 101.221 22.4193 101.334 22.9999 101.334C24.1682 101.334 25.3137 100.877 26.1763 100.014L37.4233 88.7671H79.2299C87.912 88.7671 94.9757 81.7035 94.9757 73.0214V39.2805C94.9757 30.5984 87.912 23.5348 79.2299 23.5348ZM90.4769 73.0214C90.4769 79.223 85.4315 84.2683 79.2299 84.2683H36.4915C35.8948 84.2683 35.3226 84.5054 34.9009 84.9271L22.9951 96.8312V86.5177C22.9951 85.2755 21.988 84.2683 20.7457 84.2683C14.5442 84.2683 9.49878 79.223 9.49878 73.0214V39.2805C9.49878 33.0789 14.5442 28.0335 20.7457 28.0335H79.2299C85.4315 28.0335 90.4769 33.0789 90.4769 39.2805V73.0214Z" fill="#297A38"/>
<circle cx="103.933" cy="92.5419" r="29.6216" fill="#297A38" stroke="#297A38" stroke-width="2.76243"/>
<rect width="6.62588" height="33.1359" rx="3.31294" transform="matrix(0.894347 0 -0.00175036 0.894345 102.074 71.6973)" fill="white"/>
<circle cx="105" cy="107" r="3" fill="white"/>
</svg>
