<svg width="140" height="140" viewBox="0 0 140 140" fill="none" xmlns="http://www.w3.org/2000/svg">
<path d="M32.0999 59.9622H49.621C51.2337 59.9622 52.5412 58.6547 52.5412 57.042C52.5412 55.4293 51.2337 54.1218 49.621 54.1218H32.0999C30.4872 54.1218 29.1797 55.4293 29.1797 57.042C29.1797 58.6547 30.4872 59.9622 32.0999 59.9622Z" fill="#297A38" stroke="white" stroke-width="0.5"/>
<path d="M108.024 54.1218H61.3011C59.6884 54.1218 58.3809 55.4293 58.3809 57.042C58.3809 58.6547 59.6884 59.9622 61.3011 59.9622H108.024C109.637 59.9622 110.944 58.6547 110.944 57.042C110.944 55.4293 109.637 54.1218 108.024 54.1218Z" fill="#297A38" stroke="white" stroke-width="0.5"/>
<path d="M108.027 68.7234H90.5061C88.8935 68.7234 87.5859 70.0309 87.5859 71.6436C87.5859 73.2563 88.8935 74.5638 90.5061 74.5638H108.027C109.64 74.5638 110.947 73.2563 110.947 71.6436C110.947 70.0309 109.64 68.7234 108.027 68.7234Z" fill="#297A38" stroke="white" stroke-width="0.5"/>
<path d="M32.0999 74.5638H78.823C80.4357 74.5638 81.7432 73.2563 81.7432 71.6436C81.7432 70.0309 80.4357 68.7234 78.823 68.7234H32.0999C30.4872 68.7234 29.1797 70.0309 29.1797 71.6436C29.1797 73.2563 30.4872 74.5638 32.0999 74.5638Z" fill="#297A38" stroke="white" stroke-width="0.5"/>
<path d="M108.025 39.5215H32.0999C30.4872 39.5215 29.1797 40.829 29.1797 42.4417C29.1797 44.0544 30.4872 45.3619 32.0999 45.3619H108.025C109.638 45.3619 110.945 44.0544 110.945 42.4417C110.945 40.829 109.638 39.5215 108.025 39.5215Z" fill="#297A38" stroke="white" stroke-width="0.5"/>
<path d="M107.845 83H31.9202C30.3075 83 29 84.3075 29 85.9202C29 87.5329 30.3075 88.8404 31.9202 88.8404H107.845C109.458 88.8404 110.765 87.5329 110.765 85.9202C110.765 84.3075 109.458 83 107.845 83Z" fill="#297A38" stroke="white" stroke-width="0.5"/>
<path d="M108.025 22H32.0996C20.8283 22 11.6582 31.1701 11.6582 42.4414V86.2443C11.6582 96.5244 19.2861 105.057 29.1794 106.478V117.157C29.1794 119.528 30.5946 121.645 32.7847 122.552C33.5118 122.854 34.2722 123 35.026 123C36.5426 123 38.0297 122.406 39.1496 121.287L53.7506 106.686H108.025C119.296 106.686 128.466 97.5155 128.466 86.2443V42.4414C128.466 31.1701 119.296 22 108.025 22ZM122.626 86.2443C122.626 94.2952 116.076 100.845 108.025 100.845H52.5409C51.7663 100.845 51.0235 101.153 50.476 101.7L35.0197 117.155V103.765C35.0197 102.153 33.7122 100.845 32.0996 100.845C24.0486 100.845 17.4986 94.2952 17.4986 86.2443V42.4414C17.4986 34.3904 24.0486 27.8404 32.0996 27.8404H108.025C116.076 27.8404 122.626 34.3904 122.626 42.4414V86.2443Z" fill="#297A38" stroke="white" stroke-width="0.5"/>
</svg>
