<svg width="21" height="19" viewBox="0 0 21 19" fill="none" xmlns="http://www.w3.org/2000/svg">
<path d="M3.5 8H6.5C6.77612 8 7 7.77613 7 7.5C7 7.22387 6.77612 7 6.5 7H3.5C3.22387 7 3 7.22387 3 7.5C3 7.77613 3.22387 8 3.5 8Z" fill="#003354"/>
<path d="M17.4444 7H8.55556C8.24875 7 8 7.22387 8 7.5C8 7.77613 8.24875 8 8.55556 8H17.4444C17.7513 8 18 7.77613 18 7.5C18 7.22387 17.7513 7 17.4444 7Z" fill="#003354"/>
<path d="M17.5 10H14.5C14.2239 10 14 10.2239 14 10.5C14 10.7761 14.2239 11 14.5 11H17.5C17.7761 11 18 10.7761 18 10.5C18 10.2239 17.7761 10 17.5 10Z" fill="#003354"/>
<path d="M3.55556 11H12.4444C12.7513 11 13 10.7761 13 10.5C13 10.2239 12.7513 10 12.4444 10H3.55556C3.24875 10 3 10.2239 3 10.5C3 10.7761 3.24875 11 3.55556 11Z" fill="#003354"/>
<path d="M17.4643 4H3.53571C3.23987 4 3 4.22387 3 4.5C3 4.77613 3.23987 5 3.53571 5H17.4643C17.7601 5 18 4.77613 18 4.5C18 4.22387 17.7601 4 17.4643 4Z" fill="#003354"/>
<path d="M17.325 0H3.675C1.64863 0 0 1.72508 0 3.8454V12.0856C0 14.0194 1.37137 15.6245 3.15 15.8918V17.9008C3.15 18.3468 3.40443 18.7452 3.79818 18.9158C3.9289 18.9725 4.0656 19 4.20112 19C4.47379 19 4.74114 18.8883 4.94248 18.6777L7.56748 15.931H17.325C19.3514 15.931 21 14.2059 21 12.0856V3.8454C21 1.72508 19.3514 0 17.325 0ZM19.95 12.0856C19.95 13.6001 18.7724 14.8323 17.325 14.8323H7.35C7.21074 14.8323 7.0772 14.8902 6.97876 14.9932L4.2 17.9004V15.3816C4.2 15.0782 3.96493 14.8323 3.675 14.8323C2.22757 14.8323 1.05 13.6001 1.05 12.0856V3.8454C1.05 2.33086 2.22757 1.09869 3.675 1.09869H17.325C18.7724 1.09869 19.95 2.33086 19.95 3.8454V12.0856Z" fill="#003354"/>
</svg>
