<svg width="140" height="140" viewBox="0 0 140 140" fill="none" xmlns="http://www.w3.org/2000/svg">
<path d="M67.5 18C63.5877 18 60.0667 18.1432 56.7692 18.3438V18.2865C56.5177 18.2865 56.2942 18.3438 56.0427 18.3438C44.8368 19.0312 37.0682 20.6641 31.9264 22.2396C29.0201 23.1563 26.4772 25.0182 24.4651 27.4531C22.4811 29.8594 21 32.8958 21 36.3333V47.3333H42.5174L42.8248 44.0104C42.8248 44.0104 43.2999 39.0833 45.4237 34.3281C46.4856 31.9792 47.9387 29.7161 49.7831 28.1693C51.1244 27.0234 52.6334 26.1641 54.5896 25.8203C55.0646 25.7917 55.3999 25.7344 55.9029 25.6771C55.9309 25.6771 55.9588 25.7057 55.9868 25.6771C59.424 25.4766 63.2524 25.3333 67.5 25.3333C71.7476 25.3333 75.576 25.4766 79.0132 25.6771C79.0412 25.7057 79.0691 25.6771 79.0971 25.6771C79.2088 25.7057 79.3206 25.7057 79.4603 25.7344C79.7957 25.7344 80.0751 25.7917 80.4105 25.8203C82.3666 26.1641 83.8756 27.0234 85.217 28.1693C87.0613 29.7161 88.5144 31.9792 89.5763 34.3281C91.7001 39.0833 92.1752 44.0104 92.1752 44.0104L92.4546 47.3333H114V36.3333C114 32.8958 112.519 29.8594 110.535 27.4531C108.523 25.0182 105.98 23.1563 103.074 22.2396C97.9318 20.6641 90.1632 19.0312 78.9573 18.3438C78.7058 18.3438 78.4823 18.2865 78.2308 18.2865V18.3438C74.9333 18.1432 71.4123 18 67.5 18ZM40.9805 27.5964C40.226 28.8281 39.4715 30.0599 38.9405 31.2917C36.9564 35.7031 36.9005 37.9375 36.5932 40H28.1538V36.3333C28.1538 35.1875 28.7686 33.5833 29.9423 32.1797C31.116 30.776 32.7368 29.6589 34.0222 29.2865C35.8107 28.7135 38.2419 28.1406 40.9805 27.5964ZM94.0195 27.5964C96.7581 28.1406 99.1893 28.7135 101.006 29.2865C102.263 29.6589 103.884 30.776 105.058 32.1797C106.231 33.5833 106.846 35.1875 106.846 36.3333V40H98.4069C98.0995 37.9375 98.0436 35.7031 96.0874 31.2917C95.5285 30.0599 94.774 28.8281 94.0195 27.5964ZM49.6154 47.3333V55.125L49.28 55.3542C49.28 55.3542 44.1103 59.2214 38.9405 65.0365C33.7428 70.8229 28.1538 78.6432 28.1538 87.6667V95C28.1538 101.044 32.9883 106 38.8846 106H96.1154C102.012 106 106.846 101.044 106.846 95V87.6667C106.846 78.6432 101.257 70.8229 96.0874 65.0365C90.8897 59.2214 85.72 55.3542 85.72 55.3542L85.3846 55.125V47.3333H78.2308V54.6667H56.7692V47.3333H49.6154ZM52.7452 62H82.2548C82.8975 62.5156 86.5303 65.2083 90.7779 69.9635C95.4447 75.1771 99.6923 82.0234 99.6923 87.6667V95C99.6923 97.0625 98.1274 98.6667 96.1154 98.6667H38.8846C36.8726 98.6667 35.3077 97.0625 35.3077 95V87.6667C35.3077 82.0234 39.5553 75.1771 44.1941 69.9635C48.4697 65.2083 52.1025 62.5156 52.7452 62ZM49.6154 69.3333V76.6667H56.7692V69.3333H49.6154ZM63.9231 69.3333V76.6667H71.0769V69.3333H63.9231ZM78.2308 69.3333V76.6667H85.3846V69.3333H78.2308ZM49.6154 84V91.3333H56.7692V84H49.6154ZM63.9231 84V91.3333H71.0769V84H63.9231ZM78.2308 84V91.3333H85.3846V84H78.2308Z" fill="#297A38"/>
<circle cx="106" cy="35" r="17.6188" fill="#297A38" stroke="#297A38" stroke-width="2.76243"/>
<rect width="4.06065" height="20.3072" rx="2.03033" transform="matrix(0.894347 0 -0.00175036 0.894345 104.861 22.2261)" fill="white"/>
<circle cx="106.653" cy="43.8604" r="1.83854" fill="white"/>
</svg>
