<svg width="56" height="44" viewBox="0 0 56 44" fill="none" xmlns="http://www.w3.org/2000/svg">
<path d="M5.82159 17.4467C5.5472 16.3687 5.38108 15.2205 5.38108 13.9802C5.38108 5.61811 12.3952 0.00146298 18.9465 0.00146298C24.6479 0.00146298 29.0012 2.92388 32.2509 8.93544C32.5015 9.39911 32.3235 9.9754 31.8534 10.2226C31.3847 10.4712 30.7988 10.2957 30.5481 9.8306C27.6633 4.49624 23.8693 1.90439 18.9465 1.90439C14.0682 1.90439 7.31073 6.10079 7.31073 13.9787C7.31073 15.2293 7.49168 16.3804 7.80612 17.4452H5.82159V17.4467ZM42.4361 0C38.5501 0 35.2025 1.4144 32.4852 4.20371C32.1159 4.58254 32.1278 5.18516 32.5119 5.54936C32.8961 5.91211 33.5071 5.90187 33.8765 5.52304C36.2155 3.1228 39.0944 1.90439 42.4346 1.90439C47.3129 1.90439 54.0703 6.10079 54.0703 13.9787C54.0703 20.8006 49.9025 24.2847 46.5534 27.0842C46.0625 27.4938 45.5908 27.8887 45.1563 28.2661C42.5117 30.1441 34.2191 36.2405 30.692 41.2268C27.1353 36.0372 18.9539 29.5986 17.22 28.2631C16.7988 27.9033 16.2782 27.5026 15.6953 27.0535C14.3352 26.0062 12.6948 24.7367 11.2249 23.157H8.7005C10.5501 25.5046 12.812 27.2481 14.5073 28.5542C15.0605 28.9799 15.5544 29.3601 15.9578 29.7039C15.9697 29.7141 16.0231 29.7551 16.035 29.7653C17.1592 30.6312 27.0908 38.3717 29.8303 43.4925C29.9979 43.804 30.3257 44 30.6831 44C31.0406 44 31.3698 43.8055 31.536 43.4925C34.182 38.5603 44.2856 31.2309 46.2835 29.8121C46.3844 29.7404 46.4348 29.698 46.4422 29.6922C46.8664 29.3177 47.3247 28.936 47.8008 28.5367C51.2612 25.645 56 21.6841 56 13.9802C56.0015 5.61811 48.9874 0 42.4361 0ZM26.3922 28.6391L28.6037 21.7411H29.3927L30.3079 23.1175C30.5037 23.4129 30.8507 23.5709 31.2067 23.5431C31.5641 23.5095 31.8727 23.2828 32.0076 22.9566L33.568 19.2034L34.0055 20.5856C34.1316 20.9834 34.5053 21.254 34.9266 21.254H44.2278C44.7603 21.254 45.1933 20.8284 45.1933 20.3018C45.1933 19.7767 44.7617 19.3496 44.2278 19.3496H35.637L34.6136 16.1128C34.492 15.7295 34.1405 15.4619 33.7341 15.4458C33.3277 15.4326 32.9539 15.6652 32.7997 16.0352C32.7997 16.0352 31.1147 20.059 30.9175 20.5622C30.5867 20.0005 30.3153 19.8382 29.9148 19.8382H27.8977C27.4764 19.8382 27.1041 20.1073 26.9766 20.5037L26.0763 23.312L25.1493 10.4756C25.1152 10.0105 24.7444 9.63752 24.2742 9.59511C23.7996 9.55708 23.3709 9.854 23.2522 10.3045L20.8509 19.4652L19.8335 17.3341C19.6866 17.0269 19.384 16.8192 19.0414 16.7914C18.7018 16.7607 18.3651 16.9172 18.1693 17.1966L16.649 19.3511H0.965569C0.433097 19.3511 0 19.7767 0 20.3033C0 20.8284 0.431614 21.2555 0.965569 21.2555H17.1503C17.4663 21.2555 17.7629 21.1034 17.9424 20.8474L18.7967 19.6363L20.2413 22.6611C20.4149 23.0239 20.8005 23.2374 21.2039 23.2023C21.6089 23.1643 21.947 22.8805 22.0479 22.4929L23.6409 16.4185L24.507 28.4226C24.5397 28.8789 24.9298 29.2636 25.4133 29.3031C25.8805 29.3397 26.2632 29.0384 26.3922 28.6391Z" fill="#003354"/>
</svg>
