<svg width="52" height="52" viewBox="0 0 52 52" fill="none" xmlns="http://www.w3.org/2000/svg">
<path d="M47.9596 33.8662C46.8467 33.1711 45.4276 33.0998 44.2481 33.6757L35.8867 37.734V37.293C35.8867 35.1731 34.2629 33.5028 32.1431 33.5028H24.0448C22.3925 33.5028 20.703 33.2279 19.1246 32.7395L13.8491 31.0953V28.9681C13.8491 28.2882 13.4004 27.7164 12.7205 27.7164H5.33372C4.65375 27.7164 4 28.2882 4 28.9681V48.5435C4 49.2235 4.65384 49.7541 5.33372 49.7541H12.7207C13.4006 49.7541 13.8493 49.2233 13.8493 48.5435V46.5726L14.73 47.2287C16.9613 49.0231 19.8181 50.0002 22.6815 50.0002H29.7973C32.3434 50.0002 34.8008 49.2525 36.9037 47.8172L48.0881 40.189C49.1209 39.4842 49.7373 38.3198 49.7373 37.0697C49.7373 35.7572 49.0727 34.5614 47.9596 33.8662ZM11.3867 47.2916H6.46215V30.1786H11.3867V47.2916ZM46.7 38.1607L35.5156 45.7835C33.8235 46.9385 31.8461 47.538 29.7973 47.538H22.6815C20.3776 47.538 18.0685 46.7537 16.2732 45.3097L13.8491 43.4126V33.6728L18.3966 35.0916C20.2111 35.6533 22.1454 35.9651 24.0449 35.9651H32.1432C32.9053 35.9651 33.4245 36.5308 33.4245 37.2929V38.7812C31.9471 39.1848 28.4893 39.8996 24.9904 39.3366C24.3195 39.2288 23.7124 39.6852 23.6045 40.3565C23.4965 41.0279 23.9657 41.6596 24.637 41.7677C25.7076 41.9399 26.7712 42.0089 27.7794 42.0089C31.7406 42.0089 34.9398 40.9422 35.1472 40.8715C35.1474 40.8714 35.1494 40.8712 35.1496 40.8712C35.1508 40.8708 35.1539 40.87 35.1549 40.8698C35.2005 40.8542 35.2446 40.8355 35.287 40.8152C35.29 40.8138 35.2935 40.8129 35.2964 40.8114L45.3789 35.8881C45.7961 35.6844 46.2613 35.7086 46.6552 35.9546C47.049 36.2007 47.2749 36.608 47.2749 37.0725C47.2749 37.5082 47.06 37.9149 46.7 38.1607Z" fill="#003354"/>
<path d="M5.87915 17.1755C6.99237 17.8705 8.32915 17.9424 9.5085 17.3667L17.7879 13.309V13.75C17.7879 15.8699 19.5758 17.6207 21.6957 17.6207H29.794C31.4464 17.6207 33.0538 17.8553 34.6321 18.3439L39.8256 19.9479V22.0751C39.8256 22.755 40.4384 23.2841 41.1184 23.2841H48.5053C49.1853 23.2841 49.6749 22.755 49.6749 22.0751V2.49957C49.6748 1.8196 49.1852 1.24624 48.5052 1.24624H41.1183C40.4383 1.24624 39.8255 1.8196 39.8255 2.49957V4.47048L39.0269 3.7931C36.7955 1.99857 34.0206 1 31.1571 1H24.0414C21.4954 1 19.0379 1.76888 16.9348 3.20443L5.75053 10.8434C4.71799 11.5482 4.10156 12.7178 4.10156 13.9681C4.10147 15.2804 4.76613 16.4802 5.87915 17.1755ZM42.2878 3.70859H47.2124V20.8216H42.2878V3.70859ZM7.1387 12.8821L18.3231 5.23802C20.0154 4.08308 21.9929 3.46235 24.0415 3.46235H31.1572C33.4612 3.46235 35.6883 4.26788 37.4837 5.71194L39.8254 7.6305V17.3703L35.3601 15.9918C33.5458 15.4301 31.6933 15.1584 29.7939 15.1584H21.6956C20.9335 15.1584 20.2501 14.5121 20.2501 13.75V12.2616C21.8507 11.858 25.2671 11.1432 28.7664 11.7063C29.437 11.8142 30.0853 11.3577 30.1934 10.6864C30.3013 10.015 29.8527 9.38331 29.1813 9.27526C23.9108 8.42685 18.9551 10.0791 18.6847 10.1711C18.6842 10.1712 18.6859 10.1714 18.6853 10.1716C18.684 10.1721 18.6831 10.1728 18.6821 10.173C18.6567 10.1818 18.6343 10.1917 18.6126 10.2021C18.5889 10.212 18.565 10.2201 18.5417 10.2314L8.4594 15.1547C8.04204 15.3583 7.57712 15.3342 7.1833 15.0882C6.78948 14.8421 6.56362 14.4348 6.56362 13.9705C6.56381 13.5347 6.77876 13.1279 7.1387 12.8821Z" fill="#003354"/>
<path d="M27.4162 21.3659C26.8318 21.0264 26.162 20.8416 25.4753 20.8416C23.3458 20.8416 21.6133 22.5741 21.6133 24.7037C21.6133 25.9668 22.4867 27.4088 24.2833 29.1123C25.4752 30.2422 26.6525 31.084 26.702 31.1193C26.9157 31.2715 27.1661 31.3476 27.4162 31.3476C27.6664 31.3476 27.9167 31.2715 28.1305 31.1193C28.1799 31.084 29.3573 30.2422 30.5492 29.1123C32.3458 27.409 33.2192 25.9669 33.2192 24.7037C33.2192 22.5742 31.4867 20.8416 29.3571 20.8416C28.6703 20.8416 28.0005 21.0264 27.4162 21.3659ZM30.7568 24.7039C30.7568 25.4874 29.1133 27.2356 27.4158 28.5769C25.7184 27.2375 24.0757 25.4902 24.0757 24.7039C24.0757 23.932 24.7036 23.3041 25.4754 23.3041C25.8726 23.3041 26.2395 23.4657 26.5082 23.7593C26.7414 24.0141 27.0708 24.1591 27.4163 24.1591C27.7616 24.1591 28.0911 24.0139 28.3243 23.7592C28.593 23.4657 28.9598 23.3041 29.357 23.3041C30.1288 23.3041 30.7568 23.9321 30.7568 24.7039Z" fill="#003354"/>
</svg>
