<svg width="140" height="140" viewBox="0 0 140 140" fill="none" xmlns="http://www.w3.org/2000/svg">
<path d="M20.7474 52.7769H34.2438C35.486 52.7769 36.4932 51.7697 36.4932 50.5275C36.4932 49.2852 35.486 48.2781 34.2438 48.2781H20.7474C19.5052 48.2781 18.498 49.2852 18.498 50.5275C18.498 51.7697 19.5052 52.7769 20.7474 52.7769Z" fill="#297A38"/>
<path d="M79.2318 48.2781H43.2416C41.9994 48.2781 40.9922 49.2852 40.9922 50.5275C40.9922 51.7697 41.9994 52.7769 43.2416 52.7769H79.2318C80.4741 52.7769 81.4812 51.7697 81.4812 50.5275C81.4812 49.2852 80.4741 48.2781 79.2318 48.2781Z" fill="#297A38"/>
<path d="M79.234 59.5253H65.7377C64.4954 59.5253 63.4883 60.5324 63.4883 61.7747C63.4883 63.0169 64.4954 64.0241 65.7377 64.0241H79.234C80.4762 64.0241 81.4834 63.0169 81.4834 61.7747C81.4834 60.5324 80.4762 59.5253 79.234 59.5253Z" fill="#297A38"/>
<path d="M20.7474 64.0241H56.7377C57.9799 64.0241 58.9871 63.0169 58.9871 61.7747C58.9871 60.5324 57.9799 59.5253 56.7377 59.5253H20.7474C19.5052 59.5253 18.498 60.5324 18.498 61.7747C18.498 63.0169 19.5052 64.0241 20.7474 64.0241Z" fill="#297A38"/>
<path d="M79.2316 37.0303H20.7474C19.5052 37.0303 18.498 38.0374 18.498 39.2797C18.498 40.5219 19.5052 41.5291 20.7474 41.5291H79.2316C80.4739 41.5291 81.481 40.5219 81.481 39.2797C81.481 38.0374 80.4739 37.0303 79.2316 37.0303Z" fill="#297A38"/>
<path d="M79.2316 70.7705H20.7474C19.5052 70.7705 18.498 71.7777 18.498 73.0199C18.498 74.2621 19.5052 75.2693 20.7474 75.2693H79.2316C80.4739 75.2693 81.481 74.2621 81.481 73.0199C81.481 71.7777 80.4739 70.7705 79.2316 70.7705Z" fill="#297A38"/>
<path d="M79.2299 23.5348H20.7457C12.0637 23.5348 5 30.5984 5 39.2805V73.0214C5 80.9401 10.8757 87.5123 18.4963 88.6069V96.8329C18.4963 98.6591 19.5865 100.291 21.2735 100.989C21.8336 101.221 22.4193 101.334 22.9999 101.334C24.1682 101.334 25.3137 100.877 26.1763 100.014L37.4233 88.7672H79.2299C87.912 88.7672 94.9757 81.7035 94.9757 73.0214V39.2805C94.9757 30.5984 87.912 23.5348 79.2299 23.5348ZM90.4769 73.0214C90.4769 79.223 85.4315 84.2684 79.2299 84.2684H36.4915C35.8948 84.2684 35.3226 84.5054 34.9009 84.9272L22.9951 96.8312V86.5178C22.9951 85.2755 21.988 84.2684 20.7457 84.2684C14.5442 84.2684 9.49878 79.223 9.49878 73.0214V39.2805C9.49878 33.079 14.5442 28.0336 20.7457 28.0336H79.2299C85.4315 28.0336 90.4769 33.079 90.4769 39.2805V73.0214Z" fill="#297A38"/>
<circle cx="103.933" cy="92.541" r="29.6216" fill="#297A38" stroke="#297A38" stroke-width="2.76243"/>
<rect width="6.62588" height="33.1359" rx="3.31294" transform="matrix(0.894347 0 -0.00175036 0.894345 102.074 71.697)" fill="white"/>
<circle cx="105" cy="107" r="3" fill="white"/>
</svg>
