<svg width="141" height="140" viewBox="0 0 141 140" fill="none" xmlns="http://www.w3.org/2000/svg">
<circle cx="109.003" cy="31.0028" r="29.6216" fill="#297A38" stroke="#297A38" stroke-width="2.76243"/>
<rect width="6.62588" height="33.1359" rx="3.31294" transform="matrix(0.894347 0 -0.00175036 0.894345 107.145 10.1592)" fill="white"/>
<circle cx="110.07" cy="45.4619" r="3" fill="white"/>
<path d="M98.7445 88.5286H89.0852H20.8745C13.224 88.5286 7 94.7528 7 102.403C7 110.054 13.2242 116.278 20.8745 116.278H29.0069L27.9573 117.13C26.7487 118.112 26.2048 119.667 26.5378 121.188C26.8707 122.71 28.0145 123.895 29.5229 124.282L30.068 124.422L27.3779 134.904C27.048 136.189 27.8225 137.498 29.1076 137.828L37.2777 139.925C37.4744 139.975 37.675 140 37.8749 140C38.3016 140 38.7246 139.886 39.0979 139.666C39.6464 139.341 40.0435 138.812 40.2018 138.195L42.8922 127.713L43.4373 127.853C44.9457 128.24 46.519 127.752 47.5434 126.579C48.5677 125.406 48.8397 123.782 48.2535 122.339L45.7894 116.278H89.0852H98.7445V116.278C106.395 116.278 112.619 110.054 112.619 102.403C112.619 94.7528 106.395 88.5286 98.7445 88.5286ZM30.5884 122.394L30.5874 122.398C30.5879 122.396 30.5881 122.395 30.5886 122.393C30.5884 122.394 30.5884 122.394 30.5884 122.394ZM42.06 122.54C41.3583 122.359 40.6285 122.463 40.0046 122.832C39.3809 123.201 38.9384 123.79 38.7587 124.491L36.1452 134.674L32.6287 133.771L35.2419 123.59C35.4224 122.888 35.3186 122.157 34.9493 121.534C34.5801 120.91 33.9903 120.467 33.2903 120.289L32.0737 119.976L36.6269 116.278L39.6156 113.85L40.6025 116.278L43.2747 122.851L42.06 122.54ZM86.6826 111.473H43.8363L42.8451 109.035C42.5583 108.329 41.9543 107.802 41.2168 107.613C40.4788 107.423 39.6956 107.595 39.1047 108.075L34.9212 111.473H20.8745C15.8733 111.473 11.8047 107.404 11.8047 102.403C11.8047 97.4021 15.8735 93.3332 20.8745 93.3332H86.6828V111.473H86.6826ZM98.7445 111.473H91.4875V93.3332H98.7445C103.746 93.3332 107.814 97.4021 107.814 102.403C107.814 107.404 103.745 111.473 98.7445 111.473Z" fill="#297A38"/>
<path d="M100.138 96.899C99.3156 95.8583 97.8047 95.6813 96.764 96.5046C95.7231 97.3274 95.5468 98.8382 96.3696 99.8789L97.9875 101.925L96.3696 103.972C95.5468 105.013 95.7233 106.524 96.764 107.346C97.2051 107.695 97.7305 107.864 98.2523 107.864C98.9617 107.864 99.6641 107.552 100.138 106.952L102.935 103.415C103.625 102.542 103.625 101.309 102.935 100.436L100.138 96.899Z" fill="#297A38"/>
<path d="M21.6064 103.321C21.6665 103.467 21.7409 103.606 21.8274 103.736C21.9163 103.868 22.0172 103.991 22.1277 104.101C22.2382 104.212 22.3607 104.313 22.4929 104.399C22.6226 104.486 22.7619 104.56 22.9061 104.62C23.0526 104.68 23.2016 104.726 23.3553 104.757C23.5115 104.788 23.6676 104.805 23.8262 104.805C23.9823 104.805 24.1385 104.788 24.2946 104.757C24.4484 104.726 24.5997 104.68 24.7439 104.62C24.888 104.56 25.0297 104.486 25.1595 104.399C25.2892 104.313 25.4141 104.212 25.5246 104.101C25.6351 103.991 25.736 103.868 25.8225 103.736C25.909 103.606 25.9835 103.467 26.0435 103.321C26.1036 103.176 26.1492 103.025 26.1805 102.872C26.2117 102.718 26.2285 102.559 26.2285 102.403C26.2285 102.247 26.2117 102.088 26.1805 101.932C26.1492 101.781 26.1036 101.63 26.0435 101.483C25.9835 101.339 25.909 101.2 25.8225 101.07C25.736 100.937 25.6351 100.815 25.5246 100.704C25.4141 100.594 25.2892 100.493 25.1595 100.404C25.0297 100.318 24.888 100.243 24.7439 100.183C24.5997 100.123 24.4484 100.077 24.2946 100.046C23.5139 99.8902 22.6851 100.145 22.1277 100.704C22.0172 100.815 21.9163 100.937 21.8274 101.07C21.7409 101.2 21.6665 101.339 21.6064 101.483C21.5463 101.63 21.5007 101.781 21.4695 101.932C21.4382 102.088 21.4238 102.247 21.4238 102.403C21.4238 102.559 21.4382 102.718 21.4695 102.872C21.5007 103.025 21.5463 103.177 21.6064 103.321Z" fill="#297A38"/>
<path d="M34.3838 103.321C34.4438 103.467 34.5183 103.607 34.6048 103.736C34.6937 103.868 34.7946 103.991 34.9051 104.101C35.0156 104.212 35.1381 104.313 35.2702 104.399C35.3999 104.486 35.5393 104.56 35.6834 104.62C35.83 104.68 35.9813 104.726 36.1327 104.757C36.2888 104.788 36.4474 104.805 36.6035 104.805C36.7597 104.805 36.9182 104.788 37.072 104.757C37.2257 104.726 37.3771 104.68 37.5212 104.62C37.6678 104.56 37.8071 104.486 37.9368 104.399C38.0689 104.313 38.1915 104.212 38.302 104.101C38.4125 103.991 38.5134 103.868 38.5999 103.736C38.6863 103.607 38.7608 103.467 38.8209 103.321C38.8809 103.177 38.9266 103.025 38.9578 102.872C38.989 102.718 39.0059 102.559 39.0059 102.403C39.0059 102.247 38.989 102.088 38.9578 101.932C38.9266 101.781 38.8809 101.63 38.8209 101.483C38.7608 101.339 38.6863 101.2 38.5999 101.07C38.5134 100.938 38.4125 100.815 38.302 100.704C37.7446 100.145 36.9158 99.8901 36.1327 100.046C35.9813 100.077 35.83 100.123 35.6834 100.183C35.5393 100.243 35.3999 100.318 35.2702 100.404C35.1381 100.493 35.0156 100.594 34.9051 100.704C34.7946 100.815 34.6937 100.938 34.6048 101.07C34.5183 101.2 34.4438 101.339 34.3838 101.483C34.3237 101.63 34.278 101.781 34.2468 101.932C34.2156 102.088 34.2012 102.247 34.2012 102.403C34.2012 102.559 34.2156 102.718 34.2468 102.872C34.278 103.025 34.3237 103.177 34.3838 103.321Z" fill="#297A38"/>
<path d="M47.1615 103.321C47.2216 103.467 47.2961 103.607 47.3826 103.736C47.469 103.868 47.5699 103.991 47.6805 104.101C47.791 104.212 47.9135 104.313 48.0456 104.399C48.1753 104.486 48.3147 104.56 48.4612 104.62C48.6054 104.68 48.7567 104.726 48.9104 104.757C49.0642 104.788 49.2228 104.805 49.3789 104.805C49.5351 104.805 49.6936 104.788 49.8474 104.757C50.0011 104.726 50.1525 104.68 50.2966 104.62C50.4431 104.56 50.5825 104.486 50.7122 104.399C50.8443 104.313 50.9669 104.212 51.0774 104.101C51.1879 103.991 51.2888 103.868 51.3753 103.736C51.4617 103.607 51.5362 103.467 51.5963 103.321C51.6563 103.177 51.702 103.025 51.7332 102.872C51.7644 102.718 51.7812 102.559 51.7812 102.403C51.7812 102.247 51.7644 102.088 51.7332 101.932C51.7044 101.781 51.6563 101.63 51.5963 101.483C51.5362 101.339 51.4617 101.2 51.3753 101.07C51.2888 100.938 51.1879 100.815 51.0774 100.704C50.52 100.145 49.6888 99.8901 48.9104 100.046C48.7567 100.077 48.6054 100.123 48.4588 100.183C48.3147 100.243 48.1753 100.318 48.0456 100.404C47.9135 100.493 47.791 100.594 47.6805 100.704C47.5699 100.815 47.469 100.938 47.3826 101.07C47.2961 101.2 47.2216 101.339 47.1615 101.483C47.1015 101.63 47.0534 101.781 47.0246 101.932C46.9934 102.088 46.9766 102.247 46.9766 102.403C46.9766 102.559 46.9934 102.718 47.0246 102.872C47.0534 103.025 47.1015 103.177 47.1615 103.321Z" fill="#297A38"/>
<path d="M59.935 103.321C59.995 103.467 60.0695 103.607 60.156 103.736C60.2425 103.868 60.3434 103.991 60.4539 104.101C60.5644 104.212 60.6869 104.313 60.819 104.399C60.9488 104.486 61.0881 104.56 61.2347 104.62C61.3788 104.68 61.5301 104.726 61.6839 104.757C61.8376 104.788 61.9962 104.805 62.1523 104.805C62.3085 104.805 62.4671 104.788 62.6208 104.757C62.7746 104.726 62.9259 104.68 63.07 104.62C63.2166 104.56 63.3559 104.486 63.4856 104.399C63.6178 104.313 63.7403 104.212 63.8508 104.101C63.9613 103.991 64.0622 103.868 64.1487 103.736C64.2352 103.607 64.3097 103.467 64.3697 103.321C64.4298 103.177 64.4778 103.025 64.5066 102.872C64.5379 102.718 64.5547 102.559 64.5547 102.403C64.5547 102.247 64.5379 102.088 64.5066 101.932C64.4778 101.781 64.4298 101.63 64.3697 101.483C64.3097 101.339 64.2352 101.2 64.1487 101.07C64.0622 100.938 63.9613 100.815 63.8508 100.704C63.2935 100.145 62.4622 99.8901 61.6839 100.046C61.5301 100.077 61.3788 100.123 61.2347 100.183C61.0881 100.243 60.9488 100.318 60.819 100.404C60.6869 100.493 60.5644 100.594 60.4539 100.704C60.3434 100.815 60.2425 100.938 60.156 101.07C60.0695 101.2 59.995 101.339 59.935 101.483C59.8749 101.63 59.8293 101.781 59.798 101.932C59.7668 102.088 59.75 102.247 59.75 102.403C59.75 102.559 59.7668 102.718 59.798 102.872C59.8293 103.025 59.8749 103.177 59.935 103.321Z" fill="#297A38"/>
<path d="M72.7104 103.32C72.7704 103.467 72.8449 103.606 72.9314 103.736C73.0179 103.868 73.1188 103.99 73.2293 104.101C73.3398 104.212 73.4623 104.312 73.5944 104.399C73.7242 104.485 73.8635 104.56 74.01 104.62C74.1542 104.68 74.3055 104.725 74.4593 104.757C74.613 104.788 74.7716 104.805 74.9277 104.805C75.0839 104.805 75.2424 104.788 75.3986 104.757C75.5499 104.725 75.7013 104.68 75.8478 104.62C75.992 104.56 76.1313 104.485 76.261 104.399C76.3932 104.312 76.5157 104.212 76.6262 104.101C76.7367 103.99 76.8376 103.868 76.9265 103.736C77.013 103.606 77.0874 103.467 77.1475 103.32C77.2076 103.176 77.2532 103.025 77.2844 102.871C77.3157 102.717 77.3301 102.558 77.3301 102.403C77.3301 102.246 77.3157 102.088 77.2844 101.932C77.2532 101.78 77.2076 101.629 77.1475 101.482C77.0874 101.338 77.013 101.199 76.9265 101.069C76.8376 100.937 76.7367 100.814 76.6262 100.704C76.5157 100.593 76.3932 100.492 76.261 100.404C76.1313 100.317 75.992 100.243 75.8478 100.183C75.7013 100.123 75.5499 100.077 75.3986 100.046C75.0887 99.9832 74.7692 99.9832 74.4593 100.046C74.3055 100.077 74.1542 100.123 74.01 100.183C73.8635 100.243 73.7242 100.317 73.5944 100.404C73.4623 100.492 73.3398 100.593 73.2293 100.704C73.1188 100.814 73.0179 100.937 72.9314 101.069C72.8449 101.199 72.7704 101.338 72.7104 101.482C72.6503 101.629 72.6047 101.78 72.5734 101.932C72.5422 102.088 72.5254 102.246 72.5254 102.403C72.5254 102.558 72.5422 102.717 72.5734 102.871C72.6047 103.025 72.6503 103.176 72.7104 103.32Z" fill="#297A38"/>
<path d="M38.7309 77.7223C38.7897 77.7783 38.8505 77.8326 38.9154 77.8828C44.4319 82.1508 50.9537 84.5664 57.8758 84.9267C57.9251 84.9294 57.9746 84.9318 58.0238 84.9342C58.2434 84.9447 58.4637 84.9529 58.684 84.9594C58.7489 84.9613 58.8137 84.9637 58.8786 84.9654C59.1503 84.9716 59.4222 84.9757 59.6951 84.9757C59.9695 84.9757 60.2431 84.9716 60.5165 84.9654C60.579 84.964 60.6409 84.9616 60.7032 84.9596C60.929 84.9531 61.1541 84.9447 61.3789 84.9339C61.4222 84.9318 61.4652 84.9296 61.5082 84.9272C68.5437 84.5632 75.1528 82.0821 80.7202 77.6933C80.7966 77.633 80.8684 77.5679 80.9362 77.4996C88.7015 71.2653 93.6823 61.6982 93.6823 50.9881C93.6825 32.2469 78.4358 17 59.6951 17C40.9545 17 25.707 32.2469 25.707 50.9879C25.707 61.8256 30.8058 71.4945 38.7309 77.7223ZM62.8158 80.0036C62.6668 80.0192 62.5177 80.0336 62.3682 80.0471C62.2029 80.0622 62.0379 80.0773 61.8719 80.0896C61.5839 80.1105 61.2951 80.1273 61.0054 80.1398C60.9062 80.1444 60.8069 80.1477 60.7075 80.1511C60.3709 80.1624 60.0336 80.1706 59.6949 80.1706C59.3605 80.1706 59.0275 80.1626 58.695 80.1516C58.597 80.1482 58.4992 80.1446 58.4017 80.1405C58.1252 80.1285 57.8497 80.1127 57.5746 80.0932C57.4146 80.0817 57.2551 80.0677 57.0958 80.0536C56.9233 80.0384 56.7511 80.0221 56.5791 80.0041C56.3871 79.9837 56.1954 79.9625 56.0044 79.9383C55.9705 79.9339 55.9369 79.9289 55.903 79.9246C51.0602 79.2935 46.5868 77.471 42.7872 74.7612V70.4118C42.7872 64.6877 45.6301 59.6185 49.975 56.5313C52.6906 58.6535 56.1032 59.9231 59.8088 59.9231C63.5144 59.9231 66.9272 58.6537 69.6425 56.5313C73.9874 59.6185 76.8303 64.6877 76.8303 70.4118V74.5947H76.8306C72.809 77.522 68.0149 79.4484 62.8158 80.0036ZM59.6951 21.8047C75.7868 21.8047 88.8783 34.896 88.8783 50.9879C88.8783 58.3443 86.1411 65.0728 81.6331 70.2109C81.5694 63.1963 78.1807 56.962 72.9693 53.0109C74.7597 50.4269 75.8125 47.295 75.8125 43.9202C75.8125 43.1262 75.7536 42.3277 75.6373 41.5467C75.442 40.2345 74.2207 39.3291 72.9075 39.5241C71.5951 39.7194 70.6897 40.9413 70.885 42.2537C70.9664 42.8012 71.0078 43.3619 71.0078 43.9202C71.0078 46.3953 70.1991 48.6845 68.8341 50.5403C67.7266 52.0461 66.2523 53.2648 64.5438 54.0653C63.1048 54.7396 61.5007 55.1187 59.8095 55.1187C58.1182 55.1187 56.5142 54.7396 55.0752 54.0653C53.3666 53.2648 51.8923 52.0461 50.7848 50.5403C49.4198 48.6845 48.6112 46.3955 48.6112 43.9202C48.6112 37.7454 53.6348 32.7219 59.8095 32.7219C60.6594 32.7219 61.5058 32.817 62.3255 33.0051C63.6201 33.3028 64.9077 32.4937 65.2039 31.2002C65.5004 29.9071 64.6925 28.6185 63.3993 28.322C62.2282 28.0534 61.0203 27.9172 59.8097 27.9172C50.9857 27.9172 43.8068 35.0961 43.8068 43.9202C43.8068 47.295 44.8595 50.4269 46.6499 53.0109C41.3886 56.9997 37.9835 63.3152 37.9835 70.4118V70.4651C33.3407 65.2957 30.512 58.4664 30.512 50.9879C30.5117 34.896 43.6033 21.8047 59.6951 21.8047Z" fill="#297A38"/>
<path d="M67.5619 35.5868C67.622 35.7309 67.6965 35.8703 67.7829 36C67.8694 36.1321 67.9703 36.2547 68.0808 36.3652C68.1913 36.4783 68.3139 36.5768 68.446 36.6655C68.5757 36.7519 68.7151 36.8267 68.8616 36.8867C69.0057 36.9468 69.1571 36.9922 69.3108 37.0234C69.4646 37.0546 69.6231 37.0691 69.7793 37.0691C69.9354 37.0691 70.094 37.0544 70.2477 37.0234C70.4015 36.9922 70.5528 36.9468 70.6994 36.8867C70.8435 36.8267 70.9829 36.7519 71.1126 36.6655C71.2447 36.5768 71.3672 36.4783 71.4777 36.3652C71.5883 36.2547 71.6892 36.1321 71.7756 36C71.8621 35.8703 71.9366 35.7309 71.9967 35.5868C72.0567 35.4403 72.1048 35.2913 72.1336 35.1376C72.1648 34.9814 72.1816 34.8253 72.1816 34.6667C72.1816 34.5106 72.1648 34.3518 72.1336 34.1982C72.1048 34.0445 72.0567 33.8929 71.9967 33.749C71.9366 33.6051 71.8621 33.4634 71.7756 33.3336C71.6892 33.2013 71.5883 33.0788 71.4777 32.9683C71.3672 32.8577 71.2447 32.7568 71.1126 32.6704C70.9829 32.5841 70.8435 32.5094 70.6994 32.4493C70.5528 32.3893 70.4015 32.3439 70.2477 32.3127C69.9378 32.2499 69.6207 32.2499 69.3108 32.3127C69.1571 32.3439 69.0057 32.3893 68.8616 32.4493C68.7151 32.5094 68.5757 32.5841 68.446 32.6704C68.3139 32.7568 68.1913 32.8577 68.0808 32.9683C67.9703 33.0788 67.8694 33.2013 67.7829 33.3336C67.6965 33.4634 67.622 33.6051 67.5619 33.749C67.5019 33.8929 67.4562 34.0445 67.425 34.1982C67.3938 34.352 67.377 34.5106 67.377 34.6667C67.377 34.8253 67.3938 34.9814 67.425 35.1376C67.4562 35.2913 67.5019 35.4403 67.5619 35.5868Z" fill="#297A38"/>
</svg>
