<svg xmlns="http://www.w3.org/2000/svg" width="340" height="76" viewBox="0 0 340 76">
  <defs>
    <linearGradient id="logo-li-a" x1="0%" x2="100%" y1="0%" y2="0%">
      <stop offset="0%" stop-color="#004A4D"/>
      <stop offset="100%" stop-color="#03767B"/>
    </linearGradient>
    <linearGradient id="logo-li-b" x1="0%" x2="100%" y1="0%" y2="0%">
      <stop offset="0%" stop-color="#004A4D"/>
      <stop offset="100%" stop-color="#03767B"/>
    </linearGradient>
    <linearGradient id="logo-li-c" x1="0%" x2="100%" y1="0%" y2="0%">
      <stop offset="0%" stop-color="#297A38"/>
      <stop offset="100%" stop-color="#42AA56"/>
    </linearGradient>
    <linearGradient id="logo-li-d" x1="0%" x2="100%" y1="0%" y2="0%">
      <stop offset="0%" stop-color="#297A38"/>
      <stop offset="100%" stop-color="#42AA56"/>
    </linearGradient>
  </defs>
  <g fill="none">
    <path fill="url(#logo-li-a)" d="M29.0054,37.8675 C28.1145,35.0794 26.6326,32.51625 24.66075,30.35305 C22.68895,28.18985 20.2737,26.47755 17.57975,25.3329 C6.62215,29.93165 6.08295,33.83855 8.59595,38.92565 C15.7179,41.5404 25.4851,41.36745 30.66375,46.3528 C30.80725,46.4983 30.94305,46.6511 31.07075,46.81065 L30.8571,46.5461 C30.425,43.6168 29.80655,40.71805 29.0054,37.8675 Z"/>
    <path fill="url(#logo-li-b)" d="M75.644,24.2544 C75.644,24.12215 75.5625,24.00005 75.5115,23.87795 C75.4165,23.57275 75.315,23.2777 75.2065,22.9928 C75.2065,22.8504 75.084,22.7181 75.0335,22.5757 C74.9825,22.43325 74.8095,22.06695 74.6875,21.8228 C74.5655,21.5786 74.545,21.56845 74.484,21.43615 C74.423,21.3039 74.2295,20.97835 74.087,20.7545 C73.9445,20.53065 73.9345,20.5205 73.853,20.3984 C73.7715,20.2763 73.558,19.9711 73.4055,19.7676 L73.1615,19.4929 C72.9885,19.2894 72.8155,19.08595 72.632,18.9028 L72.388,18.64845 C72.1845,18.45515 71.971,18.272 71.7575,18.08885 L71.5335,17.9057 C71.289,17.709 71.035,17.5259 70.7705,17.3563 L70.6075,17.2444 C70.292,17.0511 69.9665,16.8578 69.59,16.695 C66.5185,15.32445 63.158,14.72715 59.8025,14.9552 C60.281,25.53635 57.0455,46.23065 49.9438,59.264 C51.2155,62.5805 52.8945,65.114 55.3665,65.948 C59.4365,67.322 63.7605,64.371 67.24,60.861 C72.2455,50.758 75.176,37.12475 76,25.689 C75.898,25.13955 75.776,24.6919 75.644,24.2544 Z"/>
    <path fill="url(#logo-li-c)" d="M67.24,60.78 C63.7605,64.3205 59.4365,67.2605 55.377,65.867 C52.9045,65.0325 51.2155,62.499 49.9438,59.1725 C46.69825,50.7175 46.14885,37.1553 42.2928,33.59435 C37.42955,29.10755 20.8151,25.8111 17.7018,25.23115 L17.61025,25.23115 C20.30905,26.3902 22.725,28.1198 24.692,30.3011 C26.659,32.48235 28.1305,35.06365 29.0053,37.8675 C29.8065,40.71805 30.42495,43.6168 30.85705,46.5461 L31.0707,46.8106 L31.1521,46.9022 C31.28435,47.07515 31.4166,47.2583 31.5387,47.4516 C36.2595,54.828 31.1521,76.275 50.483,75.5325 C57.483,75.2575 63.089,69.2345 67.25,60.7695 L67.24,60.78 Z"/>
    <path fill="url(#logo-li-d)" d="M76.244,18.1601 C76.244,17.01045 76.244,15.8913 76.122,14.83315 C75.7865,9.74605 74.83,5.89005 73.2325,4.14009 C63.689,-6.319 3.407085,4.231655 0.3955245,22.44345 C-1.211995,32.1598 2.2574,36.3007 7.59885,38.539 L8.61625,38.91545 C6.10325,33.82835 6.64245,29.9215 17.6001,25.32275 L17.41695,25.25155 L17.21345,25.1803 L17.72215,25.2719 C21.4299,23.7711 25.213,22.46365 29.0562,21.3548 C42.0385,17.4988 52.243,15.06715 59.823,14.9044 C63.1785,14.6763 66.539,15.27365 69.6105,16.64415 C69.9465,16.80695 70.272,17.00025 70.628,17.19355 L70.7905,17.3055 C71.0555,17.48185 71.3095,17.665 71.554,17.8549 L71.7775,18.03805 C71.9915,18.22115 72.205,18.4043 72.4085,18.5976 L72.6525,18.85195 C72.836,19.0351 73.0085,19.2386 73.1815,19.44205 L73.426,19.7371 C73.5785,19.9406 73.731,20.15425 73.8735,20.3679 C74.016,20.5816 74.0365,20.6019 74.1075,20.724 C74.1785,20.8461 74.372,21.1717 74.5045,21.4057 C74.6365,21.6397 74.647,21.66005 74.708,21.7923 C74.769,21.92455 74.942,22.29085 75.0535,22.5452 C75.1655,22.79955 75.176,22.8199 75.2265,22.96235 C75.2775,23.1048 75.4405,23.54225 75.532,23.8475 C75.532,23.9696 75.6235,24.09165 75.664,24.22395 C75.7965,24.66145 75.9185,25.1091 76.0205,25.5771 C76.193,22.99285 76.2745,20.51035 76.244,18.1601 Z"/>
    <g fill="#003354" transform="translate(93)">
      <polygon points="1 28 19 28 19 26.226 3.022 26.226 3.022 1 1 1"/>
      <path d="M35.5,28 C43.7857215,28 50,22.0450594 50,14 C50,5.95493259 43.7857215,0 35.5,0 C27.1744625,0 21,5.9943736 21,14 C21,22.0056184 27.1744625,28 35.5,28 Z M35.5,26.1464731 C28.369549,26.1464731 23.031627,20.9803026 23.031627,13.999996 C23.031627,7.01973957 28.369549,1.85351886 35.5,1.85351886 C42.5906854,1.85351886 47.9286075,7.01973957 47.9286075,13.999996 C47.9286075,20.9803026 42.5906854,26.1464731 35.5,26.1464731 Z"/>
      <polygon points="85 28 84.961 1 83.309 1 71 21.867 58.691 1 57 1 57 28 58.966 28 58.966 4.973 70.489 24.413 71.472 24.413 82.995 4.896 83.034 28"/>
      <path d="M111.056274 14.0756989C113.757745 13.1885563 115.571765 11.1057146 115.571765 7.90427624 115.571765 3.42999729 112.059608 1 106.269903 1L95 1 95 28 107.041961 28C113.680491 28 117 25.4156744 117 20.8642834 117 17.1228345 114.87745 14.8085387 111.056274 14.0756989zM106.193137 2.69714269C110.863137 2.69714269 113.565098 4.5099987 113.565098 8.05857898 113.565098 11.6457251 110.863137 13.458537 106.193137 13.458537L96.9680402 13.458537 96.9680402 2.69714269 106.193137 2.69714269zM107.041961 26.3028171L96.9680402 26.3028171 96.9680402 15.1557199 107.041961 15.1557199C112.214117 15.1557199 115.031471 16.8528538 115.031471 20.7099806 115.031471 24.6056832 112.214117 26.3028171 107.041961 26.3028171zM144.863603 28L147 28 134.490686 1 132.509314 1 120 28 122.136889 28 125.5942 20.4014242 141.366921 20.4014242 144.863603 28zM126.371295 18.742817L133.480806 3.15999694 140.628705 18.742817 126.371295 18.742817zM173 28L166.244673 18.5499876C170.259041 17.3542886 172.575041 14.3842553 172.575041 10.1028449 172.575041 4.39428146 168.483408 1 161.689449 1L152 1 152 28 153.968796 28 153.968796 19.1671495 161.689449 19.1671495C162.615653 19.1671495 163.465082 19.0899982 164.31451 18.9742711L170.760776 28 173 28zM153.968796 17.4313909L153.968796 2.77428425 161.689449 2.77428425C167.479939 2.77428425 170.568102 5.4357121 170.568102 10.1028449 170.568102 14.7314364 167.479939 17.4313909 161.689449 17.4313909L153.968796 17.4313909zM180 28L190.670297 28C199.22176 28 205 22.3685388 205 14.4999823 205 6.63142585 199.22176 1 190.670297 1L180 1 180 28zM181.964631 26.2256657L181.964631 2.77428425 190.516094 2.77428425C198.143312 2.77428425 203.035369 7.63429552 203.035369 14.4999823 203.035369 21.3657182 198.143312 26.2256657 190.516094 26.2256657L181.964631 26.2256657z"/>
      <polygon points="213 28 215 28 215 1 213 1"/>
      <path d="M244.863111,28 L247,28 L234.490686,1 L232.509314,1 L220,28 L222.136889,28 L225.5942,20.4014242 L241.366921,20.4014242 L244.863111,28 Z M226.371295,18.742817 L233.480806,3.15999694 L240.628705,18.742817 L226.371295,18.742817 Z"/>
      <polygon points="0 75 4 75 4 48 0 48"/>
      <polygon points="32.179 48 32.179 68.134 16.133 48 13 48 13 75 16.821 75 16.821 54.866 32.867 75 36 75 36 48"/>
      <polygon points="64 51.356 64 48 45 48 45 75 48.846 75 48.846 64.084 62.346 64.084 62.346 60.767 48.846 60.767 48.846 51.356"/>
      <path d="M81.5387628 76C89.8414071 76 96 70.0558504 96 61.9999502 96 53.9440501 89.8414071 48 81.5387628 48 73.1585929 48 67 53.9833593 67 61.9999502 67 70.0165411 73.1585929 76 81.5387628 76zM81.5387628 72.5193934C75.4191796 72.5193934 70.8975123 68.0610323 70.8975123 61.9999502 70.8975123 55.9383706 75.4191796 51.4805071 81.5387628 51.4805071 87.5808204 51.4805071 92.1024877 55.9383706 92.1024877 61.9999502 92.1024877 68.0610323 87.5808204 72.5193934 81.5387628 72.5193934zM124 75L117.670538 65.9357238C121.407162 64.585579 123.542099 61.5770775 123.542099 57.4113091 123.542099 51.5484121 119.348058 48 112.409028 48L102 48 102 75 105.812457 75 105.812457 66.784288 112.409028 66.784288C112.980921 66.784288 113.552814 66.7455161 114.086548 66.7072351L119.844117 75 124 75zM112.294553 63.5058558L105.812457 63.5058558 105.812457 51.3555343 112.294553 51.3555343C117.174962 51.3555343 119.729642 53.5542434 119.729642 57.4113091 119.729642 61.2683748 117.174962 63.5058558 112.294553 63.5058558z"/>
      <polygon points="160 75 159.961 48 156.769 48 145.558 66.977 134.192 48 131 48 131 75 134.737 75 134.737 55.444 144.585 71.722 146.376 71.722 156.224 55.328 156.263 75"/>
      <path d="M188.85128,75 L193,75 L180.435719,48 L176.524741,48 L164,75 L168.06964,75 L171.111734,68.2497669 L185.809185,68.2497669 L188.85128,75 Z M172.494641,65.1642124 L178.46071,51.9341678 L184.426278,65.1642124 L172.494641,65.1642124 Z"/>
    </g>
  </g>
</svg>
