<svg width="169" height="56" viewBox="0 0 169 56" fill="none" xmlns="http://www.w3.org/2000/svg">
<path d="M48.2213 22V4.72H49.8533V20.608H59.1173V22H48.2213ZM66.2853 22.336C65.4853 22.32 64.7333 22.176 64.0293 21.904C63.3413 21.632 62.7333 21.224 62.2053 20.68C61.6933 20.136 61.2853 19.456 60.9813 18.64C60.6773 17.824 60.5253 16.872 60.5253 15.784C60.5253 14.872 60.6453 14.024 60.8853 13.24C61.1253 12.44 61.4853 11.744 61.9653 11.152C62.4453 10.56 63.0453 10.096 63.7653 9.76C64.4853 9.408 65.3253 9.232 66.2853 9.232C67.2613 9.232 68.1093 9.408 68.8293 9.76C69.5493 10.096 70.1493 10.56 70.6293 11.152C71.1093 11.728 71.4613 12.416 71.6853 13.216C71.9253 14.016 72.0453 14.872 72.0453 15.784C72.0453 16.776 71.9093 17.672 71.6373 18.472C71.3653 19.272 70.9733 19.96 70.4613 20.536C69.9653 21.112 69.3573 21.56 68.6373 21.88C67.9333 22.184 67.1493 22.336 66.2853 22.336ZM70.5093 15.784C70.5093 15.048 70.4293 14.36 70.2693 13.72C70.1093 13.08 69.8613 12.528 69.5253 12.064C69.1893 11.584 68.7573 11.208 68.2293 10.936C67.7013 10.664 67.0533 10.528 66.2853 10.528C65.5333 10.528 64.8853 10.68 64.3413 10.984C63.8133 11.272 63.3813 11.664 63.0453 12.16C62.7093 12.64 62.4613 13.2 62.3013 13.84C62.1413 14.464 62.0613 15.112 62.0613 15.784C62.0613 16.552 62.1493 17.264 62.3253 17.92C62.5173 18.56 62.7893 19.112 63.1413 19.576C63.4933 20.04 63.9333 20.4 64.4613 20.656C64.9893 20.912 65.5973 21.04 66.2853 21.04C67.0373 21.04 67.6773 20.896 68.2053 20.608C68.7493 20.304 69.1893 19.904 69.5253 19.408C69.8613 18.912 70.1093 18.352 70.2693 17.728C70.4293 17.104 70.5093 16.456 70.5093 15.784ZM75.9252 22H74.4852V9.568H75.9252V11.44H75.9732C76.3412 10.72 76.8692 10.176 77.5572 9.808C78.2452 9.424 78.9972 9.232 79.8132 9.232C80.3892 9.232 80.8772 9.296 81.2772 9.424C81.6772 9.552 82.0132 9.728 82.2852 9.952C82.5732 10.16 82.8052 10.408 82.9812 10.696C83.1732 10.984 83.3332 11.296 83.4612 11.632C83.8772 10.816 84.4292 10.216 85.1172 9.832C85.8212 9.432 86.6212 9.232 87.5172 9.232C88.3652 9.232 89.0372 9.376 89.5332 9.664C90.0452 9.936 90.4372 10.304 90.7092 10.768C90.9812 11.216 91.1572 11.736 91.2372 12.328C91.3332 12.92 91.3812 13.528 91.3812 14.152V22H89.9412V13.408C89.9412 12.512 89.7492 11.808 89.3652 11.296C88.9972 10.784 88.3012 10.528 87.2772 10.528C86.7492 10.528 86.2372 10.648 85.7412 10.888C85.2612 11.112 84.8372 11.464 84.4692 11.944C84.3092 12.152 84.1732 12.4 84.0612 12.688C83.9652 12.96 83.8852 13.248 83.8212 13.552C83.7572 13.856 83.7092 14.16 83.6772 14.464C83.6612 14.768 83.6532 15.048 83.6532 15.304V22H82.2132V13.408C82.2132 12.512 82.0212 11.808 81.6372 11.296C81.2692 10.784 80.5732 10.528 79.5492 10.528C79.0212 10.528 78.5092 10.648 78.0132 10.888C77.5332 11.112 77.1092 11.464 76.7412 11.944C76.5812 12.152 76.4452 12.4 76.3332 12.688C76.2372 12.96 76.1572 13.248 76.0932 13.552C76.0292 13.856 75.9812 14.16 75.9492 14.464C75.9332 14.768 75.9252 15.048 75.9252 15.304V22ZM96.2774 15.736C96.2774 16.488 96.3654 17.192 96.5414 17.848C96.7334 18.488 97.0054 19.048 97.3574 19.528C97.7094 19.992 98.1494 20.36 98.6774 20.632C99.2054 20.904 99.8054 21.04 100.477 21.04C101.085 21.04 101.645 20.936 102.157 20.728C102.669 20.504 103.117 20.184 103.501 19.768C103.885 19.352 104.181 18.848 104.389 18.256C104.613 17.648 104.725 16.952 104.725 16.168C104.757 15.384 104.693 14.656 104.533 13.984C104.373 13.296 104.117 12.696 103.765 12.184C103.413 11.672 102.957 11.272 102.397 10.984C101.853 10.68 101.213 10.528 100.477 10.528C99.8214 10.528 99.2294 10.672 98.7014 10.96C98.1894 11.232 97.7494 11.608 97.3814 12.088C97.0294 12.552 96.7574 13.104 96.5654 13.744C96.3734 14.368 96.2774 15.032 96.2774 15.736ZM96.2774 22H94.8374V4.72H96.2774V11.56C96.7414 10.792 97.3734 10.216 98.1734 9.832C98.9894 9.432 99.8374 9.232 100.717 9.232C101.661 9.232 102.477 9.416 103.165 9.784C103.869 10.136 104.445 10.616 104.893 11.224C105.357 11.816 105.701 12.512 105.925 13.312C106.149 14.112 106.261 14.944 106.261 15.808C106.261 16.72 106.157 17.576 105.949 18.376C105.741 19.176 105.405 19.872 104.941 20.464C104.493 21.04 103.917 21.496 103.213 21.832C102.509 22.168 101.653 22.336 100.645 22.336C100.245 22.336 99.8374 22.28 99.4214 22.168C99.0054 22.056 98.5974 21.896 98.1974 21.688C97.8134 21.48 97.4534 21.224 97.1174 20.92C96.7974 20.6 96.5334 20.232 96.3254 19.816H96.2774V22ZM117.477 15.472C116.869 15.728 116.253 15.896 115.629 15.976C115.005 16.056 114.381 16.12 113.757 16.168C112.653 16.248 111.789 16.496 111.165 16.912C110.557 17.328 110.253 17.96 110.253 18.808C110.253 19.192 110.325 19.528 110.469 19.816C110.629 20.088 110.829 20.32 111.069 20.512C111.325 20.688 111.613 20.824 111.933 20.92C112.269 21 112.605 21.04 112.941 21.04C113.517 21.04 114.077 20.968 114.621 20.824C115.165 20.68 115.645 20.464 116.061 20.176C116.493 19.872 116.837 19.496 117.093 19.048C117.349 18.584 117.477 18.04 117.477 17.416V15.472ZM115.053 14.752C115.325 14.72 115.645 14.672 116.013 14.608C116.397 14.544 116.709 14.456 116.949 14.344C117.189 14.232 117.333 14.048 117.381 13.792C117.445 13.52 117.477 13.272 117.477 13.048C117.477 12.312 117.237 11.712 116.757 11.248C116.293 10.768 115.501 10.528 114.381 10.528C113.885 10.528 113.429 10.576 113.013 10.672C112.597 10.752 112.229 10.904 111.909 11.128C111.605 11.336 111.349 11.624 111.141 11.992C110.949 12.344 110.821 12.792 110.757 13.336H109.293C109.341 12.6 109.509 11.976 109.797 11.464C110.085 10.936 110.453 10.512 110.901 10.192C111.365 9.856 111.893 9.616 112.485 9.472C113.093 9.312 113.733 9.232 114.405 9.232C115.029 9.232 115.613 9.304 116.157 9.448C116.717 9.576 117.197 9.792 117.597 10.096C118.013 10.384 118.333 10.776 118.557 11.272C118.797 11.768 118.917 12.376 118.917 13.096V19.864C118.917 20.424 119.013 20.784 119.205 20.944C119.413 21.088 119.821 21.048 120.429 20.824V21.952C120.317 21.984 120.149 22.032 119.925 22.096C119.717 22.16 119.509 22.192 119.301 22.192C119.077 22.192 118.861 22.168 118.653 22.12C118.413 22.088 118.221 22.016 118.077 21.904C117.933 21.776 117.813 21.632 117.717 21.472C117.637 21.296 117.581 21.112 117.549 20.92C117.517 20.712 117.501 20.496 117.501 20.272C116.893 20.944 116.197 21.456 115.413 21.808C114.629 22.16 113.781 22.336 112.869 22.336C112.325 22.336 111.797 22.264 111.285 22.12C110.789 21.976 110.349 21.752 109.965 21.448C109.581 21.144 109.277 20.776 109.053 20.344C108.829 19.896 108.717 19.368 108.717 18.76C108.717 16.648 110.165 15.4 113.061 15.016L115.053 14.752ZM124.189 22H122.749V9.568H124.189V11.896H124.237C124.637 10.904 125.149 10.216 125.773 9.832C126.413 9.432 127.253 9.232 128.293 9.232V10.792C127.477 10.776 126.805 10.904 126.277 11.176C125.749 11.448 125.325 11.816 125.005 12.28C124.701 12.744 124.485 13.296 124.357 13.936C124.245 14.56 124.189 15.216 124.189 15.904V22ZM139.848 15.736C139.848 15.032 139.752 14.368 139.56 13.744C139.368 13.104 139.088 12.552 138.72 12.088C138.368 11.608 137.928 11.232 137.4 10.96C136.888 10.672 136.304 10.528 135.648 10.528C134.896 10.528 134.248 10.68 133.704 10.984C133.16 11.272 132.712 11.672 132.36 12.184C132.008 12.696 131.752 13.296 131.592 13.984C131.432 14.656 131.368 15.384 131.4 16.168C131.4 16.952 131.504 17.648 131.712 18.256C131.936 18.848 132.24 19.352 132.624 19.768C133.008 20.184 133.456 20.504 133.968 20.728C134.48 20.936 135.04 21.04 135.648 21.04C136.32 21.04 136.92 20.904 137.448 20.632C137.976 20.36 138.416 19.992 138.768 19.528C139.12 19.048 139.384 18.488 139.56 17.848C139.752 17.192 139.848 16.488 139.848 15.736ZM139.848 4.72H141.288V22H139.848V19.816H139.8C139.592 20.232 139.32 20.6 138.984 20.92C138.664 21.224 138.304 21.48 137.904 21.688C137.52 21.896 137.12 22.056 136.704 22.168C136.288 22.28 135.88 22.336 135.48 22.336C134.472 22.336 133.616 22.168 132.912 21.832C132.208 21.496 131.624 21.04 131.16 20.464C130.712 19.872 130.384 19.176 130.176 18.376C129.968 17.576 129.864 16.72 129.864 15.808C129.864 14.944 129.976 14.112 130.2 13.312C130.424 12.512 130.76 11.816 131.208 11.224C131.672 10.616 132.248 10.136 132.936 9.784C133.64 9.416 134.464 9.232 135.408 9.232C136.288 9.232 137.128 9.432 137.928 9.832C138.744 10.216 139.384 10.792 139.848 11.56V4.72ZM144.714 22V9.568H146.154V22H144.714ZM144.642 6.856V4.72H146.226V6.856H144.642ZM157.954 15.472C157.346 15.728 156.73 15.896 156.106 15.976C155.482 16.056 154.858 16.12 154.234 16.168C153.13 16.248 152.266 16.496 151.642 16.912C151.034 17.328 150.73 17.96 150.73 18.808C150.73 19.192 150.802 19.528 150.946 19.816C151.106 20.088 151.306 20.32 151.546 20.512C151.802 20.688 152.09 20.824 152.41 20.92C152.746 21 153.082 21.04 153.418 21.04C153.994 21.04 154.554 20.968 155.098 20.824C155.642 20.68 156.122 20.464 156.538 20.176C156.97 19.872 157.314 19.496 157.57 19.048C157.826 18.584 157.954 18.04 157.954 17.416V15.472ZM155.53 14.752C155.802 14.72 156.122 14.672 156.49 14.608C156.874 14.544 157.186 14.456 157.426 14.344C157.666 14.232 157.81 14.048 157.858 13.792C157.922 13.52 157.954 13.272 157.954 13.048C157.954 12.312 157.714 11.712 157.234 11.248C156.77 10.768 155.978 10.528 154.858 10.528C154.362 10.528 153.906 10.576 153.49 10.672C153.074 10.752 152.706 10.904 152.386 11.128C152.082 11.336 151.826 11.624 151.618 11.992C151.426 12.344 151.298 12.792 151.234 13.336H149.77C149.818 12.6 149.986 11.976 150.274 11.464C150.562 10.936 150.93 10.512 151.378 10.192C151.842 9.856 152.37 9.616 152.962 9.472C153.57 9.312 154.21 9.232 154.882 9.232C155.506 9.232 156.09 9.304 156.634 9.448C157.194 9.576 157.674 9.792 158.074 10.096C158.49 10.384 158.81 10.776 159.034 11.272C159.274 11.768 159.394 12.376 159.394 13.096V19.864C159.394 20.424 159.49 20.784 159.682 20.944C159.89 21.088 160.298 21.048 160.906 20.824V21.952C160.794 21.984 160.626 22.032 160.402 22.096C160.194 22.16 159.986 22.192 159.778 22.192C159.554 22.192 159.338 22.168 159.13 22.12C158.89 22.088 158.698 22.016 158.554 21.904C158.41 21.776 158.29 21.632 158.194 21.472C158.114 21.296 158.058 21.112 158.026 20.92C157.994 20.712 157.978 20.496 157.978 20.272C157.37 20.944 156.674 21.456 155.89 21.808C155.106 22.16 154.258 22.336 153.346 22.336C152.802 22.336 152.274 22.264 151.762 22.12C151.266 21.976 150.826 21.752 150.442 21.448C150.058 21.144 149.754 20.776 149.53 20.344C149.306 19.896 149.194 19.368 149.194 18.76C149.194 16.648 150.642 15.4 153.538 15.016L155.53 14.752ZM51.4102 50H47.8242V32.7266H51.4102V50ZM61.5938 36.9219C62.9141 36.9219 63.9922 37.2695 64.8281 37.9648C65.6719 38.6523 66.0938 39.7969 66.0938 41.3984V50H62.6719V42.2305C62.6719 41.5586 62.582 41.043 62.4023 40.6836C62.0742 40.0273 61.4492 39.6992 60.5273 39.6992C59.3945 39.6992 58.6172 40.1797 58.1953 41.1406C57.9766 41.6484 57.8672 42.2969 57.8672 43.0859V50H54.5391V37.25H57.7617V39.1133C58.1914 38.457 58.5977 37.9844 58.9805 37.6953C59.668 37.1797 60.5391 36.9219 61.5938 36.9219ZM73.8984 32.5508C74.1094 32.5508 74.3008 32.5586 74.4727 32.5742C74.6445 32.582 74.8789 32.5977 75.1758 32.6211V35.3398C74.9883 35.3164 74.6719 35.3008 74.2266 35.293C73.7891 35.2773 73.4844 35.375 73.3125 35.5859C73.1484 35.7891 73.0664 36.0156 73.0664 36.2656C73.0664 36.5156 73.0664 36.875 73.0664 37.3438H75.2578V39.6992H73.0664V50H69.7383V39.6992H67.875V37.3438H69.7031V36.5234C69.7031 35.1562 69.9336 34.2148 70.3945 33.6992C70.8789 32.9336 72.0469 32.5508 73.8984 32.5508ZM82.9102 47.6445C83.8867 47.6445 84.6367 47.2969 85.1602 46.6016C85.6836 45.9062 85.9453 44.918 85.9453 43.6367C85.9453 42.3555 85.6836 41.3711 85.1602 40.6836C84.6367 39.9883 83.8867 39.6406 82.9102 39.6406C81.9336 39.6406 81.1797 39.9883 80.6484 40.6836C80.125 41.3711 79.8633 42.3555 79.8633 43.6367C79.8633 44.918 80.125 45.9062 80.6484 46.6016C81.1797 47.2969 81.9336 47.6445 82.9102 47.6445ZM89.4492 43.6367C89.4492 45.5117 88.9102 47.1172 87.832 48.4531C86.7539 49.7812 85.1172 50.4453 82.9219 50.4453C80.7266 50.4453 79.0898 49.7812 78.0117 48.4531C76.9336 47.1172 76.3945 45.5117 76.3945 43.6367C76.3945 41.793 76.9336 40.1953 78.0117 38.8438C79.0898 37.4922 80.7266 36.8164 82.9219 36.8164C85.1172 36.8164 86.7539 37.4922 87.832 38.8438C88.9102 40.1953 89.4492 41.793 89.4492 43.6367ZM98.7891 36.9219C98.8516 36.9219 98.9023 36.9258 98.9414 36.9336C98.9883 36.9336 99.0859 36.9375 99.2344 36.9453V40.3672C99.0234 40.3438 98.8359 40.3281 98.6719 40.3203C98.5078 40.3125 98.375 40.3086 98.2734 40.3086C96.9297 40.3086 96.0273 40.7461 95.5664 41.6211C95.3086 42.1133 95.1797 42.8711 95.1797 43.8945V50H91.8164V37.2266H95.0039V39.4531C95.5195 38.6016 95.9688 38.0195 96.3516 37.707C96.9766 37.1836 97.7891 36.9219 98.7891 36.9219ZM115.477 36.9453C116.039 36.9453 116.594 37.0547 117.141 37.2734C117.688 37.4922 118.184 37.875 118.629 38.4219C118.988 38.8672 119.23 39.4141 119.355 40.0625C119.434 40.4922 119.473 41.1211 119.473 41.9492L119.449 50H116.027V41.8672C116.027 41.3828 115.949 40.9844 115.793 40.6719C115.496 40.0781 114.949 39.7812 114.152 39.7812C113.23 39.7812 112.594 40.1641 112.242 40.9297C112.062 41.3359 111.973 41.8242 111.973 42.3945V50H108.609V42.3945C108.609 41.6367 108.531 41.0859 108.375 40.7422C108.094 40.125 107.543 39.8164 106.723 39.8164C105.77 39.8164 105.129 40.125 104.801 40.7422C104.621 41.0938 104.531 41.6172 104.531 42.3125V50H101.145V37.25H104.391V39.1133C104.805 38.4492 105.195 37.9766 105.562 37.6953C106.211 37.1953 107.051 36.9453 108.082 36.9453C109.059 36.9453 109.848 37.1602 110.449 37.5898C110.934 37.9883 111.301 38.5 111.551 39.125C111.988 38.375 112.531 37.8242 113.18 37.4727C113.867 37.1211 114.633 36.9453 115.477 36.9453ZM129.598 43.7891C129.387 43.9219 129.172 44.0312 128.953 44.1172C128.742 44.1953 128.449 44.2695 128.074 44.3398L127.324 44.4805C126.621 44.6055 126.117 44.7578 125.812 44.9375C125.297 45.2422 125.039 45.7148 125.039 46.3555C125.039 46.9258 125.195 47.3398 125.508 47.5977C125.828 47.8477 126.215 47.9727 126.668 47.9727C127.387 47.9727 128.047 47.7617 128.648 47.3398C129.258 46.918 129.574 46.1484 129.598 45.0312V43.7891ZM127.57 42.2305C128.188 42.1523 128.629 42.0547 128.895 41.9375C129.371 41.7344 129.609 41.418 129.609 40.9883C129.609 40.4648 129.426 40.1055 129.059 39.9102C128.699 39.707 128.168 39.6055 127.465 39.6055C126.676 39.6055 126.117 39.8008 125.789 40.1914C125.555 40.4805 125.398 40.8711 125.32 41.3633H122.098C122.168 40.2461 122.48 39.3281 123.035 38.6094C123.918 37.4844 125.434 36.9219 127.582 36.9219C128.98 36.9219 130.223 37.1992 131.309 37.7539C132.395 38.3086 132.938 39.3555 132.938 40.8945V46.7539C132.938 47.1602 132.945 47.6523 132.961 48.2305C132.984 48.668 133.051 48.9648 133.16 49.1211C133.27 49.2773 133.434 49.4062 133.652 49.5078V50H130.02C129.918 49.7422 129.848 49.5 129.809 49.2734C129.77 49.0469 129.738 48.7891 129.715 48.5C129.254 49 128.723 49.4258 128.121 49.7773C127.402 50.1914 126.59 50.3984 125.684 50.3984C124.527 50.3984 123.57 50.0703 122.812 49.4141C122.062 48.75 121.688 47.8125 121.688 46.6016C121.688 45.0312 122.293 43.8945 123.504 43.1914C124.168 42.8086 125.145 42.5352 126.434 42.3711L127.57 42.2305Z" fill="#0C3754"/>
<g clip-path="url(#clip0)">
<path d="M16.5735 31.0346C14.9733 32.138 13.2188 32.9643 11.5636 33.968C9.02003 35.5077 6.41479 36.9722 4.6471 39.5178C3.11525 41.7244 2.26447 44.1149 2.87059 46.8532C3.59354 50.1189 6.57128 51.858 9.2691 51.991C13.6354 52.2059 17.3978 49.3612 20.2433 46.193C24.6603 41.2724 27.4573 36.405 29.3969 30.0421C30.6974 25.7751 31.3343 21.4172 30.4814 16.9751C29.8201 13.5256 28.0326 10.1714 25.5662 7.67008C25.4053 7.60805 25.7271 8.00684 25.6896 8.12426C25.7051 8.60059 25.9475 8.99716 26.1216 9.41368C27.0892 11.751 27.303 14.1393 26.8821 16.6694C26.0754 21.5169 23.512 25.219 19.9458 28.3384C19.1633 29.023 18.2927 29.5769 17.486 30.2238C17.2105 30.5251 17.1267 30.6536 16.5735 31.0346Z" fill="#297B38"/>
<path d="M17.0185 3.0996C14.4023 2.84925 11.7529 3.01763 9.31742 4.22285C5.37208 6.1747 2.7492 9.32956 1.52152 13.6431C0.329098 17.826 0.750081 21.8648 2.91892 25.5713C4.41991 28.1369 6.77609 29.4285 9.78909 29.0674C12.1298 28.7882 14.1334 26.8475 14.7439 24.5145C15.4095 21.9778 14.8872 19.6914 13.6022 17.4959C12.661 15.8941 12.0329 14.1527 11.8213 12.2739C11.9447 11.7932 11.8609 11.3102 11.8389 10.8294C11.7706 9.35615 11.9778 7.92272 12.5773 6.57792C13.3267 4.89858 14.5588 3.7864 16.3661 3.41642C16.6086 3.36767 16.8687 3.35438 17.0185 3.0996Z" fill="#297B38"/>
<path d="M17.0188 3.09961C13.6091 3.36547 11.8193 6.26554 11.6364 9.86572C11.5945 10.6699 11.5593 11.4897 11.8238 12.274C14.1381 11.5628 16.5648 12.4002 18.1583 14.5227C20.0693 17.0661 20.574 19.9972 20.2214 23.1232C19.926 25.7419 18.7799 28.1324 17.3208 30.4055C17.2414 30.5828 17.3296 30.4055 17.4993 30.4055C22.3946 27.0867 25.9961 22.8197 27.107 16.7382C27.6646 13.6897 27.2326 10.7541 25.7955 8.04237C25.6302 7.6613 25.4208 7.55053 25.2004 7.32233C23.7744 5.71389 22.1433 4.64824 20.1729 3.86395C19.1921 3.47403 18.0503 3.25912 17.0188 3.09961Z" fill="#03572A"/>
</g>
<defs>
<clipPath id="clip0">
<rect width="30" height="49" fill="white" transform="translate(0.867188 3)"/>
</clipPath>
</defs>
</svg>
