<svg width="40" height="40" viewBox="0 0 40 40" fill="none" xmlns="http://www.w3.org/2000/svg">
<path d="M15.9066 5.36785C12.1259 5.60179 9.51137 6.15435 7.78789 6.68398C6.85399 6.97969 6.02892 7.58257 5.3708 8.38141L15.9066 5.36785ZM15.9066 5.36785V5.3829L16.1718 5.36672C17.2888 5.29859 18.4802 5.25 19.8036 5.25C21.1269 5.25 22.3184 5.29859 23.4353 5.36672L23.7005 5.3829V5.36785C27.4813 5.60179 30.0958 6.15435 31.8193 6.68398C32.7532 6.9797 33.5783 7.5826 34.2364 8.38146C34.8855 9.17113 35.3571 10.152 35.3571 11.25V14.75H28.5146L28.4389 13.8463L28.4386 13.8433L28.1897 13.8672C28.4386 13.8433 28.4386 13.8432 28.4386 13.8432L28.4386 13.843L28.4385 13.8426L28.4384 13.8414L28.438 13.8371L28.4363 13.8213C28.4349 13.8077 28.4327 13.7879 28.4296 13.7624C28.4236 13.7113 28.4142 13.6373 28.4006 13.5437C28.3736 13.3564 28.33 13.0906 28.2634 12.7734C28.1306 12.1403 27.9053 11.2967 27.5349 10.4647L27.5344 10.4637C27.1651 9.64438 26.6523 8.83653 25.9867 8.2762C25.5053 7.86388 24.9528 7.54638 24.2347 7.41981L24.2238 7.41788L24.2127 7.41693C24.1769 7.41386 24.1457 7.41001 24.1104 7.40563C24.0943 7.40365 24.0775 7.40156 24.0589 7.39939C24.0094 7.39362 23.9541 7.38813 23.8925 7.38695C23.8704 7.38322 23.851 7.38091 23.8376 7.3793L23.8334 7.37879L23.828 7.37329L23.7922 7.37119L23.7766 7.36719H23.745C23.74 7.36719 23.7353 7.36733 23.7306 7.36759C22.5586 7.29901 21.2527 7.25 19.8036 7.25C18.3545 7.25 17.0485 7.29901 15.8765 7.36759C15.8719 7.36733 15.8671 7.36719 15.8622 7.36719H15.8479L15.8338 7.3688C15.8261 7.36968 15.8187 7.37054 15.8113 7.3714L15.7791 7.37329L15.777 7.37549C15.7395 7.38003 15.7058 7.38434 15.6741 7.3884C15.5793 7.40052 15.503 7.41029 15.4007 7.41647L15.3865 7.41733L15.3724 7.41981C14.6544 7.54638 14.1019 7.86388 13.6205 8.27619C12.9548 8.83652 12.442 9.64438 12.0728 10.4637L12.0723 10.4647C11.7018 11.2967 11.4765 12.1403 11.3437 12.7734C11.2772 13.0906 11.2335 13.3564 11.2065 13.5437C11.193 13.6373 11.1836 13.7113 11.1775 13.7624C11.1745 13.7879 11.1723 13.8077 11.1708 13.8213L11.1692 13.8371L11.1688 13.8414L11.1686 13.8426L11.1686 13.843L11.1686 13.8432C11.1686 13.8432 11.1686 13.8433 11.4051 13.866L11.1686 13.8433L11.1685 13.8442L11.0849 14.75H4.25V11.25C4.25 10.152 4.72165 9.17112 5.37077 8.38144L15.9066 5.36785ZM11.004 8.40178L11.3014 7.91474L10.7417 8.02631C9.80951 8.21215 8.97359 8.40928 8.35252 8.6086C7.85745 8.7536 7.2686 9.16829 6.84712 9.67391C6.4221 10.1838 6.18132 10.7853 6.18132 11.25V12.5V12.75H6.43132H9.29952H9.51512L9.5468 12.5367C9.56202 12.4343 9.57537 12.3315 9.58904 12.2261C9.67003 11.6021 9.76261 10.8887 10.3254 9.63353L10.3254 9.63354L10.327 9.62995C10.4991 9.22943 10.7455 8.82511 11.004 8.40178ZM28.8654 8.02631L28.3058 7.91474L28.6032 8.40178C28.8612 8.82425 29.1088 9.23041 29.2912 9.6334C29.8445 10.8853 29.9368 11.5983 30.0175 12.2214C30.0314 12.3284 30.0449 12.4328 30.0603 12.5367L30.092 12.75H30.3076H33.1758H33.4258V12.5V11.25C33.4258 10.7853 33.185 10.1838 32.76 9.67391C32.3383 9.16804 31.7493 8.75345 31.2642 8.60865C30.6343 8.40949 29.7985 8.21232 28.8654 8.02631ZM25.7405 17.8625L25.8498 17.9374L25.8501 17.9376L25.8644 17.9485C25.8772 17.9582 25.8964 17.9729 25.9216 17.9925C25.972 18.0316 26.0464 18.0899 26.1414 18.1662C26.3313 18.3189 26.6034 18.5434 26.9306 18.8295C27.5851 19.4021 28.4581 20.22 29.3327 21.2015C31.0842 23.1679 32.9258 25.7729 32.9258 28.75V31.25C32.9258 33.1791 31.3882 34.75 29.5288 34.75H10.0783C8.21895 34.75 6.68132 33.1791 6.68132 31.25V28.75C6.68132 25.773 8.52293 23.168 10.2835 21.2019L10.2844 21.201C11.1541 20.2197 12.0246 19.4019 12.6779 18.8294C13.0044 18.5433 13.2762 18.3188 13.466 18.1661C13.5609 18.0898 13.6352 18.0315 13.6856 17.9924C13.7108 17.9729 13.73 17.9582 13.7427 17.9485L13.757 17.9376L13.7573 17.9374L13.8666 17.8625L13.9753 17.788V17.6562V15.25H15.9066V17.5V17.75H16.1566H23.4505H23.7005V17.5V15.25H25.6319V17.6562V17.788L25.7405 17.8625ZM14.789 19.75H14.7009L14.6322 19.8052C14.6127 19.8209 14.5848 19.8428 14.5491 19.8708C14.1885 20.1529 13.0329 21.0572 11.6966 22.548L11.6958 22.5489C10.8976 23.4488 10.1301 24.4926 9.56092 25.5598C8.99351 26.6237 8.61264 27.7302 8.61264 28.75V31.25C8.61264 32.0846 9.2499 32.75 10.0783 32.75H29.5288C30.3572 32.75 30.9945 32.0846 30.9945 31.25V28.75C30.9945 27.7302 30.6136 26.6236 30.0449 25.5596C29.4745 24.4924 28.7046 23.4485 27.9016 22.5486C26.5724 21.056 25.4165 20.1513 25.0571 19.87C25.0218 19.8424 24.9942 19.8208 24.9749 19.8052L24.9063 19.75H24.8182H14.789ZM15.9066 24.75H13.9753V22.75H15.9066V24.75ZM20.7692 24.75H18.8379V22.75H20.7692V24.75ZM25.6319 24.75H23.7005V22.75H25.6319V24.75ZM15.9066 29.75H13.9753V27.75H15.9066V29.75ZM20.7692 29.75H18.8379V27.75H20.7692V29.75ZM25.6319 29.75H23.7005V27.75H25.6319V29.75Z" fill="#003354" stroke="#003354" stroke-width="0.5"/>
</svg>
