<svg width="81" height="101" viewBox="0 0 81 101" fill="none" xmlns="http://www.w3.org/2000/svg">
<g clip-path="url(#clip0)">
<path opacity="0.5" d="M37.7 69C56.7538 69 72.2 53.5538 72.2 34.5C72.2 15.4462 56.7538 0 37.7 0C18.6461 0 3.19995 15.4462 3.19995 34.5C3.19995 53.5538 18.6461 69 37.7 69Z" fill="#03767B" fill-opacity="0.33"/>
<path d="M18.8 35.1H61.5V32.5H18.8V35.1Z" fill="#03767B"/>
<path d="M18.8 40.4999H61.5V37.8999H18.8V40.4999Z" fill="#03767B"/>
<path d="M18.8 29.7001H61.5V27.1001H18.8V29.7001Z" fill="#03767B"/>
<path d="M48.9 75.2L44.1 73.4V70.5C45.3 69.8 46.3 68.8 47 67.5C47.7 66.3 48.1 64.9 48.1 63.5V62.1C48.5 62.1 48.8 62 49 61.7C49.3 61.4 49.4 61.1 49.4 60.7V58C49.4 55.5 48.4 53.1 46.7 51.3C44.9 49.5 42.6 48.5 40.1 48.5C37.6 48.5 35.2 49.5 33.5 51.3C31.7 53.1 30.8 55.5 30.8 58V60.7C30.8 61.1 30.9 61.4 31.2 61.7C31.5 62 31.8 62.1 32.1 62.1V63.5C32.1 64.9 32.5 66.3 33.2 67.5C33.9 68.7 34.9 69.7 36.1 70.5V73.4L31.3 75.2C29.6 75.9 28.1 77 27 78.6C26 80.1 25.4 81.9 25.4 83.8V85.2C25.4 85.6 25.5 85.9 25.8 86.2C26.1 86.5 26.4 86.6 26.7 86.6H53.4C53.8 86.6 54.1 86.5 54.3 86.2C54.6 85.9 54.7 85.6 54.7 85.2V83.8C54.7 81.9 54.1 80.1 53.1 78.6C52.1 77.1 50.7 75.9 48.9 75.2ZM33.4 58.1C33.4 56.3 34.1 54.6 35.4 53.3C36.7 52 38.4 51.3 40.1 51.3C41.9 51.3 43.6 52 44.8 53.3C46.1 54.6 46.8 56.3 46.8 58.1V59.5H46L43.7 57.2C43.5 57 43.2 56.8 42.9 56.8C42.6 56.8 42.3 56.8 42 57L38.3 59.5H33.4V58.1ZM34.8 62.2H38.8C39.1 62.2 39.3 62.1 39.5 62L42.6 59.9L44.5 61.8C44.8 62.1 45.1 62.2 45.4 62.2V63.6C45.4 65 44.8 66.4 43.8 67.4C42.8 68.4 41.4 69 40 69C38.6 69 37.2 68.4 36.2 67.4C35.2 66.4 34.6 65 34.6 63.6V62.2H34.8ZM40.1 71.6C40.5 71.6 41 71.6 41.4 71.5V73.8L40.1 75.1L38.8 73.8V71.5C39.2 71.6 39.7 71.6 40.1 71.6ZM28.1 83.8C28.1 82.5 28.5 81.2 29.2 80.1C29.9 79 31 78.2 32.2 77.7L37.1 75.8L39.2 78C39.5 78.3 39.8 78.4 40.1 78.4C40.4 78.4 40.8 78.3 41 78L43.1 75.9L48 77.7C49.2 78.2 50.3 79 51 80.1C51.7 81.2 52.1 82.5 52.1 83.8H28.1Z" fill="#004A4D"/>
<path d="M79.8 51.7999L74.5 46.3999C73.7 45.5999 72.2 46.1999 72.2 47.2999C72.2 47.6999 72.3 47.9999 72.6 48.2999L77 52.6999L67.2 62.5999C67 62.8999 66.8 63.1999 66.8 63.4999V63.5999C66.8 64.7999 68.2 65.3999 69.1 64.4999L77.5 55.9999V95.9999C77.5 96.3999 77.4 96.6999 77.1 96.9999C76.8 97.2999 76.5 97.3999 76.2 97.3999H4C3.7 97.3999 3.3 97.2999 3.1 96.9999C2.9 96.6999 2.7 96.3999 2.7 95.9999V55.9999L11.1 64.4999C11.9 65.3999 13.4 64.7999 13.4 63.5999C13.4 63.1999 13.3 62.8999 13 62.6999L8.6 58.2999L3.2 52.7999L7.6 48.3999C7.8 48.1999 8 47.7999 8 47.3999C8 46.5999 7.3 46.0999 6.7 46.0999C6.4 46.0999 6 46.1999 5.8 46.4999L0.4 51.8999C0.2 52.0999 0 52.4999 0 52.7999V95.9999C0 97.0999 0.4 98.0999 1.2 98.8999C2 99.6999 3 100.1 4 100.1H76.2C77.3 100.1 78.3 99.6999 79 98.8999C79.7 98.0999 80.2 96.9999 80.2 95.9999V52.6999C80.2 52.3999 80.1 51.9999 79.8 51.7999Z" fill="#004A4D"/>
<path d="M69.5 23V56.2C69.5 56.5 69.2999 56.9 69.0999 57.1C68.1999 58 66.8 57.4 66.8 56.2V23C66.8 22.6 66.6 22.3 66.4 22C66.2 21.7 65.7999 21.6 65.5 21.6H14.7C14.3 21.6 13.9 21.8 13.7 22C13.4 22.3 13.3 22.6 13.3 23V56.3C13.3 57.1 12.7 57.6 12 57.6C11.7 57.6 11.4 57.5 11.1 57.2C10.8 57 10.7 56.7 10.7 56.3V23.1C10.7 22 11.1 21 11.9 20.2C12.6 19.4 13.6 19 14.7 19H65.5C66.5 19 67.5 19.4 68.3 20.2C69.1 20.9 69.5 22 69.5 23Z" fill="#004A4D"/>
<path d="M40 43.3999C25.9 43.3999 14.5 54.7999 14.5 68.8999C14.5 82.9999 25.9 94.4999 40 94.4999C54.1 94.4999 65.6 83.0999 65.6 68.9999C65.6 54.8999 54.2 43.3999 40 43.3999ZM40 91.4999C27.5 91.4999 17.4 81.3999 17.4 68.8999C17.4 56.3999 27.5 46.2999 40 46.2999C52.5 46.2999 62.6 56.3999 62.6 68.8999C62.7 81.3999 52.5 91.4999 40 91.4999Z" fill="#004A4D"/>
</g>
<defs>
<clipPath id="clip0">
<rect width="80.2" height="100.1" fill="white"/>
</clipPath>
</defs>
</svg>
