<svg width="107" height="91" viewBox="0 0 107 91" fill="none" xmlns="http://www.w3.org/2000/svg">
<circle opacity="0.5" cx="52.5" cy="44.5007" r="34.5" fill="#03767B" fill-opacity="0.33"/>
<path d="M62.1177 77.4562H54.2301C53.1075 77.4562 52.1973 78.3661 52.1973 79.4889C52.1973 80.6117 53.1075 81.5217 54.2301 81.5217H62.1177C63.3351 81.5217 64.3255 82.5119 64.3255 83.7293C64.3255 84.9466 63.3353 85.9369 62.1177 85.9369H40.8847C37.6929 85.9369 34.6915 84.5296 32.6504 82.0759L27.5727 75.9725C24.8481 72.6974 20.8828 70.7793 16.64 70.6579V58.6498H24.1245C27.8156 58.6498 31.3105 60.0615 33.9657 62.6247L44.925 73.2032C45.6998 73.9511 45.7359 75.2034 45.0055 75.9947C44.261 76.8009 42.9973 76.8536 42.1884 76.1122L33.5843 68.2251C32.7571 67.4666 31.4711 67.5223 30.7126 68.3499C29.9539 69.1775 30.0098 70.4634 30.8374 71.2219L39.4415 79.109C40.6019 80.1726 42.0703 80.6979 43.5351 80.6979C45.1704 80.6979 46.801 80.0431 47.9929 78.752C50.2101 76.35 50.1005 72.5488 47.7486 70.2784L36.7893 59.6999C33.3721 56.4012 28.8744 54.5845 24.1245 54.5845H16.2452C15.4804 52.7744 13.6867 51.5007 11.6013 51.5007H2.03276C0.910157 51.5007 0 52.4107 0 53.5335V68.3979C0 69.5205 0.910157 70.4307 2.03276 70.4307C3.15536 70.4307 4.06552 69.5207 4.06552 68.3979V55.566H11.6015C12.1382 55.566 12.5747 56.0027 12.5747 56.5392V72.832C12.5747 73.3685 12.1382 73.8052 11.6015 73.8052H9.49027C8.36767 73.8052 7.45751 74.7151 7.45751 75.8379C7.45751 76.9605 8.36767 77.8707 9.49027 77.8707H11.6013C13.7148 77.8707 15.5272 76.5623 16.2743 74.7133C19.4432 74.7314 22.4193 76.1347 24.4474 78.5727L29.5251 84.676C32.3412 88.0611 36.4815 90.0024 40.8847 90.0024H62.1177C65.5766 90.0024 68.3909 87.1883 68.3909 83.7293C68.3909 80.2702 65.5766 77.4562 62.1177 77.4562Z" fill="#004A4D"/>
<path d="M44.3465 12.9511L52.2354 12.8979C53.3582 12.8904 54.2633 11.9754 54.2569 10.854C54.2505 9.73264 53.335 8.82996 52.2123 8.83752L44.3233 8.89068C43.1058 8.89888 42.1095 7.91655 42.1026 6.70074C42.0956 5.48493 43.0804 4.48924 44.2981 4.48103L65.5346 4.33795C68.7268 4.31644 71.7368 5.70166 73.7922 8.13861L78.9055 14.2001C81.6492 17.4527 85.626 19.3417 89.8702 19.4343L89.9387 31.4273L82.453 31.4778C78.7613 31.5026 75.2579 30.1163 72.5876 27.5742L61.5662 17.0828C60.7871 16.3411 60.7437 15.0906 61.4698 14.2954C62.2098 13.4852 63.4734 13.4241 64.2866 14.1591L72.9371 21.9783C73.7687 22.7303 75.0547 22.666 75.8086 21.8343C76.5627 21.0026 76.4994 19.7187 75.6674 18.9667L67.0169 11.1476C65.8503 10.0931 64.3786 9.5783 62.9136 9.58817C61.2781 9.59919 59.6509 10.2642 58.4662 11.5617C56.2624 13.9756 56.3936 17.7713 58.7589 20.023L69.7802 30.5144C73.2168 33.7859 77.7256 35.57 82.4761 35.538L90.3567 35.4849C91.132 37.2876 92.9332 38.5476 95.0189 38.5335L104.589 38.469C105.712 38.4615 106.617 37.5465 106.61 36.4251L106.526 21.5794C106.519 20.4582 105.604 19.5553 104.481 19.5629C103.358 19.5704 102.453 20.4854 102.46 21.6068L102.533 34.4225L94.9956 34.4733C94.4588 34.4769 94.0197 34.0437 94.0167 33.5079L93.9238 17.2356C93.9207 16.6998 94.3547 16.2607 94.8915 16.2571L97.0031 16.2428C98.1259 16.2353 99.031 15.3203 99.0246 14.1989C99.0182 13.0778 98.1027 12.1749 96.9799 12.1824L94.8686 12.1967C92.7548 12.2109 90.9495 13.5299 90.2129 15.3816C87.0433 15.3849 84.0588 14.0033 82.0164 11.5821L76.9031 5.52066C74.0673 2.1588 69.9153 0.247862 65.5114 0.277535L44.275 0.420623C40.8155 0.443932 38.0169 3.27339 38.0366 6.72813C38.0564 10.1829 40.8871 12.9744 44.3465 12.9511Z" fill="#004A4D"/>
<path d="M65.6318 71.1384C65.1695 70.1154 63.968 69.659 62.9458 70.1211C61.9163 70.5694 61.4455 71.7672 61.8937 72.7963C62.2267 73.5613 62.9741 74.0179 63.7584 74.0179C64.0294 74.0179 64.3046 73.9634 64.5689 73.8483C64.5775 73.8447 64.6043 73.8327 64.6126 73.829C65.6358 73.3669 66.0938 72.1616 65.6318 71.1384Z" fill="#03767B"/>
<path d="M70.6844 67.716C70.0198 66.8134 68.7425 66.6256 67.8388 67.2871C66.9332 67.9502 66.7364 69.2223 67.3995 70.1279C67.7978 70.6718 68.415 70.96 69.0411 70.96C69.4579 70.96 69.8785 70.8324 70.2404 70.5675C70.2436 70.5652 70.2627 70.551 70.2658 70.5488C71.1662 69.882 71.3487 68.6183 70.6844 67.716Z" fill="#03767B"/>
<path d="M59.9492 73.4201C59.7176 72.3254 58.6428 71.6244 57.547 71.8509C56.4525 72.0682 55.7369 73.1284 55.9467 74.2262C56.1329 75.2 56.9849 75.8775 57.941 75.8775C58.0675 75.8775 58.1961 75.8655 58.3248 75.8409C58.338 75.8383 58.3714 75.8316 58.3848 75.8288C59.4826 75.596 60.1815 74.5181 59.9492 73.4201Z" fill="#03767B"/>
<path d="M74.931 63.295C74.0975 62.5432 72.8125 62.6093 72.0603 63.443C72.0503 63.4542 72.0269 63.4806 72.0172 63.4918C71.2837 64.3418 71.3784 65.6254 72.2284 66.3587C72.6124 66.6901 73.0849 66.8523 73.5551 66.8523C74.1196 66.8523 74.681 66.6185 75.0823 66.1623C75.8308 65.3286 75.7635 64.0458 74.931 63.295ZM73.7958 65.009L73.5697 64.8045L73.8145 65.0253L73.7958 65.009Z" fill="#03767B"/>
<path d="M80.105 52.2792C79.0308 51.9533 77.8943 52.5662 77.5685 53.6406C77.2383 54.7136 77.8405 55.8511 78.9135 56.1812C79.1125 56.2426 79.3138 56.2717 79.5118 56.2717C80.3807 56.2717 81.1851 55.7102 81.4539 54.8362L81.4624 54.8084C81.7881 53.734 81.1792 52.6048 80.105 52.2792Z" fill="#03767B"/>
<path d="M82.7086 41.7875C82.7041 41.7617 82.6992 41.7359 82.6937 41.7101C82.4642 40.6115 81.3876 39.9087 80.2893 40.1378C79.195 40.3659 78.4914 41.436 78.7118 42.5302C78.8982 43.5001 79.7482 44.1789 80.7053 44.1789C80.8242 44.1789 80.945 44.1685 81.0659 44.1468C82.1711 43.949 82.9064 42.8927 82.7086 41.7875Z" fill="#03767B"/>
<path d="M80.8446 46.1976C79.7299 46.0993 78.7399 46.9257 78.6413 48.0438C78.6395 48.0635 78.6366 48.1036 78.6354 48.1233C78.5695 49.2441 79.4244 50.2061 80.5452 50.2719C80.5858 50.2744 80.6261 50.2756 80.6663 50.2756C81.7247 50.2756 82.6141 49.4571 82.692 48.3912C82.7847 47.2772 81.9597 46.296 80.8446 46.1976Z" fill="#03767B"/>
<path d="M78.1151 58.0625C77.1393 57.5094 75.8979 57.8521 75.3445 58.829L75.3163 58.8798C74.781 59.8666 75.1423 61.1093 76.1289 61.6446C76.4393 61.8129 76.7733 61.8928 77.1025 61.8928C77.8199 61.8928 78.5129 61.5122 78.8799 60.8357L77.1128 59.831L78.8813 60.8332C79.4349 59.8564 79.0919 58.6161 78.1151 58.0625Z" fill="#03767B"/>
<path d="M41.2478 19.3497C40.7459 18.3454 39.5243 17.9382 38.5208 18.4405L38.5027 18.4495C37.4984 18.9516 37.1006 20.1679 37.6027 21.172C37.9583 21.8834 38.6788 22.2928 39.4257 22.2928C39.7335 22.2928 40.0457 22.2233 40.3387 22.0769C41.343 21.575 41.7498 20.354 41.2478 19.3497Z" fill="#03767B"/>
<path d="M47.1285 17.655C46.8641 16.5644 45.7667 15.8939 44.674 16.1586C44.6646 16.1608 44.6357 16.1681 44.6264 16.1706C43.5392 16.4507 42.8807 17.5601 43.1606 18.6471C43.3971 19.5644 44.2198 20.1741 45.1243 20.1741C45.2918 20.1741 45.4621 20.1531 45.6321 20.1094C46.723 19.8449 47.393 18.7461 47.1285 17.655Z" fill="#03767B"/>
<path d="M35.8729 22.2813C35.1699 21.4078 33.8899 21.2705 33.0153 21.9719L34.2756 23.5668L33.0092 21.9766C32.131 22.6759 31.9861 23.9547 32.6852 24.8329C33.0869 25.3371 33.6791 25.5995 34.277 25.5995C34.7206 25.5995 35.1676 25.4548 35.5419 25.157L35.5688 25.1354C36.4409 24.431 36.5759 23.1549 35.8729 22.2813Z" fill="#03767B"/>
<path d="M25.0349 36.7442C23.9518 36.449 22.8344 37.0872 22.539 38.1703C22.534 38.1888 22.5242 38.2272 22.5195 38.2459C22.2552 39.3366 22.9253 40.4334 24.0158 40.6983C24.1768 40.7373 24.3378 40.756 24.4964 40.756C25.4084 40.756 26.237 40.1372 26.468 39.2149C26.7467 38.1398 26.1097 37.0374 25.0349 36.7442Z" fill="#03767B"/>
<path d="M23.7392 42.7168C22.6156 42.6544 21.6573 43.5081 21.5922 44.6286C21.5906 44.6549 21.5896 44.6809 21.5888 44.7069C21.5558 45.8285 22.4384 46.763 23.5601 46.7966C23.5809 46.7972 23.6012 46.7976 23.6217 46.7976C24.7114 46.7976 25.6118 45.933 25.6521 44.8384C25.7029 43.7286 24.8515 42.7815 23.7392 42.7168Z" fill="#03767B"/>
<path d="M27.5929 31.189C26.5986 30.6673 25.3701 31.0505 24.8486 32.0446L24.8155 32.1101C24.32 33.117 24.7356 34.3331 25.7423 34.829C26.0306 34.9711 26.3361 35.0382 26.6376 35.0382C27.3841 35.0382 28.1028 34.6251 28.4589 33.9135C28.9651 32.9229 28.5805 31.7072 27.5929 31.189Z" fill="#03767B"/>
<path d="M31.2637 26.2986C30.3999 25.5815 29.1184 25.7005 28.4013 26.5641C28.3916 26.5761 28.3692 26.6037 28.3595 26.6157C27.6626 27.4954 27.8116 28.7717 28.6908 29.469C29.0641 29.7652 29.5093 29.9087 29.9517 29.9087C30.5479 29.9087 31.1391 29.6477 31.5406 29.1471C32.2448 28.2837 32.1229 27.0119 31.2637 26.2986Z" fill="#03767B"/>
<path d="M26.037 50.4801C25.8392 49.375 24.7822 48.6396 23.6777 48.8376C22.5726 49.0356 21.8373 50.0918 22.0351 51.1969L22.0387 51.2168C22.2148 52.1994 23.068 52.8818 24.0319 52.8818C24.152 52.8818 24.2738 52.8713 24.3962 52.8493C25.5013 52.6515 26.235 51.5852 26.037 50.4801Z" fill="#03767B"/>
<path d="M59.0237 35.0496C56.3778 35.0496 53.9263 36.1407 52.1793 37.9819C50.4322 36.1407 47.9809 35.0496 45.335 35.0496C40.13 35.0496 35.8955 39.284 35.8955 44.489C35.8955 47.2975 37.1342 49.9408 39.2936 51.7412C39.3066 51.7522 39.32 51.7629 39.3335 51.7737L50.9175 60.9448C51.2871 61.2376 51.7331 61.3837 52.1791 61.3837C52.6272 61.3837 53.0753 61.2361 53.4457 60.941L65.5205 51.323C65.5796 51.2761 65.6359 51.2256 65.6894 51.1724C67.4782 49.3884 68.4632 47.015 68.4632 44.489C68.4632 39.284 64.2287 35.0496 59.0237 35.0496ZM62.892 48.2197L52.1757 56.7557L41.8787 48.6037C40.6598 47.5783 39.961 46.0802 39.961 44.4894C39.9608 41.526 42.3717 39.1151 45.335 39.1151C47.5165 39.1151 49.4659 40.418 50.3015 42.4343C50.6164 43.1936 51.3574 43.6888 52.1793 43.6888C53.0013 43.6888 53.7423 43.1938 54.0572 42.4343C54.8927 40.418 56.8421 39.1151 59.0237 39.1151C61.987 39.1151 64.3979 41.526 64.3979 44.4892C64.3979 45.8924 63.8638 47.213 62.892 48.2197Z" fill="#004A4D"/>
<path d="M2.03248 77.8635C3.15121 77.8635 4.05812 76.9566 4.05812 75.8379C4.05812 74.7192 3.15121 73.8123 2.03248 73.8123C0.913747 73.8123 0.00683594 74.7192 0.00683594 75.8379C0.00683594 76.9566 0.913747 77.8635 2.03248 77.8635Z" fill="#004A4D"/>
<path d="M102.054 18.1922C103.173 18.1922 104.08 17.2852 104.08 16.1665C104.08 15.0478 103.173 14.1409 102.054 14.1409C100.936 14.1409 100.029 15.0478 100.029 16.1665C100.029 17.2852 100.936 18.1922 102.054 18.1922Z" fill="#004A4D"/>
</svg>
