<svg width="96" height="96" viewBox="0 0 96 96" fill="none" xmlns="http://www.w3.org/2000/svg">
<circle opacity="0.5" cx="43.5" cy="34.5" r="34.5" fill="#03767B" fill-opacity="0.33"/>
<path d="M6.4 96H83.2C86.7345 96 89.6 93.1345 89.6 89.6V84.8C89.6 83.916 88.884 83.2 88 83.2H84.8V57.6H81.6V83.2H78.4V57.6H75.2V83.2H54.7775C53.074 83.194 51.515 84.1575 50.759 85.685C50.541 86.1255 50.091 86.404 49.6 86.4H40.3775C39.887 86.403 39.4375 86.125 39.221 85.685C38.464 84.1575 36.905 83.194 35.2 83.2H14.4V43.2C14.4 42.316 15.116 41.6 16 41.6H44.8V38.4H16C13.3495 38.4 11.2 40.5495 11.2 43.2V83.2H8V40C8 37.3495 10.1495 35.2 12.8 35.2H44.8V32H12.8C8.384 32.0055 4.8055 35.584 4.8 40V83.2H1.6C0.716 83.2 0 83.916 0 84.8V89.6C0 93.1345 2.8655 96 6.4 96ZM3.2 86.4H35.2C35.6905 86.3975 36.14 86.6745 36.359 87.113C37.114 88.641 38.674 89.606 40.3775 89.6H49.6C51.305 89.606 52.865 88.641 53.621 87.113C53.8375 86.674 54.2875 86.397 54.7775 86.4H86.4V89.6C86.4 91.3675 84.9675 92.8 83.2 92.8H6.4C4.6325 92.8 3.2 91.3675 3.2 89.6V86.4Z" fill="#004A4D"/>
<path d="M20.7999 59.2001V72.0001C20.7999 72.8841 21.5159 73.6001 22.3999 73.6001H67.1999C68.0839 73.6001 68.7999 72.8841 68.7999 72.0001V59.2001C68.7999 58.3161 68.0839 57.6001 67.1999 57.6001H22.3999C21.5159 57.6001 20.7999 58.3161 20.7999 59.2001ZM23.9999 60.8001H65.5999V70.4001H23.9999V60.8001Z" fill="#004A4D"/>
<path d="M27.2001 64H30.4001V67.2H27.2001V64Z" fill="#03767B"/>
<path d="M33.6 64H36.8V67.2H33.6V64Z" fill="#03767B"/>
<path d="M40.0001 64H43.2001V67.2H40.0001V64Z" fill="#03767B"/>
<path d="M46.3999 64H49.5999V67.2H46.3999V64Z" fill="#03767B"/>
<path d="M91.2 24.0595V19.2C91.2 8.596 82.604 0 72 0C61.396 0 52.8 8.596 52.8 19.2V24.0595C50.0775 24.3495 48.0095 26.641 48 29.379V49.021C48.004 51.9905 50.411 54.3975 53.3805 54.4H90.6195C93.589 54.3975 95.996 51.9905 96 49.021V29.379C95.9905 26.641 93.9225 24.3495 91.2 24.0595ZM56 19.2C56 10.363 63.163 3.2 72 3.2C80.837 3.2 88 10.363 88 19.2V24H84.8V19.2C84.8 12.1305 79.0695 6.4 72 6.4C64.9305 6.4 59.2 12.1305 59.2 19.2V24H56V19.2ZM62.4 24V19.2C62.4 13.899 66.699 9.6 72 9.6C77.301 9.6 81.6 13.899 81.6 19.2V24H62.4ZM92.8 49.021C92.799 50.2245 91.8225 51.1995 90.6195 51.2H53.3805C52.1775 51.1995 51.201 50.2245 51.2 49.021V29.379C51.201 28.1755 52.1775 27.2005 53.3805 27.2H90.6195C91.8225 27.2005 92.799 28.1755 92.8 29.379V49.021Z" fill="#004A4D"/>
<path d="M71.5303 35.1221C69.1953 35.1171 67.1978 36.7976 66.8013 39.0996C66.4058 41.4011 67.7278 43.6521 69.9303 44.4276V47.9221H73.1303V44.4276C75.3328 43.6521 76.6548 41.4011 76.2593 39.0996C75.8628 36.7976 73.8653 35.1171 71.5303 35.1221ZM71.5303 41.5221C70.6463 41.5221 69.9303 40.8061 69.9303 39.9221C69.9303 39.0381 70.6463 38.3221 71.5303 38.3221C72.4143 38.3221 73.1303 39.0381 73.1303 39.9221C73.1303 40.8061 72.4143 41.5221 71.5303 41.5221Z" fill="#004A4D"/>
<path d="M28.8 25.6001H32.0001V28.8001H28.8V25.6001Z" fill="#03767B"/>
<path d="M28.8 19.1997H32.0001V22.3997H28.8V19.1997Z" fill="#03767B"/>
<path d="M28.8 12.8H32.0001V16.0001H28.8V12.8Z" fill="#03767B"/>
<path d="M28.8 6.3999H32.0001V9.59991H28.8V6.3999Z" fill="#03767B"/>
<path d="M35.2 6.3999H38.3999V9.59991H35.2V6.3999Z" fill="#03767B"/>
<path d="M41.6001 6.3999H44.8001V9.59991H41.6001V6.3999Z" fill="#03767B"/>
<path d="M48 6.3999H51.2V9.59991H48V6.3999Z" fill="#03767B"/>
</svg>
