<svg width="94" height="102" viewBox="0 0 94 102" fill="none" xmlns="http://www.w3.org/2000/svg">
<g clip-path="url(#clip0)">
<path opacity="0.5" d="M46.2 69C65.2538 69 80.7 53.5538 80.7 34.5C80.7 15.4462 65.2538 0 46.2 0C27.1461 0 11.7 15.4462 11.7 34.5C11.7 53.5538 27.1461 69 46.2 69Z" fill="#03767B" fill-opacity="0.33"/>
<path d="M9.30002 63.6001C8.50002 63.6001 7.90002 64.2001 7.90002 65.0001C7.90002 65.8001 8.50002 66.4001 9.30002 66.4001H14.2V63.6001H9.30002Z" fill="#03767B"/>
<path d="M9.30002 69.7C8.50002 69.7 7.90002 70.3 7.90002 71.1C7.90002 71.9 8.50002 72.5 9.30002 72.5H14.2V69.7H9.30002Z" fill="#03767B"/>
<path d="M9.30002 76C8.50002 76 7.90002 76.6 7.90002 77.4C7.90002 78.2 8.50002 78.8 9.30002 78.8H14.2V76H9.30002Z" fill="#03767B"/>
<path d="M84 63.6001H79.1V66.4001H84C84.8 66.4001 85.4 65.8001 85.4 65.0001C85.4 64.3001 84.8 63.6001 84 63.6001Z" fill="#03767B"/>
<path d="M84 69.7H79.1V72.5H84C84.8 72.5 85.4 71.9 85.4 71.1C85.4 70.3 84.8 69.7 84 69.7Z" fill="#03767B"/>
<path d="M84 76H79.1V78.8H84C84.8 78.8 85.4 78.2 85.4 77.4C85.4 76.6 84.8 76 84 76Z" fill="#03767B"/>
<path d="M66.3 69.2H27C26.2 69.2 25.6 69.8 25.6 70.6C25.6 71.4 26.2 72 27 72H66.3C67.1 72 67.7 71.4 67.7 70.6C67.7 69.8 67.1 69.2 66.3 69.2Z" fill="#03767B"/>
<path d="M66.3 75.3H27C26.2 75.3 25.6 75.9 25.6 76.7C25.6 77.5 26.2 78.1 27 78.1H66.3C67.1 78.1 67.7 77.5 67.7 76.7C67.7 75.9 67.1 75.3 66.3 75.3Z" fill="#03767B"/>
<path d="M37 81.5H27C26.2 81.5 25.6 82.1 25.6 82.9C25.6 83.7 26.2 84.3 27 84.3H37C37.8 84.3 38.4 83.7 38.4 82.9C38.4 82.1 37.7 81.5 37 81.5Z" fill="#03767B"/>
<path d="M90.6 46.1001V35.1001C90.6 33.4001 89.2 32.0001 87.5 32.0001H76.3V90.2001H87.4C89.1 90.2001 90.5 88.8001 90.5 87.1001V51.6001C90.5 50.8001 91.1 50.2001 91.9 50.2001C92.7 50.2001 93.3 50.8001 93.3 51.6001V87.1001C93.3 90.3001 90.7 93.0001 87.4 93.0001H76.3V95.0001C76.3 98.9001 73.1 102 69.3 102H24C20.1 102 17 98.8001 17 95.0001V93.0001H5.9C2.6 93.0001 0 90.3001 0 87.1001V35.1001C0 31.9001 2.6 29.2001 5.9 29.2001H17V27.2001C17 23.3001 20.2 20.2001 24 20.2001H25.8C26.6 20.2001 27.2 20.8001 27.2 21.6001C27.2 22.4001 26.6 23.0001 25.8 23.0001H24C21.7 23.0001 19.7 24.9001 19.7 27.3001V82.7001C19.7 83.5001 19.1 84.1001 18.3 84.1001C17.5 84.1001 16.9 83.5001 16.9 82.7001V32.0001H5.9C4.2 32.0001 2.8 33.4001 2.8 35.1001V87.1001C2.8 88.8001 4.2 90.2001 5.9 90.2001H17V88.2001C17 87.4001 17.6 86.8001 18.4 86.8001C19.2 86.8001 19.8 87.4001 19.8 88.2001V95.0001C19.8 97.4001 21.7 99.3001 24.1 99.3001H69.4C71.7 99.3001 73.7 97.4001 73.7 95.0001V27.2001C73.7 24.8001 71.8 22.9001 69.4 22.9001H67.6C66.8 22.9001 66.2 22.3001 66.2 21.5001C66.2 20.7001 66.8 20.1001 67.6 20.1001H69.4C73.3 20.1001 76.4 23.3001 76.4 27.1001V29.1001H87.5C90.7 29.1001 93.4 31.7001 93.4 35.0001V46.0001C93.4 46.8001 92.8 47.4001 92 47.4001C91.2 47.5001 90.6 46.9001 90.6 46.1001Z" fill="#004A4D"/>
<path d="M46.7 15.8999C34 15.8999 23.7 26.1999 23.7 38.8999C23.7 45.2999 26.3 51.0999 30.5 55.2999C31.3 56.0999 32.1 56.7999 33 57.3999C36.8 60.1999 41.6 61.8999 46.7 61.8999C51.6 61.8999 56.2 60.2999 60 57.6999C60.9 57.0999 61.7 56.3999 62.5 55.6999C67 51.4999 69.6999 45.4999 69.6999 38.8999C69.6999 26.1999 59.4 15.8999 46.7 15.8999ZM61.5 52.8999C60.7 53.6999 60 54.3999 59.2 54.9999C55.7 57.6999 51.3999 59.2999 46.5999 59.2999C42.5999 59.2999 38.8 58.0999 35.7 56.0999C35.2 55.7999 34.7999 55.4999 34.2999 55.0999C34.0999 54.8999 33.9 54.7999 33.7 54.5999C33.7 54.5999 33.6999 54.5999 33.5999 54.5999C32.8999 53.9999 32.2 53.2999 31.5 52.5999C28.2 48.9999 26.2999 44.1999 26.2999 38.9999C26.2999 27.7999 35.3999 18.6999 46.5999 18.6999C57.8999 18.5999 67 27.6999 67 38.9999C67 44.2999 64.9 49.1999 61.5 52.8999Z" fill="#004A4D"/>
<path d="M46.4999 24.2998C40.2999 24.2998 35.2999 29.2998 35.2999 35.4998C35.2999 39.4998 37.3999 42.9998 40.4999 44.9998C42.1999 46.0998 44.2999 46.6998 46.4999 46.6998C48.6999 46.6998 50.6999 46.0998 52.3999 44.9998C55.5999 42.9998 57.6999 39.4998 57.6999 35.4998C57.6999 29.2998 52.6999 24.2998 46.4999 24.2998ZM52.5999 41.2998C51.0999 42.9998 48.8999 43.9998 46.3999 43.9998C44.6999 43.9998 43.1999 43.4998 41.8999 42.6998C41.6999 42.5998 41.4999 42.3998 41.2999 42.2998C41.1999 42.1998 41.0999 42.1998 40.9999 42.0998C40.6999 41.8998 40.3999 41.5998 40.0999 41.2998C38.6999 39.7998 37.8999 37.7998 37.8999 35.5998C37.8999 30.8998 41.6999 27.1998 46.2999 27.1998C50.9999 27.1998 54.6999 30.9998 54.6999 35.5998C54.8999 37.6998 54.0999 39.7998 52.5999 41.2998Z" fill="#004A4D"/>
<path d="M61.4 52.8999C60.7 53.5999 60 54.2999 59.2 54.8999C59.5 55.7999 59.8 56.6999 59.9 57.6999C60.8 57.0999 61.6 56.3999 62.4 55.6999C62.2 54.7999 61.9 53.7999 61.4 52.8999ZM31.6 52.5999C31.1 53.4999 30.8 54.3999 30.5 55.2999C31.3 56.0999 32.1 56.7999 33 57.3999C33.1 56.3999 33.4 55.4999 33.8 54.5999C33.8 54.5999 33.8 54.5999 33.7 54.5999C32.9 53.9999 32.2 53.2999 31.6 52.5999Z" fill="#004A4D"/>
<path d="M61.4 52.9C60.7 53.6 60 54.3 59.2 54.9C57.3 50.1 52.3 46.7 46.4 46.7C40.6 46.7 35.7 50 33.7 54.6C33.7 54.6 33.7 54.6 33.6 54.6C32.9 54 32.2 53.3 31.5 52.6C33.3 49.1 36.5 46.4 40.5 45C42.2 46.1 44.3 46.7 46.5 46.7C48.7 46.7 50.7 46.1 52.4 45C56.4 46.5 59.7 49.3 61.4 52.9Z" fill="#004A4D"/>
</g>
<defs>
<clipPath id="clip0">
<rect width="93.3" height="102" fill="white"/>
</clipPath>
</defs>
</svg>
