<svg width="52" height="52" viewBox="0 0 52 52" fill="none" xmlns="http://www.w3.org/2000/svg">
<path d="M20.9578 39.4886H9.76094C9.14866 39.4886 8.65234 39.9748 8.65234 40.5746C8.65234 41.1744 9.14866 41.6606 9.76094 41.6606H20.9578C21.5701 41.6606 22.0664 41.1744 22.0664 40.5746C22.0664 39.9748 21.5701 39.4886 20.9578 39.4886Z" fill="#003354"/>
<path d="M37.6961 39.4886H26.4992C25.8869 39.4886 25.3906 39.9748 25.3906 40.5746C25.3906 41.1744 25.8869 41.6606 26.4992 41.6606H37.6961C38.3082 41.6606 38.8047 41.1744 38.8047 40.5746C38.8047 39.9748 38.3082 39.4886 37.6961 39.4886Z" fill="#003354"/>
<path d="M37.6976 12.3393H9.76094C9.14866 12.3393 8.65234 12.8255 8.65234 13.4253C8.65234 14.0251 9.14866 14.5112 9.76094 14.5112H37.6976C38.3098 14.5112 38.8062 14.0251 38.8062 13.4253C38.8062 12.8255 38.3098 12.3393 37.6976 12.3393Z" fill="#003354"/>
<path d="M37.6961 17.7691H26.4992C25.8869 17.7691 25.3906 18.2553 25.3906 18.8551C25.3906 19.4549 25.8869 19.941 26.4992 19.941H37.6961C38.3082 19.941 38.8047 19.4549 38.8047 18.8551C38.8047 18.2553 38.3082 17.7691 37.6961 17.7691Z" fill="#003354"/>
<path d="M37.6961 23.1991H26.4992C25.8869 23.1991 25.3906 23.6853 25.3906 24.2851C25.3906 24.8849 25.8869 25.371 26.4992 25.371H37.6961C38.3082 25.371 38.8047 24.8849 38.8047 24.2851C38.8047 23.6853 38.3082 23.1991 37.6961 23.1991Z" fill="#003354"/>
<path d="M37.6961 28.6289H26.4992C25.8869 28.6289 25.3906 29.1151 25.3906 29.7149C25.3906 30.3147 25.8869 30.8009 26.4992 30.8009H37.6961C38.3082 30.8009 38.8047 30.3147 38.8047 29.7149C38.8047 29.1151 38.3082 28.6289 37.6961 28.6289Z" fill="#003354"/>
<path d="M37.6961 34.0588H26.4992C25.8869 34.0588 25.3906 34.545 25.3906 35.1448C25.3906 35.7446 25.8869 36.2308 26.4992 36.2308H37.6961C38.3082 36.2308 38.8047 35.7446 38.8047 35.1448C38.8047 34.545 38.3082 34.0588 37.6961 34.0588Z" fill="#003354"/>
<path d="M20.9578 34.0588H9.76094C9.14866 34.0588 8.65234 34.545 8.65234 35.1448C8.65234 35.7446 9.14866 36.2308 9.76094 36.2308H20.9578C21.5701 36.2308 22.0664 35.7446 22.0664 35.1448C22.0664 34.545 21.5701 34.0588 20.9578 34.0588Z" fill="#003354"/>
<path d="M20.9578 17.7691H9.76094C9.14866 17.7691 8.65234 18.2553 8.65234 18.8551V29.8234C8.65234 30.4232 9.14866 30.9094 9.76094 30.9094H20.9578C21.5701 30.9094 22.0664 30.4232 22.0664 29.8234V18.8551C22.0664 18.2553 21.5701 17.7691 20.9578 17.7691ZM19.8492 28.7374H10.8695V19.941H19.8492V28.7374Z" fill="#003354"/>
<path d="M48.7828 11.2534H45.457V7.99543C45.457 6.79782 44.4624 5.82349 43.2398 5.82349H4.21719C2.99463 5.82349 2 6.79782 2 7.99543V42.7466C2 45.7406 4.48658 48.1764 7.54299 48.1764H45.457C48.5134 48.1764 51 45.7406 51 42.7466V13.4253C51 12.2277 50.0054 11.2534 48.7828 11.2534ZM48.7828 42.7466C48.7828 44.543 47.2909 46.0045 45.457 46.0045H7.54299C5.70914 46.0045 4.21719 44.543 4.21719 42.7466V7.99543H43.2398V41.1176C43.2398 42.6146 44.4831 43.8325 46.0113 43.8325C46.6235 43.8325 47.1199 43.3463 47.1199 42.7466C47.1199 42.1468 46.6235 41.6606 46.0113 41.6606C45.7057 41.6606 45.457 41.417 45.457 41.1176V13.4253H48.7828V42.7466Z" fill="#003354"/>
</svg>
