<svg width="140" height="140" viewBox="0 0 140 140" fill="none" xmlns="http://www.w3.org/2000/svg">
<path d="M85.7438 72.4069C84.8222 72.4069 84.0751 73.1541 84.0751 74.0757V104.113H27.3375V30.6875H45.6938C46.6153 30.6875 47.3625 29.9403 47.3625 29.0188C47.3625 28.0972 46.6153 27.35 45.6938 27.35H27.3375V25.6813C27.3375 21.0805 31.0805 17.3375 35.6813 17.3375H75.7313C76.6529 17.3375 77.4 16.5903 77.4 15.6688C77.4 14.7472 76.6529 14 75.7313 14H35.6813C29.2403 14 24 19.2403 24 25.6813V109.119C24 115.56 29.2403 120.8 35.6813 120.8H75.7313C82.1723 120.8 87.4126 115.56 87.4126 109.119V74.0757C87.4126 73.1541 86.6654 72.4069 85.7438 72.4069ZM75.7313 117.463H35.6813C31.0805 117.463 27.3375 113.72 27.3375 109.119V107.45H84.0751V109.119C84.0751 113.72 80.332 117.463 75.7313 117.463Z" fill="#297A38" stroke="#297A38"/>
<path d="M59.043 110.787H52.368C51.4464 110.787 50.6992 111.535 50.6992 112.456C50.6992 113.378 51.4464 114.125 52.368 114.125H59.043C59.9645 114.125 60.7117 113.378 60.7117 112.456C60.7117 111.535 59.9645 110.787 59.043 110.787Z" fill="#297A38" stroke="#297A38"/>
<path d="M44.5115 21.1632C44.2007 21.474 44.0234 21.9058 44.0234 22.3438C44.0234 22.7818 44.2007 23.2136 44.5115 23.5244C44.8224 23.8352 45.2521 24.0126 45.6922 24.0126C46.1323 24.0126 46.562 23.8352 46.8728 23.5244C47.1836 23.2136 47.3609 22.7839 47.3609 22.3438C47.3609 21.9037 47.1836 21.474 46.8728 21.1632C46.562 20.8524 46.1323 20.675 45.6922 20.675C45.2521 20.675 44.8224 20.8524 44.5115 21.1632Z" fill="#297A38" stroke="#297A38"/>
<path d="M60.7137 42.3685H70.7262C71.6477 42.3685 72.3949 41.6213 72.3949 40.6998C72.3949 39.7782 71.6477 39.031 70.7262 39.031H60.7137C59.7921 39.031 59.0449 39.7782 59.0449 40.6998C59.0449 41.6213 59.7921 42.3685 60.7137 42.3685Z" fill="#297A38" stroke="#297A38"/>
<path d="M104.099 39.031H77.3992C76.4777 39.031 75.7305 39.7782 75.7305 40.6998C75.7305 41.6213 76.4777 42.3685 77.3992 42.3685H104.099C105.021 42.3685 105.768 41.6213 105.768 40.6998C105.768 39.7782 105.021 39.031 104.099 39.031Z" fill="#297A38" stroke="#297A38"/>
<path d="M104.101 47.375H94.0887C93.1671 47.375 92.4199 48.1222 92.4199 49.0438C92.4199 49.9653 93.1671 50.7125 94.0887 50.7125H104.101C105.023 50.7125 105.77 49.9653 105.77 49.0438C105.77 48.1222 105.023 47.375 104.101 47.375Z" fill="#297A38" stroke="#297A38"/>
<path d="M60.7137 50.7125H87.4137C88.3353 50.7125 89.0824 49.9653 89.0824 49.0438C89.0824 48.1222 88.3353 47.375 87.4137 47.375H60.7137C59.7921 47.375 59.0449 48.1222 59.0449 49.0438C59.0449 49.9653 59.7921 50.7125 60.7137 50.7125Z" fill="#297A38" stroke="#297A38"/>
<path d="M104.101 30.6875H60.7137C59.7921 30.6875 59.0449 31.4347 59.0449 32.3563C59.0449 33.2778 59.7921 34.025 60.7137 34.025H104.101C105.023 34.025 105.77 33.2778 105.77 32.3563C105.77 31.4347 105.023 30.6875 104.101 30.6875Z" fill="#297A38" stroke="#297A38"/>
<path d="M104.101 55.7185H60.7137C59.7921 55.7185 59.0449 56.4657 59.0449 57.3873C59.0449 58.3088 59.7921 59.056 60.7137 59.056H104.101C105.023 59.056 105.77 58.3088 105.77 57.3873C105.77 56.4657 105.023 55.7185 104.101 55.7185Z" fill="#297A38" stroke="#297A38"/>
<path d="M104.1 20.675H60.7125C54.2715 20.675 49.0312 25.9153 49.0312 32.3563V57.3876C49.0312 63.2622 53.3902 68.1379 59.0438 68.9499V75.0526C59.0438 76.4074 59.8525 77.6176 61.104 78.136C61.5196 78.3081 61.9541 78.3917 62.3848 78.3917C63.2515 78.3917 64.1013 78.0526 64.7413 77.4126L73.085 69.0688H104.1C110.541 69.0688 115.781 63.8285 115.781 57.3876V32.3563C115.781 25.9153 110.541 20.675 104.1 20.675ZM112.444 57.3876C112.444 61.9883 108.701 65.7313 104.1 65.7313H72.3938C71.9511 65.7313 71.5266 65.9072 71.2138 66.2201L62.3813 75.0513V67.4001C62.3813 66.4785 61.6341 65.7313 60.7125 65.7313C56.1118 65.7313 52.3688 61.9883 52.3688 57.3876V32.3563C52.3688 27.7556 56.1118 24.0126 60.7125 24.0126H104.1C108.701 24.0126 112.444 27.7556 112.444 32.3563V57.3876Z" fill="#297A38" stroke="#297A38"/>
</svg>
