<svg width="56" height="56" viewBox="0 0 56 56" fill="none" xmlns="http://www.w3.org/2000/svg">
<path d="M19.6041 48.9487C16.7974 48.9487 14.0423 48.5392 11.4226 47.7155C10.9019 47.5542 10.4892 47.227 10.2619 46.7933C10.0572 46.4048 10.0153 45.9615 10.1442 45.5488C10.378 44.7992 11.226 44.1704 12.3399 44.4832C18.1451 46.1066 24.679 45.1377 30.7405 41.7587C37.6145 37.9251 43.2085 31.3332 45.7041 24.1287C46.6262 21.4639 47.429 18.5895 48.1609 15.8006C47.824 15.8457 47.4839 15.8925 47.1437 15.9376C43.7325 16.3971 40.2052 16.871 36.6521 17.4997C29.4428 18.7765 20.307 20.9239 13.6022 26.2422C9.45266 29.5341 7.33757 33.5531 7.315 38.1863C7.31339 39.1874 6.60245 39.9806 5.66421 40.0273C4.81785 40.0628 3.92958 39.4534 3.86671 38.2089C3.64585 32.6342 5.84154 27.5528 10.3957 23.0954C18.1838 15.4733 28.195 12.952 36.0476 11.6075C40.3277 10.874 44.6997 10.4049 48.9267 9.95186C50.3405 9.80032 51.7447 9.6504 53.1343 9.4908C54.2031 9.3715 55.0994 9.71972 55.604 10.4436C56.078 11.1222 56.128 12.046 55.7427 12.9762C54.7142 15.454 53.763 18.6863 52.9231 21.5381C52.4346 23.1969 51.9736 24.7655 51.5705 25.9182C48.5769 34.4833 41.5787 41.9796 32.8524 45.9679C28.5206 47.9444 23.9987 48.9471 19.6041 48.9487ZM49.4974 13.6178C49.7795 13.6178 50.0503 13.7371 50.2406 13.9515C50.4614 14.1998 50.5436 14.5415 50.4614 14.8623C49.6199 18.1269 48.6881 21.5864 47.5838 24.7784C44.9319 32.4327 38.9977 39.4292 31.7078 43.4966C28.8705 45.0781 25.9316 46.1662 22.996 46.7466C26.0187 46.3742 29.0655 45.5069 32.0205 44.1543C40.2649 40.3868 46.8696 33.3242 49.6876 25.2588C50.0745 24.1545 50.5291 22.6101 51.0095 20.9738C51.8623 18.0737 52.8296 14.7866 53.9 12.2104C54.05 11.8509 54.0129 11.6446 53.9677 11.5801C53.9113 11.4979 53.6969 11.4286 53.3551 11.4656C51.9639 11.6252 50.5549 11.7768 49.1363 11.9283C44.94 12.3781 40.6002 12.844 36.3813 13.5662C25.1417 15.4927 17.5551 18.8684 11.7854 24.5156C10.2635 26.0052 9.0319 27.5657 8.09204 29.1924C9.19149 27.5706 10.6166 26.0649 12.3625 24.6785C19.4171 19.0828 28.8624 16.8533 36.3023 15.5362C39.8957 14.8994 43.4439 14.4222 46.8745 13.9612C47.7144 13.8483 48.543 13.7371 49.3587 13.6242C49.4071 13.621 49.4538 13.6178 49.4974 13.6178Z" fill="#003354"/>
<path d="M0.994996 48.9528C0.720938 48.9528 0.450104 48.8416 0.253427 48.6207C-0.112521 48.2113 -0.0786671 47.5809 0.33242 47.215L19.4262 30.1428C19.7905 29.8187 20.3354 29.8042 20.7143 30.1105L27.6721 35.7207L39.4518 21.921L39.2454 21.9468C38.7038 22.0161 38.2024 21.6276 38.1347 21.0827C38.067 20.5378 38.4539 20.0397 38.9988 19.972L41.7523 19.6286C42.1569 19.577 42.5567 19.7818 42.7518 20.1445C42.9468 20.5056 42.8985 20.9505 42.6325 21.2633L28.5588 37.7519C28.209 38.1614 27.5964 38.2178 27.1772 37.8809L20.1226 32.1934L1.65918 48.6997C1.46896 48.869 1.23198 48.9528 0.994996 48.9528Z" fill="#003354"/>
</svg>
