<svg width="57" height="56" viewBox="0 0 57 56" fill="none" xmlns="http://www.w3.org/2000/svg">
<g clip-path="url(#clip0)">
<mask id="path-1-inside-1" fill="white">
<path d="M44.9011 29.1594C39.841 29.1594 34.4629 25.5006 34.4629 18.7211C34.4629 12.1173 39.2826 9.77488 43.4091 9.77488C48.5321 9.77488 50.8653 13.6388 50.8653 17.231C50.8653 20.52 48.1882 23.1952 44.9011 23.1952C41.6195 23.1952 40.427 20.52 40.427 18.7211C40.427 17.8966 41.0944 17.2292 41.919 17.2292C42.738 17.2292 43.4017 17.8892 43.411 18.7063C43.4276 19.3941 43.7031 20.2113 44.9029 20.2113C46.5484 20.2113 47.885 18.8727 47.885 17.2292C47.885 16.7725 47.7593 12.7551 43.411 12.7551C41.6176 12.7551 37.4468 13.3356 37.4468 18.7193C37.4468 24.151 42.0188 26.1754 44.9029 26.1754C50.5879 26.1754 53.8492 22.3706 53.8492 15.7372C53.8492 11.8603 51.3367 5.29898 41.9208 5.29898H15.0784C5.66255 5.29898 3.15005 11.8603 3.15005 15.7372C3.15005 22.3706 6.4113 26.1754 12.0963 26.1754C14.9804 26.1754 19.5524 24.151 19.5524 18.7193C19.5524 13.3356 15.3816 12.7551 13.5883 12.7551C9.23994 12.7551 9.11422 16.7707 9.11422 17.2292C9.11422 18.8727 10.4509 20.2113 12.0963 20.2113C13.2962 20.2113 13.5698 19.3922 13.5883 18.7026C13.6086 17.8929 14.2723 17.2384 15.0802 17.2384C15.0858 17.2384 15.0913 17.2384 15.0987 17.2384C15.9159 17.2495 16.5704 17.904 16.5704 18.7193C16.5704 20.5181 15.3797 23.1933 12.0963 23.1933C8.80732 23.1933 6.13214 20.5181 6.13214 17.2292C6.13214 13.6388 8.4653 9.77303 13.5883 9.77303C17.7148 9.77303 22.5345 12.1154 22.5345 18.7193C22.5345 25.4988 17.1564 29.1575 12.0963 29.1575C4.73816 29.1575 0.167969 24.016 0.167969 15.7372C0.167969 11.0949 3.28501 2.31689 15.0802 2.31689H41.9208C53.7161 2.31689 56.8331 11.0949 56.8331 15.7372C56.8294 24.016 52.2592 29.1594 44.9011 29.1594Z"/>
</mask>
<path d="M44.9011 29.1594C39.841 29.1594 34.4629 25.5006 34.4629 18.7211C34.4629 12.1173 39.2826 9.77488 43.4091 9.77488C48.5321 9.77488 50.8653 13.6388 50.8653 17.231C50.8653 20.52 48.1882 23.1952 44.9011 23.1952C41.6195 23.1952 40.427 20.52 40.427 18.7211C40.427 17.8966 41.0944 17.2292 41.919 17.2292C42.738 17.2292 43.4017 17.8892 43.411 18.7063C43.4276 19.3941 43.7031 20.2113 44.9029 20.2113C46.5484 20.2113 47.885 18.8727 47.885 17.2292C47.885 16.7725 47.7593 12.7551 43.411 12.7551C41.6176 12.7551 37.4468 13.3356 37.4468 18.7193C37.4468 24.151 42.0188 26.1754 44.9029 26.1754C50.5879 26.1754 53.8492 22.3706 53.8492 15.7372C53.8492 11.8603 51.3367 5.29898 41.9208 5.29898H15.0784C5.66255 5.29898 3.15005 11.8603 3.15005 15.7372C3.15005 22.3706 6.4113 26.1754 12.0963 26.1754C14.9804 26.1754 19.5524 24.151 19.5524 18.7193C19.5524 13.3356 15.3816 12.7551 13.5883 12.7551C9.23994 12.7551 9.11422 16.7707 9.11422 17.2292C9.11422 18.8727 10.4509 20.2113 12.0963 20.2113C13.2962 20.2113 13.5698 19.3922 13.5883 18.7026C13.6086 17.8929 14.2723 17.2384 15.0802 17.2384C15.0858 17.2384 15.0913 17.2384 15.0987 17.2384C15.9159 17.2495 16.5704 17.904 16.5704 18.7193C16.5704 20.5181 15.3797 23.1933 12.0963 23.1933C8.80732 23.1933 6.13214 20.5181 6.13214 17.2292C6.13214 13.6388 8.4653 9.77303 13.5883 9.77303C17.7148 9.77303 22.5345 12.1154 22.5345 18.7193C22.5345 25.4988 17.1564 29.1575 12.0963 29.1575C4.73816 29.1575 0.167969 24.016 0.167969 15.7372C0.167969 11.0949 3.28501 2.31689 15.0802 2.31689H41.9208C53.7161 2.31689 56.8331 11.0949 56.8331 15.7372C56.8294 24.016 52.2592 29.1594 44.9011 29.1594Z" fill="#003354" stroke="#FAFAFA" mask="url(#path-1-inside-1)"/>
<mask id="path-2-inside-2" fill="white">
<path d="M31.4815 20.2113H25.5174C24.6928 20.2113 24.0254 19.5439 24.0254 18.7193C24.0254 17.8948 24.6928 17.2274 25.5174 17.2274H31.4815C32.3061 17.2274 32.9735 17.8948 32.9735 18.7193C32.9735 19.5439 32.3061 20.2113 31.4815 20.2113Z"/>
</mask>
<path d="M31.4815 20.2113H25.5174C24.6928 20.2113 24.0254 19.5439 24.0254 18.7193C24.0254 17.8948 24.6928 17.2274 25.5174 17.2274H31.4815C32.3061 17.2274 32.9735 17.8948 32.9735 18.7193C32.9735 19.5439 32.3061 20.2113 31.4815 20.2113Z" fill="#003354" stroke="#FAFAFA" mask="url(#path-2-inside-2)"/>
<mask id="path-3-inside-3" fill="white">
<path d="M41.9197 50.0346C41.0951 50.0346 40.4277 49.3672 40.4277 48.5426V27.6681C40.4277 26.8435 41.0951 26.1761 41.9197 26.1761C42.7443 26.1761 43.4117 26.8435 43.4117 27.6681V48.5445C43.4098 49.3691 42.7443 50.0346 41.9197 50.0346Z"/>
</mask>
<path d="M41.9197 50.0346C41.0951 50.0346 40.4277 49.3672 40.4277 48.5426V27.6681C40.4277 26.8435 41.0951 26.1761 41.9197 26.1761C42.7443 26.1761 43.4117 26.8435 43.4117 27.6681V48.5445C43.4098 49.3691 42.7443 50.0346 41.9197 50.0346Z" fill="#003354" stroke="#FAFAFA" mask="url(#path-3-inside-3)"/>
<mask id="path-4-inside-4" fill="white">
<path d="M41.9197 50.0346C41.0951 50.0346 40.4277 49.3672 40.4277 48.5426V27.6681C40.4277 26.8435 41.0951 26.1761 41.9197 26.1761C42.7443 26.1761 43.4117 26.8435 43.4117 27.6681V48.5445C43.4098 49.3691 42.7443 50.0346 41.9197 50.0346Z"/>
</mask>
<path d="M41.9197 50.0346C41.0951 50.0346 40.4277 49.3672 40.4277 48.5426V27.6681C40.4277 26.8435 41.0951 26.1761 41.9197 26.1761C42.7443 26.1761 43.4117 26.8435 43.4117 27.6681V48.5445C43.4098 49.3691 42.7443 50.0346 41.9197 50.0346Z" fill="#003354" stroke="#FAFAFA" mask="url(#path-4-inside-4)"/>
<mask id="path-5-inside-5" fill="white">
<path d="M15.0799 50.0346C14.2553 50.0346 13.5879 49.3672 13.5879 48.5426V27.6681C13.5879 26.8435 14.2553 26.1761 15.0799 26.1761C15.9044 26.1761 16.5718 26.8435 16.5718 27.6681V48.5445C16.57 49.3691 15.9044 50.0346 15.0799 50.0346Z"/>
</mask>
<path d="M15.0799 50.0346C14.2553 50.0346 13.5879 49.3672 13.5879 48.5426V27.6681C13.5879 26.8435 14.2553 26.1761 15.0799 26.1761C15.9044 26.1761 16.5718 26.8435 16.5718 27.6681V48.5445C16.57 49.3691 15.9044 50.0346 15.0799 50.0346Z" fill="#003354" stroke="#FAFAFA" mask="url(#path-5-inside-5)"/>
<mask id="path-6-inside-6" fill="white">
<path d="M24.0252 44.0682C23.2006 44.0682 22.5332 43.4008 22.5332 42.5763V29.1578C22.5332 28.3332 23.2006 27.6658 24.0252 27.6658C24.8497 27.6658 25.5171 28.3332 25.5171 29.1578V42.5763C25.5171 43.4027 24.8497 44.0682 24.0252 44.0682Z"/>
</mask>
<path d="M24.0252 44.0682C23.2006 44.0682 22.5332 43.4008 22.5332 42.5763V29.1578C22.5332 28.3332 23.2006 27.6658 24.0252 27.6658C24.8497 27.6658 25.5171 28.3332 25.5171 29.1578V42.5763C25.5171 43.4027 24.8497 44.0682 24.0252 44.0682Z" fill="#003354" stroke="#FAFAFA" mask="url(#path-6-inside-6)"/>
<mask id="path-7-inside-7" fill="white">
<path d="M32.9724 44.0682C32.1479 44.0682 31.4805 43.4008 31.4805 42.5763V29.1578C31.4805 28.3332 32.1479 27.6658 32.9724 27.6658C33.797 27.6658 34.4644 28.3332 34.4644 29.1578V42.5763C34.4626 43.4027 33.7951 44.0682 32.9724 44.0682Z"/>
</mask>
<path d="M32.9724 44.0682C32.1479 44.0682 31.4805 43.4008 31.4805 42.5763V29.1578C31.4805 28.3332 32.1479 27.6658 32.9724 27.6658C33.797 27.6658 34.4644 28.3332 34.4644 29.1578V42.5763C34.4626 43.4027 33.7951 44.0682 32.9724 44.0682Z" fill="#003354" stroke="#FAFAFA" mask="url(#path-7-inside-7)"/>
<mask id="path-8-inside-8" fill="white">
<path d="M47.9135 56.0002C47.9043 56.0002 47.8951 56.0002 47.884 56.0002H9.11501C8.29046 56.0002 7.62305 55.3328 7.62305 54.5082C7.62305 50.3965 10.9675 47.0521 15.0792 47.0521H41.9198C45.9187 47.0521 49.1929 50.2172 49.3685 54.1754C49.3926 54.2826 49.4055 54.3936 49.4055 54.5082C49.4037 55.3328 48.7381 56.0002 47.9135 56.0002ZM10.8621 53.0181H46.1369C45.5231 51.2821 43.8629 50.036 41.9198 50.036H15.0792C13.1343 50.0342 11.4759 51.2821 10.8621 53.0181Z"/>
</mask>
<path d="M47.9135 56.0002C47.9043 56.0002 47.8951 56.0002 47.884 56.0002H9.11501C8.29046 56.0002 7.62305 55.3328 7.62305 54.5082C7.62305 50.3965 10.9675 47.0521 15.0792 47.0521H41.9198C45.9187 47.0521 49.1929 50.2172 49.3685 54.1754C49.3926 54.2826 49.4055 54.3936 49.4055 54.5082C49.4037 55.3328 48.7381 56.0002 47.9135 56.0002ZM10.8621 53.0181H46.1369C45.5231 51.2821 43.8629 50.036 41.9198 50.036H15.0792C13.1343 50.0342 11.4759 51.2821 10.8621 53.0181Z" fill="#003354" stroke="#FAFAFA" mask="url(#path-8-inside-8)"/>
</g>
<defs>
<clipPath id="clip0">
<rect width="56.8331" height="56.0001" fill="white"/>
</clipPath>
</defs>
</svg>
