<svg width="56" height="56" viewBox="0 0 56 56" fill="none" xmlns="http://www.w3.org/2000/svg">
<path d="M38.351 29.1611C38.2579 28.843 38.0188 28.5833 37.701 28.467C37.6369 28.4436 37.117 28.2597 36.3096 28.1416C39.7592 24.471 38.6203 20.1825 38.351 19.345C38.2579 19.0268 38.0188 18.767 37.701 18.6508C37.5529 18.5966 34.971 17.6862 32.0293 18.71C32.1954 18.0286 32.2925 17.2794 32.2925 16.4574C32.2925 11.198 28.3097 8.88639 27.5105 8.47601C27.2197 8.31675 26.8667 8.3022 26.56 8.44479C26.3623 8.53665 21.716 10.7602 21.716 16.4574C21.716 17.2811 21.8135 18.0318 21.9803 18.7143C19.0334 17.6837 16.4445 18.5965 16.2962 18.6508C15.9784 18.767 15.7393 19.0268 15.6462 19.345C15.3769 20.1825 14.238 24.471 17.6876 28.1416C16.8802 28.2597 16.3603 28.4436 16.2962 28.467C15.9784 28.5833 15.7392 28.8431 15.6461 29.1612C15.3712 30.0162 14.1894 34.4674 17.9084 38.1864C20.0605 40.3386 22.4492 40.852 24.2388 40.852C24.9013 40.852 25.4804 40.7815 25.9364 40.6977V47.5988C25.9364 48.1812 26.4086 48.6535 26.9911 48.6535C27.5736 48.6535 28.0457 48.1812 28.0457 47.5988V40.6951C28.5038 40.7799 29.0886 40.8519 29.7583 40.8519C31.5478 40.8519 33.9367 40.3383 36.0887 38.1863C39.8077 34.4672 38.6258 30.0161 38.351 29.1611ZM25.9364 37.41C25.913 37.8887 25.8458 38.291 25.7815 38.5803C24.6542 38.8308 21.8336 39.1285 19.4 36.6948C17.003 34.298 17.2543 31.5241 17.5196 30.3138C18.2285 30.1597 19.6117 29.988 21.1431 30.4849C21.2439 30.5227 21.3444 30.5584 21.4444 30.5916C22.2554 30.8991 23.0975 31.4011 23.8956 32.1991C25.4163 33.7199 25.8705 35.3915 25.9364 36.7063V37.41ZM25.9364 27.594C25.913 28.0727 25.8458 28.475 25.7815 28.7642C25.083 28.9196 23.7345 29.092 22.2309 28.6227C22.0785 28.564 21.9269 28.5105 21.7764 28.4621C20.9898 28.1514 20.1753 27.654 19.3999 26.8787C17.003 24.4818 17.2543 21.708 17.5196 20.4978C18.6459 20.2529 21.4744 19.962 23.8956 22.3831C23.911 22.3985 23.9249 22.414 23.94 22.4293C24.0325 22.5331 24.1253 22.6323 24.218 22.7277C25.4803 24.1527 25.8754 25.6741 25.9364 26.8903V27.594ZM27.0059 22.3022C26.6754 22.0902 26.1991 21.7408 25.7153 21.2357C25.666 21.1816 25.6161 21.1275 25.5648 21.0736C24.6836 20.0948 23.8252 18.5932 23.8252 16.4574C23.8252 13.0195 26.0253 11.2357 26.9989 10.6147C28.0415 11.2819 30.183 13.0657 30.183 16.4574C30.183 18.4729 29.4267 19.9191 28.6049 20.8965C28.4341 21.0676 28.2742 21.2404 28.1235 21.414C27.7018 21.8239 27.298 22.1162 27.0059 22.3022ZM28.0523 27.2521C28.0508 26.014 28.3711 24.3754 29.6825 22.8366C29.8378 22.6822 29.994 22.5161 30.1489 22.3376C32.569 19.957 35.3568 20.2478 36.477 20.4957C36.7425 21.7048 36.9954 24.4804 34.5971 26.8787C33.8232 27.6527 33.0102 28.1497 32.225 28.4606C32.072 28.5097 31.9179 28.5641 31.7628 28.6239C30.2594 29.0925 28.9117 28.9194 28.216 28.7646C28.1379 28.413 28.0552 27.8968 28.0522 27.279C28.0522 27.2701 28.0523 27.2611 28.0523 27.2521ZM34.5971 36.6948C32.1631 39.1289 29.3424 38.8307 28.2176 38.5812C27.9724 37.4592 27.676 34.6247 30.1015 32.1991C30.8775 31.4231 31.6927 30.9256 32.4799 30.6149C32.6301 30.5666 32.7812 30.5134 32.9332 30.4548C34.4336 29.9865 35.7791 30.1574 36.477 30.3117C36.7425 31.521 36.9954 34.2966 34.5971 36.6948Z" fill="#003354"/>
<path d="M32.6271 2.08756C30.7887 1.69775 28.8954 1.5 26.9998 1.5C19.7879 1.5 13.0077 4.3084 7.90809 9.40809C2.80851 14.5077 0 21.2879 0 28.4998C0 34.5091 2.02182 40.3752 5.70539 45.0984C5.29101 45.7395 5.06794 46.4862 5.06794 47.2677C5.06794 48.3382 5.48486 49.3446 6.2418 50.1016C6.99875 50.8586 8.00523 51.2755 9.07573 51.2755C10.1462 51.2755 11.1527 50.8586 11.9096 50.1016C12.6667 49.3446 13.0835 48.3382 13.0835 47.2677C13.0835 46.1972 12.6666 45.1908 11.9096 44.4338C11.1527 43.6767 10.1462 43.2598 9.07573 43.2598C8.44123 43.2598 7.82962 43.4074 7.27876 43.6843C3.94049 39.3509 2.10936 33.9906 2.10936 28.4998C2.10936 14.7751 13.2751 3.60936 26.9998 3.60936C28.7487 3.60936 30.4947 3.79161 32.1895 4.15104C32.7597 4.2718 33.3192 3.90783 33.4401 3.33809C33.5609 2.76825 33.197 2.20843 32.6271 2.08756ZM7.73333 45.9252C8.10342 45.555 8.58952 45.37 9.07573 45.37C9.56193 45.37 10.048 45.5551 10.4181 45.9252C10.7767 46.2837 10.9741 46.7605 10.9741 47.2676C10.9741 47.7747 10.7767 48.2514 10.4181 48.61C9.67795 49.3504 8.4735 49.3502 7.73333 48.61C7.37474 48.2515 7.1773 47.7747 7.1773 47.2676C7.1773 46.7605 7.37474 46.2838 7.73333 45.9252Z" fill="#003354"/>
<path d="M48.2943 11.9013C48.7087 11.2603 48.9317 10.5135 48.9317 9.73202C48.9317 8.66153 48.5148 7.65504 47.7579 6.8981C47.0009 6.14105 45.9944 5.72424 44.9239 5.72424C43.8534 5.72424 42.847 6.14116 42.09 6.8981C41.3331 7.65504 40.9162 8.66153 40.9162 9.73202C40.9162 10.8025 41.3331 11.809 42.09 12.5659C42.847 13.323 43.8534 13.7398 44.9239 13.7398C45.5585 13.7398 46.17 13.5923 46.721 13.3153C50.0592 17.6489 51.8903 23.0092 51.8903 28.4999C51.8903 42.2246 40.7245 53.3904 26.9999 53.3904C25.5234 53.3904 24.0442 53.2602 22.6031 53.0034C22.03 52.9014 21.4819 53.2831 21.3798 53.8567C21.2776 54.4302 21.6596 54.9779 22.2331 55.0801C23.796 55.3585 25.3997 55.4997 26.9999 55.4997C34.2118 55.4997 40.992 52.6912 46.0917 47.5917C51.1914 42.4923 53.9997 35.7118 53.9997 28.4999C53.9997 22.4906 51.9778 16.6246 48.2943 11.9013ZM46.2664 11.0744C45.908 11.433 45.4311 11.6304 44.9241 11.6304C44.417 11.6304 43.9401 11.4331 43.5817 11.0744C42.8414 10.3342 42.8414 9.12991 43.5817 8.38963C43.9401 8.03104 44.417 7.8336 44.9241 7.8336C45.4311 7.8336 45.9079 8.03104 46.2664 8.38963C46.625 8.74811 46.8225 9.22493 46.8225 9.73202C46.8225 10.2391 46.625 10.7158 46.2664 11.0744Z" fill="#003354"/>
<path d="M37.1061 3.45629L37.0873 3.4488C36.5466 3.23238 35.9328 3.49552 35.7164 4.03636C35.5 4.5772 35.7631 5.19081 36.3039 5.40723L36.316 5.41209C36.4455 5.4644 36.5791 5.48908 36.7107 5.48908C37.128 5.48908 37.523 5.23986 37.6889 4.82927C37.9071 4.28917 37.6462 3.6745 37.1061 3.45629Z" fill="#003354"/>
</svg>
