<svg width="56" height="56" viewBox="0 0 56 56" fill="none" xmlns="http://www.w3.org/2000/svg">
<path d="M44.6091 19.34C42.6936 19.34 40.8931 18.5938 39.5389 17.2397C36.7422 14.443 36.7422 9.89245 39.5389 7.09748C42.3355 4.30084 46.8844 4.30084 49.6811 7.09748C51.0352 8.45166 51.7815 10.2522 51.7815 12.1694C51.7815 14.0849 51.0352 15.8855 49.6811 17.2413C48.3269 18.5938 46.5246 19.34 44.6091 19.34ZM44.6091 7.14412C43.3233 7.14412 42.0357 7.63382 41.0563 8.61322C39.0975 10.572 39.0975 13.7618 41.0563 15.7206C42.0057 16.67 43.2666 17.193 44.6091 17.193C45.9517 17.193 47.2142 16.67 48.1636 15.7206C49.1131 14.7712 49.6361 13.5086 49.6361 12.1677C49.6361 10.8252 49.1131 9.56265 48.1636 8.61322C47.1826 7.63382 45.8967 7.14412 44.6091 7.14412Z" fill="#003354"/>
<path d="M5.7288 50.6043C4.51786 50.6043 3.30527 50.1429 2.38249 49.2202C1.49137 48.329 1 47.1414 1 45.8738C1 44.6063 1.49137 43.4187 2.38249 42.5275L18.5494 26.3607C18.7925 26.1175 19.1357 26.0059 19.4755 26.0592C19.8152 26.1125 20.1084 26.3257 20.2633 26.6322L23.7545 33.4914C23.9661 33.9061 23.8861 34.4091 23.5563 34.7373L9.07177 49.2202C8.15233 50.1429 6.94139 50.6043 5.7288 50.6043ZM19.0224 28.9225L3.89991 44.045C3.41354 44.5313 3.14703 45.1809 3.14703 45.8738C3.14703 46.5668 3.41354 47.2164 3.89991 47.7027C4.90929 48.7121 6.54997 48.7105 7.55769 47.7027L21.4909 33.7712L19.0224 28.9225Z" fill="#003354"/>
<path d="M23.9984 53.8988C22.8974 53.8988 21.8613 53.4707 21.0835 52.6912C20.3039 51.9133 19.8759 50.8773 19.8759 49.7763C19.8759 48.6753 20.3056 47.6392 21.0835 46.8614L27.6228 40.322L18.5483 31.2458C17.2008 29.8983 17.2025 27.708 18.5483 26.3605L28.429 16.4798L26.0521 14.1029H15.81C13.5364 14.1029 11.6875 12.254 11.6875 9.98041C11.6875 7.70679 13.5364 5.85791 15.81 5.85791H28.0376C28.9604 5.85791 29.8265 6.21769 30.4794 6.86896L44.5059 20.8955C44.7058 21.0953 44.8191 21.3652 44.8207 21.6483L44.849 26.6803H51.8781C54.1517 26.6803 56.0006 28.5292 56.0006 30.8028C56.0006 33.0764 54.1517 34.9253 51.8781 34.9253H40.027C39.1042 34.9253 38.2364 34.5655 37.5835 33.9125C36.9305 33.2596 36.5707 32.3918 36.5724 31.469L36.5741 28.3109L31.9252 32.9598L36.3692 37.4038C37.1487 38.1816 37.5768 39.2177 37.5768 40.3187C37.5768 41.4197 37.1471 42.4557 36.3692 43.2336L26.9133 52.6895C26.1354 53.4707 25.0994 53.8988 23.9984 53.8988ZM15.81 8.00494C14.7207 8.00494 13.8345 8.89107 13.8345 9.98041C13.8345 11.0697 14.7207 11.9559 15.81 11.9559H26.4968C26.7817 11.9559 27.0548 12.0691 27.2564 12.2707L30.706 15.7203C30.9075 15.9218 31.0208 16.195 31.0208 16.4798C31.0208 16.7646 30.9075 17.0378 30.706 17.2393L20.0657 27.8779C19.5561 28.3876 19.5561 29.2171 20.0657 29.7268L29.8998 39.5608C30.3179 39.9805 30.3179 40.6585 29.8998 41.0782L22.6009 48.3771C22.2278 48.7502 22.0212 49.2466 22.0212 49.7746C22.0212 50.3026 22.2261 50.799 22.5992 51.1721C23.3454 51.92 24.648 51.9183 25.3942 51.1721L34.8501 41.7161C35.2232 41.343 35.4298 40.8467 35.4298 40.3187C35.4298 39.7907 35.2249 39.296 34.8501 38.9228L29.6483 33.7193C29.2285 33.2996 29.2285 32.6217 29.6483 32.2019L36.8889 24.9613C37.197 24.6532 37.6584 24.5632 38.0582 24.7281C38.4596 24.8947 38.7211 25.2861 38.7211 25.7192L38.7194 31.469C38.7194 31.8188 38.8543 32.147 39.1025 32.3935C39.349 32.64 39.6772 32.7766 40.027 32.7766H51.8781C52.9674 32.7766 53.8536 31.8904 53.8536 30.7994C53.8536 29.7101 52.9674 28.824 51.8781 28.824H43.7814C43.1917 28.824 42.712 28.3476 42.7087 27.7563L42.6754 22.0981L28.9604 8.38304C28.7138 8.13653 28.3857 7.99994 28.0359 7.99994H15.81V8.00494ZM37.6467 31.4707H37.6517H37.6467Z" fill="#003354"/>
<path d="M20.3704 20.2565H12.2387C11.6457 20.2565 11.166 19.7751 11.166 19.1838V19.0739C11.166 18.4809 11.6474 18.0012 12.2387 18.0012H20.3704C20.9634 18.0012 21.4431 18.4826 21.4431 19.0739V19.1838C21.4448 19.7768 20.9634 20.2565 20.3704 20.2565Z" fill="#003354"/>
<path d="M13.2566 26.3539H7.15862C6.56565 26.3539 6.08594 25.8726 6.08594 25.2812V25.1713C6.08594 24.5783 6.56731 24.0986 7.15862 24.0986H13.2566C13.8496 24.0986 14.3293 24.58 14.3293 25.1713V25.2812C14.3309 25.8742 13.8496 26.3539 13.2566 26.3539Z" fill="#003354"/>
<path d="M7.15613 32.4543H3.09026C2.49729 32.4543 2.01758 31.9729 2.01758 31.3816V31.2717C2.01758 30.6787 2.49895 30.199 3.09026 30.199H7.15613C7.7491 30.199 8.22881 30.6803 8.22881 31.2717V31.3816C8.22881 31.9746 7.7491 32.4543 7.15613 32.4543Z" fill="#003354"/>
</svg>
