<svg width="56" height="56" viewBox="0 0 56 56" fill="none" xmlns="http://www.w3.org/2000/svg">
<path d="M47.3954 4.66373C47.08 4.3406 46.5625 4.33394 46.2395 4.64912L40.7687 9.98402L41.4349 6.66414C41.5236 6.22167 41.2369 5.79069 40.7942 5.70185C40.3521 5.61355 39.9207 5.89983 39.832 6.34252L38.6953 12.0057L36.3507 14.2921L37.0016 11.0489C37.0904 10.6064 36.8036 10.1754 36.3609 10.0866C35.9185 9.99799 35.4874 10.2846 35.3986 10.7273L34.2775 16.3139L30.026 20.4595C29.7028 20.7747 29.6964 21.2922 30.0114 21.6155C30.1717 21.7796 30.3841 21.8621 30.5969 21.8621C30.8027 21.8621 31.0085 21.785 31.1675 21.63L35.1606 17.7361L41.1563 17.6338C41.6077 17.626 41.9673 17.2539 41.9597 16.8024C41.952 16.3557 41.5875 15.9989 41.1426 15.9989C41.1378 15.9989 41.133 15.9989 41.1283 15.999L36.8673 16.0717L39.6581 13.3503L45.5895 13.2489C46.041 13.2412 46.4005 12.8691 46.3929 12.4176C46.3852 11.9708 46.0208 11.614 45.5758 11.614C45.571 11.614 45.5663 11.614 45.5615 11.6142L41.3649 11.6859L47.3808 5.81948C47.7042 5.5043 47.7106 4.98685 47.3954 4.66373Z" fill="#003354"/>
<path d="M14.0713 16.4159C13.8095 16.1186 13.5551 15.8098 13.3151 15.4979C13.04 15.1401 12.5269 15.0729 12.1687 15.3482C11.8109 15.6234 11.7439 16.1367 12.0191 16.4946C12.281 16.8353 12.5587 17.1725 12.8444 17.4967C13.0061 17.68 13.6125 17.9658 13.9984 17.5697C14.3133 17.2463 14.3697 16.7546 14.0713 16.4159Z" fill="#003354"/>
<path d="M31.9568 43.0298C30.4846 43.0298 29.2871 44.2274 29.2871 45.6994C29.2871 47.1715 30.4848 48.3691 31.9568 48.3691C33.4289 48.3691 34.6264 47.1714 34.6264 45.6994C34.6265 44.2274 33.4289 43.0298 31.9568 43.0298ZM31.9568 46.7343C31.3861 46.7343 30.922 46.2702 30.922 45.6995C30.922 45.1289 31.3861 44.6647 31.9568 44.6647C32.5274 44.6647 32.9916 45.1289 32.9916 45.6995C32.9916 46.2701 32.5274 46.7343 31.9568 46.7343Z" fill="#003354"/>
<path d="M41.2751 32.2109C39.8031 32.2109 38.6055 33.4086 38.6055 34.8807C38.6055 36.3528 39.8031 37.5504 41.2751 37.5504C42.7472 37.5504 43.9448 36.3527 43.9448 34.8807C43.9448 33.4085 42.7472 32.2109 41.2751 32.2109ZM41.2752 35.9155C40.7046 35.9155 40.2404 35.4513 40.2404 34.8807C40.2404 34.3101 40.7046 33.8458 41.2752 33.8458C41.8459 33.8458 42.31 34.31 42.31 34.8807C42.31 35.4512 41.8459 35.9155 41.2752 35.9155Z" fill="#003354"/>
<path d="M12.9372 31.5576C11.4651 31.5576 10.2676 32.7553 10.2676 34.2274C10.2676 35.6995 11.4652 36.897 12.9372 36.897C13.3888 36.897 13.7547 36.5312 13.7547 36.0795C13.7547 35.6279 13.3888 35.2621 12.9372 35.2621C12.3666 35.2621 11.9024 34.7979 11.9024 34.2273C11.9024 33.6566 12.3666 33.1924 12.9372 33.1924C13.5079 33.1924 13.972 33.6566 13.972 34.2273C13.972 34.6789 14.3379 35.0448 14.7895 35.0448C15.2411 35.0448 15.607 34.6789 15.607 34.2273C15.6069 32.7552 14.4093 31.5576 12.9372 31.5576Z" fill="#003354"/>
<path d="M48.1362 43.7469C47.5195 43.7469 46.912 43.8578 46.3411 44.0714C44.1039 38.5379 38.0711 38.9267 37.8555 38.943C36.3784 36.0122 33.6906 33.9223 30.5629 33.1751C30.6491 30.4198 30.9002 27.7446 31.3153 25.2094C33.2199 25.0268 36.9161 24.3788 40.7216 22.0968C43.4505 20.4604 45.7194 18.2848 47.4651 15.6306C49.5624 12.4415 50.892 8.56799 51.4169 4.11793C51.5143 3.29335 51.2426 2.47469 50.6716 1.87184C50.1015 1.26984 49.296 0.954238 48.469 1.00559C48.259 1.01901 43.2681 1.36405 38.1929 4.09891C34.6676 5.99846 31.7038 9.134 29.5996 13.1263C29.1759 12.2585 28.7057 11.4281 28.1922 10.6475C26.4463 7.99307 24.1773 5.81756 21.4486 4.1812C16.2039 1.0362 11.0796 1 10.8641 1C10.5019 1 9.5402 1 8.7124 1.82822C8.16906 2.37178 7.87183 3.12416 7.89718 3.89212C8.01749 7.5825 8.85506 10.9127 10.3868 13.7901C10.5987 14.1884 11.0935 14.3398 11.4925 14.1275C11.8909 13.9155 12.0421 13.4204 11.8299 13.0218C10.4165 10.3669 9.64311 7.27732 9.53107 3.83863C9.52065 3.52055 9.64365 3.20903 9.8687 2.98387C10.2175 2.63486 10.6223 2.63486 10.8642 2.63486C11.0613 2.63486 15.7468 2.66848 20.6079 5.58338C23.1245 7.09234 25.2165 9.09844 26.8263 11.5457C27.5353 12.6237 28.1583 13.8045 28.6787 15.0555C28.4013 15.7007 28.1437 16.3635 27.9091 17.0441C27.7478 17.5188 27.5659 18.094 27.3752 18.7652L24.8613 16.3138L23.7401 10.7272C23.6514 10.2845 23.2206 9.99789 22.7778 10.0865C22.3351 10.1753 22.0484 10.6063 22.1372 11.0488L22.788 14.292L20.4433 12.0056L19.3068 6.34242C19.2181 5.89974 18.7871 5.61335 18.3445 5.70176C17.9018 5.7907 17.6151 6.22147 17.7038 6.66404L18.3701 9.98403L12.8991 4.64891C12.5756 4.33374 12.0584 4.3404 11.7431 4.66352C11.4279 4.98676 11.4345 5.50432 11.7577 5.81938L17.7737 11.6858L13.577 11.6141C13.1259 11.6017 12.7534 11.966 12.7457 12.4175C12.738 12.869 13.0976 13.2411 13.5491 13.2488L19.4804 13.3502L22.2711 16.0716L18.0102 15.9989C17.5629 15.9889 17.1866 16.3508 17.1789 16.8023C17.1713 17.2538 17.5308 17.6259 17.9823 17.6337L23.9778 17.736L26.9006 20.5861C26.7144 21.366 26.5289 22.2294 26.3536 23.1781C24.5818 22.7872 22.1516 22.0633 19.6955 20.74C18.4564 20.0724 17.3033 19.2982 16.268 18.4389C15.9206 18.1505 15.4052 18.1983 15.1169 18.5457C14.8285 18.8931 14.8764 19.4084 15.2237 19.6967C16.3421 20.6252 17.5857 21.4604 18.9198 22.1791C21.5734 23.6091 24.1917 24.3804 26.0794 24.7916C25.7107 27.1665 25.4241 29.9755 25.3351 33.1984C22.2508 33.9662 19.6054 36.0436 18.1444 38.9428C17.9287 38.9264 12.1958 38.3094 9.65879 44.0712C9.08795 43.8575 8.48037 43.7467 7.86366 43.7467C5.04083 43.7467 2.74414 46.0433 2.74414 48.8662C2.74414 51.6892 5.04072 53.9857 7.86366 53.9857C8.98633 53.9857 10.0715 53.6147 10.9545 52.9462C12.5695 54.8737 14.9535 56 17.4991 56C19.6199 56 21.6151 55.2352 23.181 53.8343C24.6762 54.5602 26.3298 54.9418 27.9997 54.9418C29.6696 54.9418 31.3232 54.5603 32.8185 53.8343C34.3843 55.2353 36.3796 56 38.5004 56C41.046 56 43.4302 54.8737 45.045 52.9462C45.9281 53.6147 47.0133 53.9857 48.1359 53.9857C50.9587 53.9857 53.2554 51.6892 53.2554 48.8662C53.2554 46.0433 50.959 43.7469 48.1362 43.7469ZM29.4558 17.5734C31.3425 12.1011 34.7208 7.82689 38.9685 5.53805C43.7323 2.97087 48.3775 2.64947 48.5715 2.63722C48.9163 2.61627 49.2486 2.74679 49.4847 2.99601C49.7212 3.24577 49.8337 3.58468 49.7933 3.92639C49.2985 8.12187 48.0556 11.7576 46.0991 14.7323C44.4893 17.1796 42.3972 19.1857 39.8806 20.6948C35.7763 23.1558 31.716 23.5619 30.5691 23.6276C30.1905 23.6493 29.8766 23.9286 29.8109 24.3021C29.3306 27.0334 29.0383 29.9278 28.9358 32.9135C28.6262 32.8872 28.3144 32.8721 27.9997 32.8721C27.6563 32.8721 27.3157 32.8896 26.9781 32.921C27.2378 24.9073 28.7867 19.5437 29.4558 17.5734ZM48.1362 52.351C47.1475 52.351 46.2014 51.9279 45.5407 51.1905C45.3717 51.0021 45.1246 50.9028 44.8735 50.9207C44.6214 50.9386 44.3917 51.0723 44.2516 51.2827C42.9653 53.2129 40.8156 54.3652 38.5008 54.3652C36.6198 54.3652 34.8609 53.6209 33.5479 52.2694C33.3898 52.1067 33.1768 52.0216 32.9611 52.0216C32.8254 52.0216 32.6886 52.0555 32.5638 52.1249C31.1745 52.8984 29.5963 53.3073 28.0002 53.3073C26.404 53.3073 24.8258 52.8984 23.4365 52.1249C23.1133 51.9449 22.71 52.0044 22.4525 52.2694C21.1396 53.6209 19.3806 54.3652 17.4996 54.3652C15.1849 54.3652 13.0351 53.2129 11.7488 51.2827C11.6086 51.0723 11.3789 50.9387 11.1269 50.9207C10.8763 50.903 10.6286 51.0022 10.4597 51.1905C9.79887 51.9281 8.85281 52.351 7.8642 52.351C5.94274 52.351 4.37953 50.7878 4.37953 48.8663C4.37953 46.9449 5.94274 45.3816 7.8642 45.3816C8.50895 45.3816 9.13855 45.5592 9.68511 45.8951C9.90082 46.0278 10.1654 46.0526 10.4023 45.9633C10.6389 45.8739 10.8209 45.6796 10.8949 45.4376C11.7879 42.5159 14.4422 40.553 17.4996 40.553C17.8364 40.553 18.1785 40.5782 18.5163 40.6281C18.8809 40.6814 19.237 40.4849 19.3847 40.1468C20.8823 36.7205 24.2642 34.5068 28.0003 34.5068C31.7363 34.5068 35.1183 36.7206 36.6158 40.1468C36.7634 40.4847 37.1191 40.6816 37.4842 40.6281C37.8221 40.5782 38.1641 40.553 38.5009 40.553C41.5583 40.553 44.2126 42.5159 45.1056 45.4376C45.1796 45.6796 45.3616 45.8739 45.5983 45.9633C45.8352 46.0527 46.0998 46.0278 46.3154 45.8951C46.862 45.5592 47.4917 45.3816 48.1363 45.3816C50.0578 45.3816 51.621 46.9449 51.621 48.8663C51.621 50.7878 50.0577 52.351 48.1362 52.351Z" fill="#003354"/>
</svg>
