<svg width="56" height="56" viewBox="0 0 56 56" fill="none" xmlns="http://www.w3.org/2000/svg">
<path d="M50.9978 15.7167H42.5391V17.6868H50.9978V15.7167Z" fill="#003354"/>
<path d="M39.5004 16.9287L40.2683 14.7991C40.4531 14.2872 40.1877 13.7232 39.6758 13.5383C39.1671 13.3535 38.5999 13.6189 38.415 14.1308L37.6915 16.1388C37.0469 16.0614 36.3833 16.1514 35.8288 16.4595C28.6308 20.4487 25.7444 20.7363 21.8484 20.7363L19.8688 20.7299C14.009 20.7299 10.7812 23.5469 10.7812 28.6626V31.0182C11.4764 31.1793 12.14 31.4274 12.7514 31.7623V28.6641C12.7514 24.6512 15.0801 22.7016 19.8688 22.7016L21.8484 22.708C25.9387 22.708 29.1885 22.3936 36.7846 18.1832C37.2459 17.9272 38.0011 18.1626 38.2729 18.4897C39.0012 19.3665 38.7547 20.3192 38.0927 20.8153C35.1652 23.0097 30.8189 25.1773 26.4569 26.6055C26.0524 26.7383 25.7775 27.1159 25.7775 27.5424V31.1351C26.4047 30.9487 27.0651 30.8428 27.7477 30.8223V28.2518C32.1255 26.7477 36.317 24.6591 39.2745 22.3904C41.2478 20.8769 41.0535 18.4312 39.5004 16.9287Z" fill="#003354"/>
<path d="M14.3438 13.6661C14.3438 17.0076 17.0627 19.7266 20.4042 19.7266C23.7472 19.7266 26.4662 17.0076 26.4662 13.6661C26.4662 10.3231 23.7472 7.60254 20.4042 7.60254C17.0627 7.60254 14.3438 10.3231 14.3438 13.6661ZM24.4961 13.6661C24.4961 15.9222 22.6603 17.7565 20.4042 17.7565C18.1481 17.7565 16.3139 15.9206 16.3139 13.6661C16.3139 11.4085 18.1497 9.57266 20.4042 9.57266C22.6619 9.57266 24.4961 11.4101 24.4961 13.6661Z" fill="#003354"/>
<path d="M50.9969 8.22351H31.043V10.1936H50.9969V8.22351Z" fill="#003354"/>
<path d="M14.8676 38.6376C14.8676 35.4067 12.2386 32.7778 9.00936 32.7778C5.78165 32.7778 3.1543 35.4067 3.1543 38.6376C3.1543 41.8669 5.78165 44.4942 9.00936 44.4942C12.2386 44.4942 14.8676 41.8669 14.8676 38.6376ZM5.12442 38.6376C5.12442 36.4921 6.86703 34.7479 9.00936 34.7479C11.1533 34.7479 12.8975 36.4921 12.8975 38.6376C12.8975 40.7815 11.1533 42.5241 9.00936 42.5241C6.86703 42.5241 5.12442 40.7815 5.12442 38.6376Z" fill="#003354"/>
<path d="M9.01009 47.1625C12.5143 47.1625 16.0501 48.6839 16.0501 52.0807H18.0202C18.0202 48.0251 14.3154 45.1924 9.01009 45.1924C3.70483 45.1924 0 48.0251 0 52.0807H1.97012C1.97012 48.6839 5.5059 47.1625 9.01009 47.1625Z" fill="#003354"/>
<path d="M46.9894 44.4942C50.2203 44.4942 52.8477 41.8669 52.8477 38.6376C52.8477 35.4067 50.2187 32.7778 46.9894 32.7778C43.7602 32.7778 41.1328 35.4067 41.1328 38.6376C41.1328 41.8669 43.7602 44.4942 46.9894 44.4942ZM46.9894 34.7479C49.1334 34.7479 50.8776 36.4921 50.8776 38.6376C50.8776 40.7815 49.1334 42.5241 46.9894 42.5241C44.8455 42.5241 43.1029 40.7815 43.1029 38.6376C43.1029 36.4921 44.8471 34.7479 46.9894 34.7479Z" fill="#003354"/>
<path d="M46.9886 45.1924C41.6833 45.1924 37.9785 48.0251 37.9785 52.0807H39.9486C39.9486 48.6839 43.4844 47.1625 46.9886 47.1625C50.4928 47.1625 54.0302 48.6839 54.0302 52.0807H56.0003C56.0003 48.0251 52.2939 45.1924 46.9886 45.1924Z" fill="#003354"/>
<path d="M27.9992 44.4942C31.2301 44.4942 33.8574 41.8669 33.8574 38.636C33.8574 35.4067 31.2301 32.7778 27.9992 32.7778C24.7699 32.7778 22.1426 35.4051 22.1426 38.636C22.1426 41.8669 24.7699 44.4942 27.9992 44.4942ZM27.9992 34.7479C30.1431 34.7479 31.8873 36.4921 31.8873 38.636C31.8873 40.7799 30.1431 42.5241 27.9992 42.5241C25.8553 42.5241 24.1127 40.7799 24.1127 38.636C24.1127 36.4921 25.8569 34.7479 27.9992 34.7479Z" fill="#003354"/>
<path d="M28.0003 45.1924C22.6951 45.1924 18.9902 48.0251 18.9902 52.0807H20.9604C20.9604 48.6839 24.4961 47.1625 28.0003 47.1625C31.5045 47.1625 35.0419 48.6839 35.0419 52.0807H37.012C37.012 48.0251 33.3056 45.1924 28.0003 45.1924Z" fill="#003354"/>
</svg>
