<svg width="56" height="56" viewBox="0 0 56 56" fill="none" xmlns="http://www.w3.org/2000/svg">
<path d="M5.82159 26.4467C5.5472 25.3687 5.38108 24.2205 5.38108 22.9802C5.38108 14.6181 12.3952 9.00146 18.9465 9.00146C24.6479 9.00146 29.0012 11.9239 32.2509 17.9354C32.5015 18.3991 32.3235 18.9754 31.8534 19.2226C31.3847 19.4712 30.7988 19.2957 30.5481 18.8306C27.6633 13.4962 23.8693 10.9044 18.9465 10.9044C14.0682 10.9044 7.31073 15.1008 7.31073 22.9787C7.31073 24.2293 7.49168 25.3804 7.80612 26.4452H5.82159V26.4467ZM42.4361 9C38.5501 9 35.2025 10.4144 32.4852 13.2037C32.1159 13.5825 32.1278 14.1852 32.5119 14.5494C32.8961 14.9121 33.5071 14.9019 33.8765 14.523C36.2155 12.1228 39.0944 10.9044 42.4346 10.9044C47.3129 10.9044 54.0703 15.1008 54.0703 22.9787C54.0703 29.8006 49.9025 33.2847 46.5534 36.0842C46.0625 36.4938 45.5908 36.8887 45.1563 37.2661C42.5117 39.1441 34.2191 45.2405 30.692 50.2268C27.1353 45.0372 18.9539 38.5986 17.22 37.2631C16.7988 36.9033 16.2782 36.5026 15.6953 36.0535C14.3352 35.0062 12.6948 33.7367 11.2249 32.157H8.7005C10.5501 34.5046 12.812 36.2481 14.5073 37.5542C15.0605 37.9799 15.5544 38.3601 15.9578 38.7039C15.9697 38.7141 16.0231 38.7551 16.035 38.7653C17.1592 39.6312 27.0908 47.3717 29.8303 52.4925C29.9979 52.804 30.3257 53 30.6831 53C31.0406 53 31.3698 52.8055 31.536 52.4925C34.182 47.5603 44.2856 40.2309 46.2835 38.8121C46.3844 38.7404 46.4348 38.698 46.4422 38.6922C46.8664 38.3177 47.3247 37.936 47.8008 37.5367C51.2612 34.645 56 30.6841 56 22.9802C56.0015 14.6181 48.9874 9 42.4361 9ZM26.3922 37.6391L28.6037 30.7411H29.3927L30.3079 32.1175C30.5037 32.4129 30.8507 32.5709 31.2067 32.5431C31.5641 32.5095 31.8727 32.2828 32.0076 31.9566L33.568 28.2034L34.0055 29.5856C34.1316 29.9834 34.5053 30.254 34.9266 30.254H44.2278C44.7603 30.254 45.1933 29.8284 45.1933 29.3018C45.1933 28.7767 44.7617 28.3496 44.2278 28.3496H35.637L34.6136 25.1128C34.492 24.7295 34.1405 24.4619 33.7341 24.4458C33.3277 24.4326 32.9539 24.6652 32.7997 25.0352C32.7997 25.0352 31.1147 29.059 30.9175 29.5622C30.5867 29.0005 30.3153 28.8382 29.9148 28.8382H27.8977C27.4764 28.8382 27.1041 29.1073 26.9766 29.5037L26.0763 32.312L25.1493 19.4756C25.1152 19.0105 24.7444 18.6375 24.2742 18.5951C23.7996 18.5571 23.3709 18.854 23.2522 19.3045L20.8509 28.4652L19.8335 26.3341C19.6866 26.0269 19.384 25.8192 19.0414 25.7914C18.7018 25.7607 18.3651 25.9172 18.1693 26.1966L16.649 28.3511H0.965569C0.433097 28.3511 0 28.7767 0 29.3033C0 29.8284 0.431614 30.2555 0.965569 30.2555H17.1503C17.4663 30.2555 17.7629 30.1034 17.9424 29.8474L18.7967 28.6363L20.2413 31.6611C20.4149 32.0239 20.8005 32.2374 21.2039 32.2023C21.6089 32.1643 21.947 31.8805 22.0479 31.4929L23.6409 25.4185L24.507 37.4226C24.5397 37.8789 24.9298 38.2636 25.4133 38.3031C25.8805 38.3397 26.2632 38.0384 26.3922 37.6391Z" fill="#003354"/>
</svg>
