<svg width="56" height="56" viewBox="0 0 56 56" fill="none" xmlns="http://www.w3.org/2000/svg">
<path d="M44.6091 19.34C42.6936 19.34 40.8931 18.5938 39.5389 17.2397C36.7422 14.443 36.7422 9.89245 39.5389 7.09748C42.3355 4.30084 46.8844 4.30084 49.6811 7.09748C51.0352 8.45166 51.7815 10.2522 51.7815 12.1694C51.7815 14.0849 51.0352 15.8855 49.6811 17.2413C48.3269 18.5938 46.5246 19.34 44.6091 19.34ZM44.6091 7.14412C43.3233 7.14412 42.0357 7.63382 41.0563 8.61322C39.0975 10.572 39.0975 13.7618 41.0563 15.7206C42.0057 16.67 43.2666 17.193 44.6091 17.193C45.9517 17.193 47.2142 16.67 48.1636 15.7206C49.1131 14.7712 49.6361 13.5086 49.6361 12.1677C49.6361 10.8252 49.1131 9.56265 48.1636 8.61322C47.1826 7.63382 45.8967 7.14412 44.6091 7.14412Z" fill="#003354"/>
<path d="M5.7288 50.6044C4.51786 50.6044 3.30527 50.143 2.38249 49.2203C1.49137 48.3291 1 47.1415 1 45.874C1 44.6064 1.49137 43.4188 2.38249 42.5277L18.5494 26.3608C18.7925 26.1176 19.1357 26.006 19.4755 26.0593C19.8152 26.1126 20.1084 26.3258 20.2633 26.6323L23.7545 33.4915C23.9661 33.9062 23.8861 34.4093 23.5563 34.7374L9.07177 49.2203C8.15233 50.143 6.94139 50.6044 5.7288 50.6044ZM19.0224 28.9226L3.89991 44.0451C3.41354 44.5315 3.14703 45.1811 3.14703 45.874C3.14703 46.5669 3.41354 47.2165 3.89991 47.7029C4.90929 48.7122 6.54997 48.7106 7.55769 47.7029L21.4909 33.7713L19.0224 28.9226Z" fill="#003354"/>
<path d="M23.9984 53.8987C22.8974 53.8987 21.8613 53.4706 21.0835 52.6911C20.3039 51.9132 19.8759 50.8772 19.8759 49.7762C19.8759 48.6752 20.3056 47.6392 21.0835 46.8613L27.6228 40.3219L18.5483 31.2458C17.2008 29.8983 17.2025 27.7079 18.5483 26.3604L28.429 16.4797L26.0521 14.1028H15.81C13.5364 14.1028 11.6875 12.254 11.6875 9.98035C11.6875 7.70673 13.5364 5.85785 15.81 5.85785H28.0376C28.9604 5.85785 29.8265 6.21763 30.4794 6.8689L44.5059 20.8954C44.7058 21.0953 44.8191 21.3651 44.8207 21.6483L44.849 26.6802H51.8781C54.1517 26.6802 56.0006 28.5291 56.0006 30.8027C56.0006 33.0763 54.1517 34.9252 51.8781 34.9252H40.027C39.1042 34.9252 38.2364 34.5654 37.5835 33.9125C36.9305 33.2596 36.5707 32.3917 36.5724 31.469L36.5741 28.3109L31.9252 32.9597L36.3692 37.4037C37.1487 38.1816 37.5768 39.2176 37.5768 40.3186C37.5768 41.4196 37.1471 42.4556 36.3692 43.2335L26.9133 52.6894C26.1354 53.4706 25.0994 53.8987 23.9984 53.8987ZM15.81 8.00488C14.7207 8.00488 13.8345 8.89101 13.8345 9.98035C13.8345 11.0697 14.7207 11.9558 15.81 11.9558H26.4968C26.7817 11.9558 27.0548 12.0691 27.2564 12.2706L30.706 15.7202C30.9075 15.9217 31.0208 16.1949 31.0208 16.4797C31.0208 16.7646 30.9075 17.0377 30.706 17.2393L20.0657 27.8778C19.5561 28.3875 19.5561 29.217 20.0657 29.7267L29.8998 39.5607C30.3179 39.9805 30.3179 40.6584 29.8998 41.0781L22.6009 48.377C22.2278 48.7502 22.0212 49.2465 22.0212 49.7745C22.0212 50.3025 22.2261 50.7989 22.5992 51.172C23.3454 51.9199 24.648 51.9182 25.3942 51.172L34.8501 41.7161C35.2232 41.343 35.4298 40.8466 35.4298 40.3186C35.4298 39.7906 35.2249 39.2959 34.8501 38.9228L29.6483 33.7193C29.2285 33.2995 29.2285 32.6216 29.6483 32.2019L36.8889 24.9613C37.197 24.6531 37.6584 24.5632 38.0582 24.7281C38.4596 24.8946 38.7211 25.2861 38.7211 25.7191L38.7194 31.469C38.7194 31.8188 38.8543 32.1469 39.1025 32.3934C39.349 32.6399 39.6772 32.7765 40.027 32.7765H51.8781C52.9674 32.7765 53.8536 31.8904 53.8536 30.7994C53.8536 29.71 52.9674 28.8239 51.8781 28.8239H43.7814C43.1917 28.8239 42.712 28.3475 42.7087 27.7562L42.6754 22.098L28.9604 8.38298C28.7138 8.13647 28.3857 7.99988 28.0359 7.99988H15.81V8.00488ZM37.6467 31.4706H37.6517H37.6467Z" fill="#003354"/>
<path d="M20.3704 20.2564H12.2387C11.6457 20.2564 11.166 19.775 11.166 19.1837V19.0738C11.166 18.4808 11.6474 18.0011 12.2387 18.0011H20.3704C20.9634 18.0011 21.4431 18.4825 21.4431 19.0738V19.1837C21.4448 19.7767 20.9634 20.2564 20.3704 20.2564Z" fill="#003354"/>
<path d="M13.2566 26.354H7.15862C6.56565 26.354 6.08594 25.8726 6.08594 25.2813V25.1714C6.08594 24.5784 6.56731 24.0987 7.15862 24.0987H13.2566C13.8496 24.0987 14.3293 24.5801 14.3293 25.1714V25.2813C14.3309 25.8743 13.8496 26.354 13.2566 26.354Z" fill="#003354"/>
<path d="M7.15613 32.4544H3.09026C2.49729 32.4544 2.01758 31.973 2.01758 31.3817V31.2718C2.01758 30.6788 2.49895 30.1991 3.09026 30.1991H7.15613C7.7491 30.1991 8.22881 30.6805 8.22881 31.2718V31.3817C8.22881 31.9747 7.7491 32.4544 7.15613 32.4544Z" fill="#003354"/>
</svg>
