<svg id="f458a76f-2439-45fa-916a-256df35ac4a8" data-name="Livello 1" xmlns="http://www.w3.org/2000/svg" viewBox="0 0 192.27 55.71"><defs><style>.f0f1c655-9929-4004-8893-272cc5b74dae{fill:#fff;}</style></defs><title>Logo_bandiera_negativo_bianconero</title><path class="f0f1c655-9929-4004-8893-272cc5b74dae" d="M121.09,65.28,117,58.23h-4.41v7.05h-2.43V48.71H119a4.77,4.77,0,0,1,.77,9.46l4.13,7.11Zm.23-11.82a2.29,2.29,0,0,0-.68-1.66,2.25,2.25,0,0,0-1.64-.69h-6.39V55.8H119a2.22,2.22,0,0,0,1.64-.7,2.24,2.24,0,0,0,.68-1.64" transform="translate(-45.69 -39.97)"/><path class="f0f1c655-9929-4004-8893-272cc5b74dae" d="M139.3,59a7.06,7.06,0,0,1-.1,1.21H128.94a4,4,0,0,0,1.48,2,4,4,0,0,0,5.88-1.23l2,1.35a6.53,6.53,0,0,1-10.11,1.19A6.47,6.47,0,1,1,139.3,59m-2.62-1.19a4.06,4.06,0,0,0-1.48-2.06,4,4,0,0,0-4.78,0,4.22,4.22,0,0,0-1.48,2.06Z" transform="translate(-45.69 -39.97)"/><path class="f0f1c655-9929-4004-8893-272cc5b74dae" d="M154.86,63.9a6.13,6.13,0,0,1-1.92,4.52,6.21,6.21,0,0,1-4.57,1.93,6.13,6.13,0,0,1-3.12-.85,7.5,7.5,0,0,1-2.41-2.25l2-1.34a4,4,0,0,0,3.48,2,3.7,3.7,0,0,0,2.88-1.18,4.73,4.73,0,0,0,1.15-2.91,6,6,0,0,1-4.23,1.66,5.93,5.93,0,0,1-4.45-1.9,6.57,6.57,0,0,1,0-9.1,5.91,5.91,0,0,1,4.45-1.92,6,6,0,0,1,4.26,1.72V52.76h2.43ZM152.43,59a4.08,4.08,0,1,0-1.2,2.86,3.89,3.89,0,0,0,1.2-2.86" transform="translate(-45.69 -39.97)"/><path class="f0f1c655-9929-4004-8893-272cc5b74dae" d="M159.48,48.71h2.43v2.4h-2.43Zm0,4h2.43V65.28h-2.43Z" transform="translate(-45.69 -39.97)"/><path class="f0f1c655-9929-4004-8893-272cc5b74dae" d="M178.47,59a6.23,6.23,0,0,1-1.91,4.57,6.54,6.54,0,0,1-9.16,0A6.47,6.47,0,1,1,178.47,59M176,59a4.08,4.08,0,1,0-1.2,2.86A3.89,3.89,0,0,0,176,59" transform="translate(-45.69 -39.97)"/><path class="f0f1c655-9929-4004-8893-272cc5b74dae" d="M190.58,65.28V58a2.93,2.93,0,0,0-.9-2.14,2.88,2.88,0,0,0-2.13-.9,2.93,2.93,0,0,0-2.14.9,3,3,0,0,0-.89,2.14v7.25h-2.44V52.76h2.44v1.17A4.9,4.9,0,0,1,188,52.56a4.64,4.64,0,0,1,3.64,1.68A5.53,5.53,0,0,1,193,58v7.25Z" transform="translate(-45.69 -39.97)"/><path class="f0f1c655-9929-4004-8893-272cc5b74dae" d="M209.59,59a7.07,7.07,0,0,1-.11,1.21H199.23a4.1,4.1,0,0,0,3.87,2.84,4,4,0,0,0,3.49-2l2,1.35a6.53,6.53,0,0,1-10.11,1.19A6.47,6.47,0,1,1,209.59,59M207,57.85a4,4,0,0,0-1.49-2.06,3.82,3.82,0,0,0-2.38-.8,3.87,3.87,0,0,0-2.39.8,4.15,4.15,0,0,0-1.48,2.06Z" transform="translate(-45.69 -39.97)"/><polygon class="f0f1c655-9929-4004-8893-272cc5b74dae" points="64.48 46.92 64.48 30.35 66.92 30.35 66.92 44.52 75.02 44.52 75.02 46.92 64.48 46.92"/><path class="f0f1c655-9929-4004-8893-272cc5b74dae" d="M135.25,80.65a6.26,6.26,0,0,1-1.9,4.57,6.56,6.56,0,0,1-9.17,0,6.47,6.47,0,1,1,11.07-4.57m-2.43,0a4.08,4.08,0,1,0-1.2,2.86,3.89,3.89,0,0,0,1.2-2.86" transform="translate(-45.69 -39.97)"/><path class="f0f1c655-9929-4004-8893-272cc5b74dae" d="M153.43,86.89V79.24a2.75,2.75,0,0,0-.69-1.84,2.2,2.2,0,0,0-1.73-.8,2.31,2.31,0,0,0-1.79.74,2.82,2.82,0,0,0-.64,1.9v7.65h-2.43V79.24a2.76,2.76,0,0,0-.7-1.84,2.2,2.2,0,0,0-1.73-.8,2.26,2.26,0,0,0-1.77.74,2.69,2.69,0,0,0-.65,1.9v7.65h-2.44V74.37h2.44v.79a4.36,4.36,0,0,1,2.83-1,4,4,0,0,1,3.26,1.61A4.64,4.64,0,0,1,151,74.17a4.49,4.49,0,0,1,3.44,1.51,5,5,0,0,1,1.41,3.56v7.65Z" transform="translate(-45.69 -39.97)"/><path class="f0f1c655-9929-4004-8893-272cc5b74dae" d="M173.46,80.65a6.33,6.33,0,0,1-1.84,4.54,5.92,5.92,0,0,1-4.44,1.9,6,6,0,0,1-4.25-1.68v1.48H160.5V70.32h2.43v5.57a6.1,6.1,0,0,1,8.69.2,6.46,6.46,0,0,1,1.84,4.56m-2.44,0a4,4,0,1,0-4,4,3.85,3.85,0,0,0,2.84-1.19,3.9,3.9,0,0,0,1.2-2.86" transform="translate(-45.69 -39.97)"/><path class="f0f1c655-9929-4004-8893-272cc5b74dae" d="M186.58,86.89V85.41a6,6,0,0,1-4.26,1.68,5.93,5.93,0,0,1-4.45-1.9,6.57,6.57,0,0,1,0-9.1,6.13,6.13,0,0,1,8.71-.2V74.37H189V86.89Zm0-6.24a4.08,4.08,0,1,0-1.2,2.86,3.89,3.89,0,0,0,1.2-2.86" transform="translate(-45.69 -39.97)"/><path class="f0f1c655-9929-4004-8893-272cc5b74dae" d="M199.3,76.6a3.32,3.32,0,0,0-2.28.87,2.77,2.77,0,0,0-1,2.17v7.25h-2.43V74.37h2.43v1.09a4.49,4.49,0,0,1,3.24-1.29Z" transform="translate(-45.69 -39.97)"/><path class="f0f1c655-9929-4004-8893-272cc5b74dae" d="M211.92,86.89V85.41a6,6,0,0,1-4.27,1.68,5.94,5.94,0,0,1-4.45-1.9,6.6,6.6,0,0,1,0-9.1,5.93,5.93,0,0,1,4.45-1.92,6,6,0,0,1,4.27,1.72V70.32h2.43V86.89Zm0-6.24a4.08,4.08,0,1,0-1.2,2.86,3.89,3.89,0,0,0,1.2-2.86" transform="translate(-45.69 -39.97)"/><path class="f0f1c655-9929-4004-8893-272cc5b74dae" d="M219,70.32h2.44v2.4H219Zm0,4.05h2.44V86.89H219Z" transform="translate(-45.69 -39.97)"/><path class="f0f1c655-9929-4004-8893-272cc5b74dae" d="M235.53,86.89V85.41a6,6,0,0,1-4.26,1.68,5.93,5.93,0,0,1-4.45-1.9,6.57,6.57,0,0,1,0-9.1,6.13,6.13,0,0,1,8.71-.2V74.37H238V86.89Zm0-6.24a4.08,4.08,0,1,0-1.2,2.86,3.89,3.89,0,0,0,1.2-2.86" transform="translate(-45.69 -39.97)"/><path class="f0f1c655-9929-4004-8893-272cc5b74dae" d="M96.09,40H51a5.31,5.31,0,0,0-5.31,5.31V90.37A5.31,5.31,0,0,0,51,95.68H96.09a5.31,5.31,0,0,0,5.31-5.31V45.28A5.31,5.31,0,0,0,96.09,40m-7.25,39.2a5.94,5.94,0,0,1-7.69-3.4,4.23,4.23,0,0,0-7.88,3.06,5.94,5.94,0,1,1-7.69-3.39,4.23,4.23,0,0,0-3.06-7.88,5.95,5.95,0,1,1,3.4-7.69,4.22,4.22,0,1,0,7.87-3.07,5.95,5.95,0,1,1,7.71,3.4,4.22,4.22,0,0,0,3,7.87,6,6,0,0,1,4.29,11.1" transform="translate(-45.69 -39.97)"/></svg>